<?xml version="1.0" standalone="no"?><!DOCTYPE svg PUBLIC "-//W3C//DTD SVG 1.1//EN" "http://www.w3.org/Graphics/SVG/1.1/DTD/svg11.dtd" ><svg xmlns="http://www.w3.org/2000/svg"><metadata></metadata><defs><font id="fonteditor" horiz-adv-x="1000"><font-face font-family="lINêkjkjOS{" font-weight="400" font-stretch="normal" units-per-em="1000" panose-1="0 2 6 0 4 1 1 1 1 1" ascent="872" descent="-266" x-height="1" bbox="0 -78 934 801" underline-thickness="0" underline-position="0" unicode-range="U+0021-ff1f" /><missing-glyph horiz-adv-x="1000"  /><glyph glyph-name="exclam" unicode="!" d="M203 449 Q191 395 184 359 Q172 309 170 273.5 Q168 238 158 222.5 Q148 207 140.5 203 Q133 199 117 207 Q109 254 129 301 Q141 363 144.5 396.5 Q148 430 150 459 Q152 488 160 515.5 Q168 543 177.5 549 Q187 555 195 555 Q203 555 209 549 Q215 543 215 519.5 Q215 496 203 449 ZM98 145 Q117 145 127 139 Q137 133 154.5 125 Q172 117 187 98 Q195 78 189.5 74 Q184 70 158.5 68 Q133 66 94 102 Q78 117 80 129 Q82 141 98 145 Z" /><glyph glyph-name="quotedbl" unicode="&quot;" d="M336 555 Q355 551 375 539 Q375 484 328 449 L316 426 L289 406 Q270 402 254 410 Q262 461 293 504 Q293 523 301 539 L336 555 ZM180 551 Q207 559 227 539 Q234 508 215 480 Q191 441 168 406 Q152 391 133 387 Q125 402 121 422 Q129 449 145 477 L160 543 L180 551 Z" /><glyph glyph-name="dollar" unicode="$" d="M285 625 Q301 625 309 613 Q312 586 305 555 L301 500 L348 484 Q363 469 375 453 L375 434 Q363 418 348 426 L305 430 Q309 445 297 453 Q285 379 273 301 Q285 293 301 297 Q332 289 355 266 Q383 234 391 199 Q383 148 352 113 Q336 109 316 98 Q273 94 242 66 Q242 51 234 39 Q234 0 219 -35 L191 -35 Q176 4 195 51 L195 78 Q160 90 129 109 L109 133 Q105 164 113 191 L125 191 L133 160 Q160 129 203 117 Q215 160 219 203 Q227 238 219 270 Q184 285 148 305 L145 312 L125 328 Q105 367 109 410 Q121 441 145 461 Q156 465 172 469 L172 473 Q215 496 258 504 Q266 535 266 566 Q270 598 285 625 ZM254 469 Q211 469 176 441 Q152 426 152 398 Q148 367 172 348 L176 344 Q203 324 234 316 Q242 328 238 348 Q254 406 254 469 ZM266 258 Q254 230 258 191 Q246 152 258 117 Q297 125 324 148 Q363 195 320 238 L305 246 L301 250 L273 258 L266 258 Z" /><glyph glyph-name="quotesingle" unicode="&#39;" d="M172 555 Q191 551 211 535 Q211 473 164 430 L148 402 L121 379 Q102 375 86 387 Q94 441 125 496 Q125 520 137 535 L172 555 Z" /><glyph glyph-name="parenleft" unicode="(" d="M254 574 Q273 570 293 570 Q305 559 297 543 Q281 535 266 543 Q230 531 207 500 Q172 457 156 402 Q141 359 148 320 Q148 266 156 215 Q172 164 215 125 Q238 113 258 125 Q277 133 293 117 Q297 98 285 82 Q246 55 211 74 Q184 82 164 102 Q133 125 133 160 Q105 211 105 270 Q90 344 117 414 Q141 484 191 535 L254 574 Z" /><glyph glyph-name="parenright" unicode=")" d="M105 559 Q156 551 199 523 L242 477 Q258 441 266 402 Q273 375 266 352 Q270 312 266 273 Q266 258 262 246 Q250 156 184 94 L133 59 L109 59 Q86 78 102 102 Q133 105 156 133 Q187 160 199 195 Q230 270 227 355 Q227 434 176 488 Q156 500 137 508 Q105 516 78 527 L86 547 L105 559 Z" /><glyph glyph-name="asterisk" unicode="*" d="M258 562 Q277 527 270 484 L273 473 L324 500 L348 500 Q367 480 355 461 Q309 449 273 426 Q297 410 324 383 Q344 371 355 355 L359 336 Q316 324 301 348 L289 355 L250 402 L219 375 L176 328 L141 328 Q141 355 164 379 L184 391 L203 414 L199 414 L160 449 Q141 469 125 488 L133 504 L145 504 L223 445 Q242 492 230 543 L238 555 L258 562 Z" /><glyph glyph-name="comma" unicode="," d="M113 176 Q137 176 160 164 Q180 141 180 109 Q176 51 145 0 Q117 -20 82 -20 Q74 4 98 27 Q113 51 102 70 L94 74 Q70 94 66 125 Q70 145 90 164 L113 176 Z" /><glyph glyph-name="hyphen" unicode="-" d="M383 324 L402 312 Q406 297 395 281 Q281 285 168 277 L109 281 L94 301 Q90 312 98 320 Q164 316 227 328 L383 324 Z" /><glyph glyph-name="period" unicode="." d="M145 148 Q172 113 148 78 Q121 59 94 74 Q74 94 74 125 L90 145 L105 152 L145 148 Z" /><glyph glyph-name="slash" unicode="/" d="M266 422 Q273 379 242 344 Q219 297 187 254 Q168 211 141 168 L94 66 Q90 43 70 23 L51 23 Q23 55 62 94 Q94 180 145 258 Q187 336 234 410 L250 426 L266 422 Z" /><glyph glyph-name="zero" unicode="0" d="M254 543 Q289 547 320 527 Q375 488 388.5 466.5 Q402 445 414 404 Q426 363 418 281 Q402 203 355 137 L293 74 Q266 66 234 78 L230 94 Q180 102 141 129 L109 160 Q70 254 102 355 Q129 441 156.5 476.5 Q184 512 201.5 523.5 Q219 535 254 543 ZM207 477 Q172 426 154.5 377 Q137 328 129 279 Q121 230 138.5 201 Q156 172 177.5 156.5 Q199 141 214.5 139 Q230 137 262 137 L281 125 L324 164 Q363 227 375 301 Q383 363 359 426 Q348 445 332 465 Q285 496 273 496 L254 496 Q242 496 207 477 Z" /><glyph glyph-name="one" unicode="1" d="M254 523 Q266 523 273 520 Q285 496 277 473 Q289 352 262 230 Q266 184 262 133 Q273 94 242 66 L223 70 Q207 98 219 125 Q219 230 238 336 Q234 426 242 512 L254 523 Z" /><glyph glyph-name="two" unicode="2" d="M301 543 Q328 527 348 512 Q398 449 379 375 Q355 309 301 266 Q270 238 230 215 L199 187 L172 160 Q164 141 180 125 Q207 109 238 109 Q305 117 359 148 Q383 164 390.5 152.5 Q398 141 398 137 L398 125 Q398 117 390.5 109.5 Q383 102 359 98 Q328 86 293 74 Q254 66 234.5 68 Q215 70 201 70 Q187 70 156 78 Q133 94 131 103.5 Q129 113 125 125 Q129 191 199 242 L230 266 Q266 289 293 316 Q328 348 336 391 Q348 449 316 477 L301 496 Q277 512 250 516 Q211 512 195.5 504 Q180 496 162.5 484.5 Q145 473 143 463 Q141 453 137 445 Q133 437 123 435.5 Q113 434 107.5 439.5 Q102 445 100 453 Q98 461 102 469 L109 488 Q117 500 131 513.5 Q145 527 166 537 Q187 547 224.5 551 Q262 555 301 543 Z" /><glyph glyph-name="three" unicode="3" d="M230 562 Q301 562 352 520 Q375 469 355 418 Q336 375 266 316 Q336 316 359 297 Q398 262 383 215 Q363 160 312 117 Q266 82 211 59 Q195 55 180 59 Q172 74 180 90 Q258 113 309 172 L336 211 Q352 238 332 258 Q309 270 281 277 Q258 285 227 270 Q203 254 191 270 Q172 285 195 305 Q215 320 223 336 Q270 371 301 418 Q332 465 309 504 Q270 527 223 523 Q176 512 145 477 Q137 473 129 477 L125 480 Q117 496 133 512 L180 551 L230 562 Z" /><glyph glyph-name="four" unicode="4" d="M336 465 Q332 375 316 285 L316 234 L336 242 Q379 262 398 289 Q422 301 434 277 Q434 258 422 242 Q379 203 320 195 L309 187 Q301 160 305 133 Q301 102 295 90 Q289 78 279.5 72 Q270 66 256 72 Q242 78 244 101.5 Q246 125 258 164 L258 180 Q187 184 156 195.5 Q125 207 109.5 226.5 Q94 246 78 285 Q62 352 94 410 Q105 445 129 480 L168 520 Q180 531 191.5 527 Q203 523 201 505.5 Q199 488 183.5 470.5 Q168 453 140.5 412 Q113 371 115 340 Q117 309 129 277 L141 258 Q160 234 191 230 Q230 219 266 230 L281 348 Q289 434 297 477 Q305 520 310.5 529.5 Q316 539 330 533 Q344 527 346 511.5 Q348 496 336 465 Z" /><glyph glyph-name="five" unicode="5" d="M168 527 L230 527 Q250 527 287 525 Q324 523 349.5 519.5 Q375 516 386.5 514 Q398 512 402 500 Q406 488 387 473 Q301 484 265.5 480.5 Q230 477 187 477 Q145 410 152 336 Q164 320 187 328 Q266 340 344 309 Q359 301 365 285.5 Q371 270 371 250 Q371 230 359.5 193 Q348 156 285 109 Q254 90 219 78 Q191 74 173.5 78 Q156 82 156 93.5 Q156 105 168 117 Q238 133 273 156 Q309 184 320 223 Q328 246 316 270 Q266 297 207 281 Q152 273 121 293 Q102 320 100 343.5 Q98 367 107.5 398.5 Q117 430 137 477 L121 492 Q113 508 129 520 Q145 527 168 527 Z" /><glyph glyph-name="six" unicode="6" d="M141 289 L168 316 Q219 344 273 355 Q336 363 383 320 Q414 277 414 219 Q402 156 355 113 Q316 90 296.5 80 Q277 70 240 68 Q203 66 177.5 80 Q152 94 164 117 Q137 113 117 137 Q82 191 90 258 Q94 324 105.5 357.5 Q117 391 138.5 445.5 Q160 500 177.5 527.5 Q195 555 207 555 Q219 555 223 549 Q227 543 227 533 Q227 523 217 507.5 Q207 492 177.5 427.5 Q148 363 141 289 ZM293 312 Q242 309 195 289 L164 262 L133 246 Q133 187 164 141 L164 125 Q180 121 195 109 Q230 102 262 113 Q289 125 309 141 L355 180 Q383 234 348 289 L340 293 L328 301 Q312 312 293 312 Z" /><glyph glyph-name="seven" unicode="7" d="M250 543 Q301 543 328 525.5 Q355 508 375 478.5 Q395 449 404.5 420 Q414 391 410 365.5 Q406 340 398.5 310.5 Q391 281 375 238 Q359 195 345.5 166 Q332 137 304.5 101.5 Q277 66 269.5 68 Q262 70 254 80 Q246 90 271.5 135 Q297 180 320.5 242.5 Q344 305 353.5 340 Q363 375 357.5 408 Q352 441 312 484 Q262 508 207 492 Q176 484 158.5 480.5 Q141 477 121.5 475 Q102 473 90 488 Q82 504 98 512 Q148 527 175.5 533 Q203 539 250 543 Z" /><glyph glyph-name="eight" unicode="8" d="M258 570 Q309 570 355 555 Q391 523 398 480 Q402 437 387 402 Q355 352 320 305 L340 297 Q355 273 379 254 Q426 168 352 94 Q312 62 262 55 Q203 47 148 70 Q125 78 105 94 Q70 117 70 156 Q86 207 121 242 L141 258 L148 270 L172 281 L176 293 L137 324 Q109 352 90 383 Q74 418 90 449 L102 453 Q105 484 125 508 Q180 559 258 570 ZM289 531 Q230 531 176 508 Q148 484 137 453 Q109 402 148 355 Q187 328 234 320 Q266 328 293 352 Q328 383 348 422 Q363 469 340 508 Q316 527 289 531 ZM289 285 Q254 273 223 277 L187 258 Q141 223 117 172 Q113 145 133 125 Q176 102 223 94 Q258 98 285 113 Q309 117 324 133 Q359 168 352 211 Q340 246 309 270 L293 281 L289 285 Z" /><glyph glyph-name="nine" unicode="9" d="M250 578 Q289 570 328 559 L352 535 Q359 523 352 512 Q324 504 309 527 Q289 527 273 539 Q230 543 195 512 Q156 473 145 418 Q121 355 160 305 Q203 277 258 285 Q293 285 320 312 L340 320 Q352 395 371 465 Q387 480 402 465 Q402 406 387 348 Q375 266 371 184 Q359 152 359 117 Q359 86 336 62 Q324 59 312 66 Q301 90 309 113 Q328 187 328 266 Q309 254 293 242 Q262 234 230 234 Q195 242 160 258 L145 258 Q105 297 94 348 Q94 441 148 516 Q191 555 250 578 Z" /><glyph glyph-name="colon" unicode=":" d="M176 387 Q195 375 191 355 Q191 336 176 324 Q156 316 141 328 Q113 348 125 379 L141 391 L176 387 ZM168 129 Q180 117 184 105 Q180 82 160 66 Q137 66 117 82 Q102 109 129 133 L141 137 L168 129 Z" /><glyph glyph-name="semicolon" unicode=";" d="M137 398 Q156 398 172 391 Q199 367 195 332 L172 309 Q145 305 121 320 Q94 363 137 398 ZM141 160 Q168 156 184 137 Q199 102 184 66 L141 12 Q121 8 102 0 L98 8 Q113 35 133 62 Q113 82 102 102 Q98 129 113 145 L141 160 Z" /><glyph glyph-name="less" unicode="&lt;" d="M297 562 Q285 512 238 477 Q191 402 133 340 Q105 305 109 258 Q125 227 152 203 L156 195 Q227 133 316 98 L332 78 Q328 66 316 55 Q270 62 223 94 Q184 113 152 141 Q70 199 62 293 Q109 387 184 465 Q223 520 277 566 L297 562 Z" /><glyph glyph-name="equal" unicode="=" d="M234 406 Q273 410 305 391 Q305 371 285 359 Q266 355 246 359 Q195 355 148 359 Q117 355 90 371 Q94 383 94 398 Q129 406 164 398 Q199 395 234 406 ZM277 242 Q297 242 312 230 Q316 211 301 195 Q258 195 215 199 Q152 187 86 203 Q78 215 78 227 Q105 242 145 230 L277 242 Z" /><glyph glyph-name="greater" unicode="&gt;" d="M102 539 Q137 527 168 500 Q207 477 242 445 L262 437 Q309 391 320 324 Q281 187 184 86 L152 59 L129 62 Q117 78 129 94 L148 113 L180 156 L195 168 Q223 199 238 238 Q270 285 273 344 L238 398 L133 484 L102 500 Q74 520 102 539 Z" /><glyph glyph-name="question" unicode="?" d="M242 574 Q273 578 301 562 L336 555 L344 547 L352 547 Q395 500 395 437 Q379 387 357.5 336 Q336 285 309 238 Q309 215 293 195 Q277 184 262 199 Q262 211 260 219 Q258 227 254 234 Q262 242 254 254 L262 250 L262 254 L258 254 Q281 289 304.5 328 Q328 367 344 410 Q348 418 348 426 L348 441 Q348 484 316 516 Q285 527 262 527 Q242 527 223 520 L211 520 L203 512 L191 508 Q148 465 148 402 Q152 391 152 379 Q152 367 160 348 L148 348 L129 359 Q102 395 113 441 Q125 496 168 539 Q195 574 242 574 ZM234 117 L238 113 L262 113 Q273 113 285 109 L289 105 Q301 102 310.5 98 Q320 94 332 86 Q332 74 330 66.5 Q328 59 320 55 Q312 51 302.5 55 Q293 59 285 66 Q270 66 256 68 Q242 70 230 78 Q215 90 223 105 L234 117 Z" /><glyph glyph-name="A" unicode="a" d="M277 551 Q293 555 305 547 Q352 547 379 512 Q430 426 457 328 Q477 293 484 254 Q496 211 504 160 Q512 148 512 133 Q527 98 500 66 L473 78 Q461 98 465 125 Q453 156 457 195 Q453 234 437 270 Q406 387 344 492 Q320 516 293 504 Q277 488 270 473 Q195 363 156 238 Q250 234 348 234 Q367 238 383 223 Q387 203 367 191 Q355 184 348 191 Q266 203 184 199 Q164 203 148 223 Q121 160 105 94 L90 55 Q70 43 55 59 Q70 156 117 246 Q160 359 223 465 Q246 512 277 551 Z" /><glyph glyph-name="B" unicode="b" d="M219 559 Q277 559 328 531 Q371 492 375 434 Q355 383 328 340 Q305 316 324 297 Q352 289 375 270 Q391 246 391 215 Q387 172 352 137 Q320 105 281 90 Q262 74 234 66 Q215 47 191 55 Q176 70 184 90 L258 121 L262 129 Q285 137 305 152 Q328 172 348 199 Q352 227 336 254 Q301 258 277 281 Q270 336 305 375 Q336 406 336 449 Q328 480 305 504 Q258 527 203 520 Q180 512 156 500 Q141 480 137 461 Q125 375 125 289 Q109 195 125 102 L117 82 L102 82 Q78 102 86 129 Q74 187 86 250 Q86 305 94 359 Q90 402 105 441 Q98 484 117 520 L145 539 L219 559 Z" /><glyph glyph-name="C" unicode="c" d="M363 527 Q395 500 391 486.5 Q387 473 377 473 Q367 473 355 488 Q324 508 302.5 506 Q281 504 261.5 492 Q242 480 213 447 Q184 414 166 371 Q148 328 146.5 283 Q145 238 152.5 201 Q160 164 177.5 146.5 Q195 129 214.5 117 Q234 105 257.5 103.5 Q281 102 306.5 105.5 Q332 109 347.5 127 Q363 145 373 146.5 Q383 148 390.5 144.5 Q398 141 402 127 Q406 113 387 94 Q352 66 322.5 58.5 Q293 51 258 55 Q223 59 197.5 70.5 Q172 82 142.5 109.5 Q113 137 102 211 Q90 332 145 426 Q172 473 211 504 Q250 535 281 539 Q312 543 326 541 Q340 539 363 527 Z" /><glyph glyph-name="D" unicode="d" d="M203 547 Q270 543 328 523 L398 469 Q418 441 426 414 Q434 352 418 289 Q387 215 332 152 Q266 90 176 74 Q156 51 137 70 Q137 86 125 98 Q113 180 117 266 Q125 352 133 441 L133 477 L105 465 L86 445 L74 449 Q62 469 74 484 Q94 508 121 516 Q164 527 203 547 ZM223 504 L180 492 Q168 434 164 367 Q145 234 164 105 Q180 117 199 117 Q211 125 223 129 Q273 156 316 191 Q324 219 344 238 Q375 289 387 352 Q395 402 363 441 Q305 496 223 500 L223 504 Z" /><glyph glyph-name="E" unicode="e" d="M191 551 L207 535 Q234 531 266 531 Q324 520 387 531 Q398 527 406 520 L406 508 L402 500 L398 488 Q293 496 191 500 Q148 418 133 328 Q234 316 340 328 L363 324 L371 309 Q363 293 355 281 Q316 281 281 285 Q199 285 121 277 Q105 234 109 184 L125 156 Q148 129 176 113 Q215 105 254 113 Q281 117 309 125 Q344 137 375 137 Q379 109 359 90 Q332 74 301 78 Q262 66 219 66 Q164 62 117 94 Q86 133 62 176 Q59 230 82 277 Q78 301 90 320 Q109 410 148 500 Q125 504 109 512 Q105 531 121 543 Q156 535 180 559 L191 551 Z" /><glyph glyph-name="F" unicode="f" d="M113 543 Q133 539 152 527 Q230 516 309 531 Q344 539 371 520 Q379 496 355 480 Q297 488 238 480 Q223 488 207 480 Q176 488 148 480 L148 332 L152 324 Q184 324 215 332 L297 328 Q328 348 363 332 Q367 305 348 289 Q250 289 152 285 Q152 187 160 98 L152 78 Q137 66 125 74 Q105 109 109 148 Q113 227 102 297 Q94 312 105 320 Q113 398 102 477 L94 477 L90 492 L102 531 L113 543 Z" /><glyph glyph-name="I" unicode="i" d="M242 535 Q270 535 301 527 L312 516 L301 492 Q285 484 273 492 L227 492 Q211 410 223 340 Q219 250 234 164 Q227 148 227 133 Q262 133 297 141 Q320 145 340 133 L348 125 Q340 105 324 90 Q285 94 250 86 Q168 82 90 86 Q70 98 70 117 Q98 133 137 125 L195 133 Q176 211 187 293 Q176 383 184 488 Q141 488 102 480 L78 500 L78 520 Q86 523 94 520 Q168 531 242 535 Z" /><glyph glyph-name="L" unicode="l" d="M211 531 Q207 480 187 430 Q160 328 145 227 Q129 172 168 129 Q203 109 242 117 Q273 117 305 129 Q332 137 363 137 Q395 152 422 137 L422 113 L414 113 Q410 102 406 94 Q391 86 379 94 Q344 82 309 78 Q242 66 176 78 L141 90 Q105 121 94 172 Q117 352 176 520 L195 535 L211 531 Z" /><glyph glyph-name="M" unicode="m" d="M148 539 Q168 535 187 523 Q238 477 273 418 L289 402 L355 461 L371 488 Q402 512 437 527 Q465 527 492 516 Q531 484 531 437 Q516 254 434 90 Q426 74 410 74 Q383 98 398 129 Q422 184 445 234 Q469 293 473 355 Q492 391 488 426 Q488 461 465 477 Q437 484 418 469 Q398 453 375 441 Q348 395 309 359 Q285 344 266 359 Q250 371 242 391 Q207 441 164 484 L148 484 L133 469 Q137 441 141 418 L113 398 Q102 309 113 219 Q121 168 145 117 L137 78 L125 70 Q66 129 82 215 Q74 230 82 250 Q70 336 74 426 Q78 473 98 516 L102 527 Q129 527 148 539 Z" /><glyph glyph-name="O" unicode="o" d="M207 551 L219 543 Q242 547 266 547 Q309 539 340 508 Q367 469 375 422 Q395 332 379 242 Q383 227 371 215 Q367 191 348 172 Q320 121 277 82 Q258 62 230 66 Q172 62 129 102 Q82 141 66 199 Q51 258 59 320 Q59 348 70 367 Q90 473 164 543 L187 551 L207 551 ZM223 516 Q211 508 195 516 L176 504 Q121 430 102 340 Q94 289 102 238 Q109 176 156 129 Q191 105 227 113 L242 102 L262 125 L273 129 L320 199 Q348 254 344 312 Q352 359 344 406 Q340 461 301 496 Q266 520 223 516 Z" /><glyph glyph-name="P" unicode="p" d="M250 559 Q309 562 355 523 Q387 484 398 437 Q398 406 395 375 Q375 309 312 262 Q277 230 230 227 Q199 211 176 230 L176 250 Q223 258 266 281 L324 328 Q348 363 359 402 Q359 457 316 500 Q285 523 250 523 Q195 516 148 492 Q148 449 141 402 Q133 285 152 168 Q164 105 160 55 Q141 43 125 62 Q125 82 109 94 Q109 145 102 195 Q98 293 102 391 Q102 414 105 437 Q98 480 125 520 Q180 551 250 559 Z" /><glyph glyph-name="R" unicode="r" d="M250 559 Q324 555 383 508 Q410 473 418 422 Q406 352 363 297 L316 258 Q340 227 367 195 Q398 152 414 105 L410 105 L406 94 Q395 86 383 94 Q363 109 359 133 Q320 187 277 238 Q219 211 160 219 L137 219 L133 117 Q133 90 121 62 Q105 51 94 62 Q78 74 86 94 Q86 113 90 133 Q98 270 109 402 Q105 445 133 477 L121 480 Q121 508 141 523 Q191 551 250 559 ZM234 520 L156 500 L145 488 Q160 465 148 430 Q137 328 141 234 Q164 246 191 250 Q254 266 305 301 Q348 336 367 391 Q375 402 371 418 Q367 449 348 477 Q309 516 250 520 L234 520 Z" /><glyph glyph-name="S" unicode="s" d="M215 555 Q250 559 281 535 L297 523 L324 508 Q328 488 316 477 L293 484 L289 484 Q277 496 271.5 504 Q266 512 250 516 Q199 523 156 496 Q117 469 105 418 Q94 355 145 320 Q184 301 227 289 Q273 277 316 250 Q355 203 336 156 Q324 129 305 102 Q281 78 246 66 Q207 43 164 55 Q129 51 105 70 Q94 90 98 109 Q109 113 125 102 Q187 66 250 113 Q281 141 297 176 Q301 211 277 230 Q238 246 203 250 Q145 266 98 309 Q59 352 62 414 Q74 465 105 500 Q137 527 172 547 L215 555 Z" /><glyph glyph-name="T" unicode="t" d="M78 523 Q98 520 113 516 Q164 523 215 516 Q277 523 344 516 Q395 520 445 504 L453 488 L441 480 L437 469 Q418 453 395 465 Q340 473 289 473 Q273 445 273 414 Q277 316 289 242 Q297 172 293 78 Q273 70 254 74 Q246 94 250 117 Q242 125 242 137 Q238 230 238 297 Q230 395 238 465 L234 477 Q176 469 117 480 L62 480 Q43 492 43 512 L78 523 Z" /><glyph glyph-name="U" unicode="u" d="M113 535 Q117 535 121 531 Q125 527 129 527 Q109 461 99.5 394.5 Q90 328 94 262 Q98 191 152 148 Q187 121 230 125 Q254 125 275.5 133 Q297 141 312 152 Q336 180 348 219 Q352 242 352 262 L352 305 Q352 348 348 389 Q344 430 336 473 L336 520 Q359 539 379 516 Q379 504 381 490.5 Q383 477 387 465 Q391 437 393 408 Q395 379 395 352 Q395 328 396.5 310.5 Q398 293 398 273 Q398 254 396.5 234.5 Q395 215 395 195 Q383 168 367.5 146.5 Q352 125 328 105 Q285 78 242 78 Q211 78 187 90 Q129 102 90 148 Q55 211 51 273 Q51 320 56.5 369 Q62 418 74 461 Q78 477 86 494.5 Q94 512 98 527 Q109 531 113 535 Z" /><glyph glyph-name="Y" unicode="y" d="M371 547 Q379 547 387 543 Q383 496 336 430 Q309 352 262 281 Q227 187 254 86 Q258 66 246 47 L227 43 Q203 62 203 94 Q199 187 211 273 L191 293 Q180 320 152 344 Q90 422 59 516 L62 516 L66 531 L78 531 Q145 418 230 320 L238 324 Q266 359 277 398 Q301 434 309 461 L324 477 Q332 484 336 504 L355 535 L371 547 Z" /><glyph glyph-name="bracketleft" unicode="[" d="M258 559 Q281 562 301 547 L301 535 L277 516 Q219 516 164 492 Q148 445 152 398 Q137 348 148 293 Q145 203 152 117 Q160 74 195 47 Q238 20 285 16 Q301 0 285 -8 L289 -16 L277 -27 Q266 -23 250 -23 Q195 -8 152 23 Q121 51 113 86 Q94 133 105 184 Q105 266 102 344 Q109 418 125 492 Q117 512 133 523 Q195 535 258 559 Z" /><glyph glyph-name="bracketright" unicode="]" d="M105 527 Q176 527 250 512 Q289 477 289 422 Q297 387 293 348 Q309 293 305 234 Q316 203 309 168 Q312 102 297 35 L277 0 Q238 -35 191 -70 Q172 -74 160 -59 Q156 -39 172 -23 L184 -20 L234 20 Q277 78 270 156 Q281 211 273 266 L262 328 Q266 410 223 480 Q180 504 137 488 Q117 500 98 500 Q78 508 90 523 L105 527 Z" /><glyph glyph-name="underscore" unicode="_" d="M301 70 L305 62 Q301 43 285 31 Q258 27 230 35 Q203 27 172 31 Q125 20 78 23 Q35 12 0 20 L0 27 L8 51 Q23 59 47 59 Q74 66 105 66 Q187 74 266 82 L301 70 Z" /><glyph glyph-name="grave" unicode="`" d="M78 555 Q90 555 98 543 Q164 516 227 488 Q238 477 230 465 L223 461 L219 453 Q191 449 168 473 Q113 496 62 523 Q59 543 78 555 Z" /><glyph glyph-name="a" unicode="a" d="M160 391 Q195 395 230 387 Q254 359 273 328 Q301 305 301 266 Q324 207 336 145 Q367 102 328 70 L312 74 L301 82 L301 74 Q281 184 258 293 L242 293 L242 328 Q195 383 137 344 Q90 297 78 227 Q78 164 121 125 Q145 109 168 121 Q195 148 211 184 L223 195 Q242 203 258 187 L258 172 L227 121 Q203 90 168 78 Q113 59 78 105 L66 117 L62 113 Q66 129 55 145 Q31 207 47 273 Q66 312 90 352 L137 387 L160 391 ZM66 109 L70 102 L62 109 L66 109 Z" /><glyph glyph-name="b" unicode="b" d="M141 523 Q160 492 141 453 L133 340 L141 340 L152 352 Q187 379 230 371 Q273 355 309 324 Q352 277 340 219 Q328 156 285 109 Q246 82 203 66 Q176 59 156 74 Q145 90 152 102 Q211 113 262 148 Q277 168 285 187 Q301 211 301 238 Q297 281 262 309 Q227 336 184 328 Q160 316 141 293 L141 262 L125 258 Q113 211 117 164 Q113 148 125 133 Q113 125 109 109 Q98 102 82 113 Q62 172 82 238 Q86 391 133 523 L141 523 Z" /><glyph glyph-name="c" unicode="c" d="M203 402 Q238 402 270 387 Q297 367 312 344 L309 328 L285 312 L254 352 Q227 367 191 359 L172 344 L152 344 Q125 301 105 254 Q94 187 129 133 Q176 82 234 117 L250 133 L266 137 Q293 117 270 90 Q207 43 133 74 Q94 105 66 148 Q51 219 78 281 Q86 316 105 344 Q121 355 137 363 L164 391 L203 402 Z" /><glyph glyph-name="d" unicode="d" d="M336 535 Q352 523 344 508 Q324 371 320 230 Q324 152 316 78 Q297 62 277 86 Q277 109 266 125 L242 105 Q223 90 195 78 Q145 55 98 86 Q59 137 59 203 Q66 281 117 332 Q137 355 168 363 Q215 371 250 340 L258 328 Q270 312 285 320 L297 477 L309 520 L316 520 Q320 531 328 543 L336 535 ZM187 328 Q168 336 152 320 Q117 277 105 227 Q105 176 125 129 Q152 105 191 125 L227 152 Q234 172 250 187 L270 168 L277 184 L277 273 L242 281 L242 297 Q223 328 187 328 Z" /><glyph glyph-name="e" unicode="e" d="M199 402 Q238 398 277 379 L316 340 Q320 309 316 277 Q277 246 227 227 Q195 219 160 223 L125 219 Q125 180 145 145 Q176 113 219 117 Q250 117 273 125 Q285 109 281 86 L262 66 Q223 62 180 70 Q145 78 121 109 Q94 145 82 187 Q74 254 98 316 Q105 309 113 309 L113 336 L160 387 L199 402 ZM211 367 Q180 363 156 336 Q129 309 129 270 Q160 262 191 266 Q242 270 273 305 L277 320 Q270 340 254 355 L211 367 Z" /><glyph glyph-name="f" unicode="f" d="M207 543 Q250 543 285 520 Q316 492 328 453 Q336 434 324 414 Q309 406 297 418 Q301 453 277 484 Q258 504 230 508 L199 500 Q176 473 168 437 Q168 387 180 336 L176 328 L180 324 Q223 316 262 332 L277 328 Q289 320 293 305 L277 281 L187 285 Q191 238 203 187 Q199 168 203 145 Q211 66 164 8 Q145 0 129 16 Q129 39 145 62 Q172 152 148 242 Q145 266 137 285 Q98 285 62 297 L59 305 L70 328 L129 328 Q133 355 129 383 Q113 457 164 516 L172 516 L172 512 L180 512 L180 527 L207 543 Z" /><glyph glyph-name="g" unicode="g" d="M160 402 Q203 398 238 367 Q250 344 234 324 L227 320 Q223 340 211 355 L180 367 L156 359 Q117 320 113 266 Q109 219 137 180 L160 172 Q191 184 215 207 L238 246 Q250 254 258 246 Q266 277 254 312 L258 332 Q273 344 289 332 Q309 254 312 168 Q320 98 297 35 Q285 0 258 -20 Q223 -39 184 -51 L168 -43 Q152 -27 160 -12 Q191 -8 223 4 Q262 35 270 86 Q273 145 266 203 Q250 180 230 156 Q199 137 160 129 Q125 137 90 156 Q55 234 86 316 Q105 359 141 391 L160 402 Z" /><glyph glyph-name="h" unicode="h" d="M105 547 Q121 551 133 539 Q121 430 125 320 L133 328 L141 340 L184 379 Q234 391 273 359 Q309 320 320 270 Q316 195 293 129 Q293 94 273 66 Q254 62 242 74 Q238 125 262 172 Q266 211 273 250 Q270 293 246 328 Q227 340 199 336 Q141 297 133 230 Q125 215 129 195 Q133 148 141 98 L133 82 Q117 59 98 78 Q90 102 94 133 Q74 266 86 398 Q78 477 105 547 Z" /><glyph glyph-name="i" unicode="i" d="M141 434 Q152 434 164 430 Q176 410 164 395 Q141 387 121 402 Q109 414 113 426 L141 434 ZM180 305 Q184 277 176 254 Q168 172 184 105 Q180 86 172 74 L145 70 Q121 98 133 129 Q137 187 141 254 Q141 281 152 301 Q164 305 172 309 L180 305 Z" /><glyph glyph-name="j" unicode="j" d="M141 441 Q160 434 184 441 L199 430 L199 406 L168 395 Q137 395 117 410 L117 426 L141 441 ZM176 324 Q191 305 187 281 Q195 230 211 187 Q223 86 176 0 Q160 0 152 -12 Q133 -12 117 -23 Q94 -27 78 -8 Q74 0 78 4 L133 23 Q160 55 168 98 Q176 172 152 238 Q141 289 160 328 L176 324 Z" /><glyph glyph-name="k" unicode="k" d="M129 531 Q148 453 133 375 Q133 324 141 277 L227 359 L258 391 Q273 398 289 383 L289 359 Q250 324 207 293 L160 246 Q184 227 211 223 Q238 199 273 195 Q301 180 328 176 Q344 148 324 129 Q289 125 266 152 Q203 180 141 203 Q137 145 148 90 L137 66 L117 66 L102 82 Q94 234 102 387 L102 516 L121 531 L129 531 Z" /><glyph glyph-name="l" unicode="l" d="M137 523 Q148 523 160 512 Q141 402 160 301 Q152 258 160 211 Q164 156 184 102 Q176 82 164 66 L145 66 Q129 113 129 164 Q113 250 117 336 Q109 402 113 477 Q121 504 137 523 Z" /><glyph glyph-name="m" unicode="m" d="M344 414 Q375 406 398 383 Q426 352 430 316 Q414 211 375 113 L375 102 L371 98 L352 66 L324 59 Q309 86 324 105 Q363 176 375 254 Q402 309 367 359 Q305 375 262 312 Q195 289 141 355 L121 352 L121 332 L133 324 L133 312 L98 312 Q102 242 109 180 Q121 129 148 86 L141 62 Q121 47 109 70 Q70 156 70 254 Q55 301 74 348 L82 348 Q90 367 109 387 Q180 395 223 340 L242 344 L293 395 Q316 410 344 414 Z" /><glyph glyph-name="n" unicode="n" d="M211 414 Q234 418 258 406 Q301 363 320 309 Q332 234 301 160 Q301 145 297 125 L293 121 Q281 90 254 66 Q238 62 227 66 Q219 90 234 105 Q250 141 258 180 Q281 223 285 273 Q281 332 234 367 L215 371 L164 344 Q156 328 141 312 Q117 289 121 262 L109 250 Q117 184 137 117 L121 86 L109 86 Q82 125 90 172 Q62 277 66 387 L86 398 L102 387 Q102 363 109 340 L141 375 Q172 402 211 414 Z" /><glyph glyph-name="o" unicode="o" d="M215 395 L230 395 L281 371 Q340 316 332 230 Q324 152 273 98 Q227 59 164 66 Q129 82 102 109 Q66 156 55 215 Q55 301 113 363 L156 391 L168 387 Q168 371 152 359 Q137 332 113 309 Q94 258 94 203 Q102 168 121 141 Q148 117 184 98 Q219 102 250 129 Q301 187 297 270 Q289 316 250 348 Q223 363 191 355 L176 359 L172 379 L211 398 L215 395 Z" /><glyph glyph-name="p" unicode="p" d="M98 422 Q109 418 121 410 L129 387 Q156 391 184 406 Q230 410 270 379 Q301 352 320 312 Q320 242 285 187 L242 160 Q195 145 152 152 L141 168 L145 180 Q195 180 238 211 Q270 242 277 285 Q273 316 254 340 Q227 363 191 363 Q152 363 125 336 Q113 262 117 184 Q121 82 137 16 Q141 -4 125 -23 L98 -12 Q90 27 86 74 Q74 215 86 320 Q82 375 98 422 Z" /><glyph glyph-name="q" unicode="q" d="M184 406 Q211 402 230 383 Q238 371 230 363 Q195 375 156 371 L129 355 Q74 316 78 250 Q94 199 129 168 L148 160 L191 176 L223 219 L215 234 L234 250 Q234 309 254 367 L273 367 Q301 336 273 293 Q277 242 270 191 Q273 98 270 -16 Q254 -31 234 -16 Q227 4 234 23 Q223 102 234 152 L230 160 L219 145 Q187 117 145 117 Q98 125 70 160 Q59 199 39 230 Q27 293 62 348 Q94 375 129 398 L184 406 Z" /><glyph glyph-name="r" unicode="r" d="M74 410 Q90 410 102 402 Q105 359 105 312 L113 293 Q141 344 184 383 Q223 398 262 398 L305 371 Q328 344 301 320 L277 324 L254 352 Q207 363 180 328 Q156 309 148 281 Q133 273 137 254 Q121 219 133 184 Q113 156 125 125 Q133 98 121 74 Q105 62 90 78 Q86 113 74 145 Q70 160 78 176 Q86 230 74 285 Q70 352 74 410 Z" /><glyph glyph-name="s" unicode="s" d="M187 406 Q238 410 277 383 Q281 367 266 355 Q250 355 234 348 Q227 355 227 371 Q191 379 160 359 Q148 348 145 336 Q129 309 148 281 Q215 246 289 227 Q305 211 305 187 Q305 137 266 98 L262 90 L187 59 Q164 51 137 59 L117 78 L125 90 L137 98 L148 90 Q191 94 230 117 Q262 148 262 191 Q207 219 141 234 L117 254 L94 305 Q98 344 121 379 Q152 402 187 406 Z" /><glyph glyph-name="t" unicode="t" d="M184 496 Q203 441 184 383 L184 363 Q227 363 266 348 Q277 328 262 312 Q246 309 234 312 Q199 324 172 316 Q160 254 172 195 Q172 156 191 125 Q211 109 227 125 L250 164 Q266 168 277 156 Q281 113 254 82 Q215 47 172 78 Q137 117 129 176 Q117 227 129 281 L129 316 L55 320 L39 328 L39 355 Q66 371 98 355 L137 355 Q148 375 145 395 Q156 449 172 496 L184 496 Z" /><glyph glyph-name="u" unicode="u" d="M98 387 Q109 383 117 379 Q125 355 113 336 Q102 266 102 199 Q105 156 137 133 L145 121 Q180 105 215 109 L238 121 Q258 156 270 191 L281 203 Q281 250 285 293 Q273 340 293 379 Q309 383 320 367 Q328 316 320 270 Q324 211 332 152 Q340 105 324 66 L305 62 Q281 82 289 113 L285 117 L273 98 Q250 70 219 70 Q156 55 105 98 Q62 137 59 195 Q59 254 70 312 Q74 344 86 375 L98 387 Z" /><glyph glyph-name="v" unicode="v" d="M355 387 Q352 348 344 310.5 Q336 273 320 234 Q309 187 289.5 146 Q270 105 246 70 Q238 70 232.5 68 Q227 66 223 70 Q219 70 211 72 Q203 74 199 74 L180 94 L156 113 Q129 141 109.5 174 Q90 207 74 242 Q62 270 56.5 301 Q51 332 51 363 Q66 367 78 352 Q82 320 92 291 Q102 262 113 234 Q125 215 136.5 197.5 Q148 180 168 164 L164 164 L172 152 L223 113 Q246 148 263.5 191 Q281 234 297 281 L297 277 Q309 328 320 387 L332 395 L355 387 Z" /><glyph glyph-name="w" unicode="w" d="M410 406 Q434 359 426 297 Q453 250 445 168 Q437 133 414 105 Q367 62 312 74 Q281 70 262 98 Q246 105 234 94 L211 62 Q191 51 172 47 Q125 51 90 78 Q39 145 62 223 Q70 254 86 309 Q90 355 117 398 L137 398 Q148 371 129 340 Q121 273 102 242 Q90 180 109 117 Q129 98 156 90 Q199 109 234 148 Q266 152 285 125 Q324 102 363 117 Q395 145 406 187 Q410 242 395 266 Q391 312 379 359 Q391 383 391 406 L410 406 Z" /><glyph glyph-name="x" unicode="x" d="M266 395 Q277 391 285 383 Q289 352 266 324 Q234 277 207 223 L285 152 L301 141 Q324 117 297 94 Q285 94 277 98 L262 121 L211 168 L191 187 Q160 137 133 82 L109 66 Q82 129 152 195 Q168 238 125 270 Q94 312 70 359 Q90 375 109 359 L180 258 L187 266 Q219 332 266 395 Z" /><glyph glyph-name="y" unicode="y" d="M312 395 Q305 309 258 234 Q230 168 195 105 Q172 39 145 -20 Q125 -27 105 -16 Q113 27 141 70 Q160 141 203 203 Q250 297 289 395 L312 395 ZM94 363 Q105 359 113 355 Q145 281 187 215 Q195 195 184 184 Q172 172 160 184 Q117 242 109 312 Q90 332 86 355 L94 363 Z" /><glyph glyph-name="z" unicode="z" d="M187 406 Q234 398 277 375 Q316 340 301 293 Q273 238 230 195 L133 125 Q113 109 117 86 Q133 78 148 78 Q215 70 277 98 Q309 102 336 90 Q340 70 320 55 Q254 51 187 39 Q141 43 90 51 Q59 86 82 129 L137 176 Q168 195 195 219 Q234 250 258 297 Q266 320 258 344 Q234 355 207 363 Q191 367 176 363 Q129 355 94 332 Q102 320 94 312 Q74 305 59 316 Q51 344 70 359 Q125 395 187 406 Z" /><glyph glyph-name="braceleft" unicode="{" d="M230 555 Q250 555 266 547 Q273 527 258 516 L223 516 L223 500 L195 484 Q191 461 187 441 Q184 406 195 375 Q195 312 168 258 L199 230 Q230 156 223 70 L230 39 Q242 27 262 23 Q281 8 266 -12 Q242 -27 219 -12 L207 0 L199 0 Q168 82 180 176 Q172 203 148 223 Q129 227 113 242 Q113 266 137 281 Q168 352 145 426 Q145 500 203 547 L230 555 Z" /><glyph glyph-name="bar" unicode="|" d="M191 555 Q199 551 211 547 Q203 500 211 449 Q207 414 219 375 Q215 141 223 31 Q211 20 211 4 Q195 0 184 4 Q168 23 176 47 Q180 187 168 453 Q168 504 180 551 L191 555 Z" /><glyph glyph-name="braceright" unicode="}" d="M129 555 Q168 551 199 523 Q246 453 234 367 Q238 348 250 328 Q270 316 289 309 Q301 301 293 289 Q277 262 250 242 Q223 172 223 98 Q211 35 172 -12 Q148 -27 121 -23 L117 -20 L109 -16 Q105 0 113 12 L148 23 Q168 43 172 66 Q184 94 180 117 Q187 211 230 285 Q187 324 195 379 Q187 398 195 418 Q195 457 172 488 Q141 496 117 516 L98 535 L102 547 L129 555 Z" /><glyph glyph-name="uni4E00" unicode="&#x4e00;" d="M254 336 Q180 320 160.5 318 Q141 316 137 334 Q133 352 152.5 363.5 Q172 375 246 386.5 Q320 398 445 406 Q570 414 685.5 416 Q801 418 824.5 414 Q848 410 846 386.5 Q844 363 822.5 363 Q801 363 685.5 365 Q570 367 449 359.5 Q328 352 254 336 Z" /><glyph glyph-name="uni4E0A" unicode="&#x4e0a;" d="M387 660 Q379 680 379 687.5 Q379 695 385 697 Q391 699 404.5 689.5 Q418 680 422 662.5 Q426 645 418 574 Q414 535 418 453 Q441 457 484 469 Q539 480 590 492 Q641 504 658.5 506 Q676 508 681.5 488.5 Q687 469 664 461 Q641 453 598 447 Q555 441 492 422 Q441 406 422 406 Q422 375 426 332 Q437 176 441 145 Q461 145 484 145 Q816 156 834 158 Q852 160 865.5 146.5 Q879 133 869 119 Q859 105 839.5 105 Q820 105 484 94 Q152 86 134.5 86 Q117 86 109.5 99.5 Q102 113 111.5 125 Q121 137 137 137 Q148 137 395 141 Q391 180 383 324 Q375 492 385 568.5 Q395 645 387 660 Z" /><glyph glyph-name="uni4E0B" unicode="&#x4e0b;" d="M570 305 Q523 309 500 316 Q508 230 516 145 Q527 -8 517.5 -17.5 Q508 -27 494 -23.5 Q480 -20 476.5 -4 Q473 12 467 168 Q461 324 453 449 Q445 566 445 590 Q402 582 355 578 Q195 559 177.5 562.5 Q160 566 158 584 Q156 602 175.5 605.5 Q195 609 347.5 625 Q500 641 638.5 654.5 Q777 668 794.5 670 Q812 672 818 652.5 Q824 633 800.5 625 Q777 617 645 609 Q570 605 484 594 Q488 574 496 441 L500 363 Q520 359 598 345.5 Q676 332 746 314.5 Q816 297 820 283.5 Q824 270 816.5 258 Q809 246 789 250 L711 273 Q652 293 570 305 Z" /><glyph glyph-name="uni4E24" unicode="&#x4e24;" d="M633 258 Q594 281 586 289 L574 254 Q547 184 539 172 Q531 160 515.5 166 Q500 172 500 185.5 Q500 199 531 270 Q559 336 598 426 Q535 418 445 398 Q402 387 371 379 Q359 336 348 297 Q363 293 387 281 Q430 266 467 250 Q504 234 506 222.5 Q508 211 502 205 Q496 199 488 199 Q480 199 445 216.5 Q410 234 367 246 Q352 250 340 254 Q328 203 324 195 Q316 184 300.5 189.5 Q285 195 285 209 Q285 223 301 289 Q312 324 324 367 Q285 359 277 359 Q262 359 248 373 Q234 387 246 395 Q258 402 340 422 L344 441 Q371 531 383 535 Q395 539 404.5 531 Q414 523 410 507.5 Q406 492 387 434 Q414 437 441 441 Q543 465 613 465 Q648 539 660 543 Q672 547 681.5 539 Q691 531 687 516 Q684 504 668 465 Q691 461 707 457 Q797 437 834 376.5 Q871 316 845.5 230.5 Q820 145 785 88 Q750 31 738.5 21.5 Q727 12 713 19.5 Q699 27 705 52.5 Q711 78 744 123 Q777 168 798.5 242 Q820 316 781 365 Q742 414 668 422 Q660 426 648 426 Q645 418 641 414 Q621 367 602 324 Q621 324 658 298.5 Q695 273 730.5 255.5 Q766 238 768 224.5 Q770 211 764 205 Q758 199 748 199 Q738 199 705 218.5 Q672 238 633 258 ZM168 305 Q156 406 160 423.5 Q164 441 183.5 439 Q203 437 203 419.5 Q203 402 216.5 294.5 Q230 187 248 136.5 Q266 86 264 66.5 Q262 47 248 43 Q234 39 226.5 47 Q219 55 201.5 131 Q184 207 168 305 ZM410 602 Q332 605 320.5 605 Q309 605 310.5 630.5 Q312 656 330 654 Q348 652 418 650 Q488 648 556.5 646.5 Q625 645 638.5 641 Q652 637 648.5 613.5 Q645 590 627 592 Q609 594 548.5 596 Q488 598 410 602 Z" /><glyph glyph-name="uni4E2A" unicode="&#x4e2a;" d="M512 508 Q508 508 500 508 Q500 488 508 352 Q516 215 516 127 Q516 39 512 23.5 Q508 8 492.5 8 Q477 8 473 21.5 Q469 35 469 125 Q469 215 457 355 Q449 492 453 520 Q402 531 387 543 Q309 465 254 398 Q187 316 175.5 312.5 Q164 309 150.5 312.5 Q137 316 137 334 Q137 352 217 434 Q297 516 398.5 619.5 Q500 723 515.5 723 Q531 723 543 711 Q555 699 539 685.5 Q523 672 422 574 L414 570 Q445 566 543 543 Q664 516 756 502 Q848 488 861.5 478.5 Q875 469 871 453 Q867 437 847.5 437 Q828 437 734.5 458.5 Q641 480 512 508 Z" /><glyph glyph-name="uni4E3B" unicode="&#x4e3b;" d="M391 309 Q324 301 310.5 303 Q297 305 297 328.5 Q297 352 314.5 352 Q332 352 402 359 Q449 363 500 371 Q500 395 500 422 Q500 516 504 543 Q437 543 359 535 Q238 523 220.5 527 Q203 531 201 548.5 Q199 566 218.5 570 Q238 574 353.5 580 Q469 586 572.5 590 Q676 594 693.5 596 Q711 598 717 578.5 Q723 559 699.5 551 Q676 543 578 543 L551 543 L551 539 Q551 520 551 418 L551 379 Q629 391 646.5 391 Q664 391 662 365.5 Q660 340 640.5 340 Q621 340 551 328 Q547 281 547 234 Q543 152 539 136.5 Q535 121 519.5 121 Q504 121 500 134.5 Q496 148 500 234 Q500 277 500 324 Q441 316 391 309 ZM367 20 Q187 -4 169.5 0 Q152 4 150 21.5 Q148 39 167.5 43 Q187 47 361 64.5 Q535 82 693.5 95.5 Q852 109 869.5 111 Q887 113 892.5 93.5 Q898 74 875 66.5 Q852 59 701.5 51 Q551 43 367 20 ZM492 695 Q461 723 459 740.5 Q457 758 474.5 767.5 Q492 777 498 763.5 Q504 750 541 720.5 Q578 691 574 677.5 Q570 664 558.5 662 Q547 660 537 666 Q527 672 492 695 Z" /><glyph glyph-name="uni4E86" unicode="&#x4e86;" d="M223 621 Q223 645 238.5 646.5 Q254 648 365.5 666 Q477 684 568.5 691.5 Q660 699 707 681.5 Q754 664 754 623 Q754 582 730.5 552.5 Q707 523 640.5 466.5 Q574 410 564.5 402.5 Q555 395 566.5 303 Q578 211 582 152.5 Q586 94 578 68.5 Q570 43 531 17.5 Q492 -8 472.5 -14 Q453 -20 445 1.5 Q437 23 453 29 Q469 35 494.5 52.5 Q520 70 527.5 87.5 Q535 105 531 158 Q527 211 517.5 297 Q508 383 506 406.5 Q504 430 517.5 437.5 Q531 445 593.5 498 Q656 551 677.5 568.5 Q699 586 699 609.5 Q699 633 673.5 640.5 Q648 648 562.5 642.5 Q477 637 369.5 617.5 Q262 598 242.5 600 Q223 602 223 621 Z" /><glyph glyph-name="uni4E8E" unicode="&#x4e8e;" d="M504 488 Q492 566 488 589.5 Q484 613 505.5 617 Q527 621 533 599.5 Q539 578 551 500 Q555 480 555 457 Q777 473 793 475 Q809 477 820.5 465 Q832 453 824 439.5 Q816 426 798.5 426 Q781 426 562 410 Q566 355 574 281 Q586 141 556.5 80.5 Q527 20 455 -3.5 Q383 -27 357.5 -25 Q332 -23 334 2 Q336 27 353.5 25 Q371 23 433.5 42.5 Q496 62 517.5 105 Q539 148 527 277 Q520 352 516 406 Q492 406 473 406 Q168 387 152.5 387 Q137 387 129 398.5 Q121 410 131 422 Q141 434 154.5 434 Q168 434 473 453 Q492 453 508 453 Q504 473 504 488 ZM477 648 Q332 652 316.5 652 Q301 652 293 664 Q285 676 295 687.5 Q305 699 318.5 699 Q332 699 476.5 697 Q621 695 636.5 697 Q652 699 666 687.5 Q680 676 670 662 Q660 648 641 648 L477 648 Z" /><glyph glyph-name="uni4E94" unicode="&#x4e94;" d="M234 78 Q152 74 136.5 72 Q121 70 117 84 Q113 98 129 109.5 Q145 121 230 121 Q289 121 375 117 L371 125 Q367 137 375 234 Q383 305 387 383 Q270 363 252 361 Q234 359 220.5 373 Q207 387 220.5 396.5 Q234 406 387 434 L387 457 Q391 582 395 605 L398 609 Q387 613 375 613 Q297 621 285 621 Q273 621 275 644.5 Q277 668 293 666 Q309 664 383 660 Q457 656 525.5 650.5 Q594 645 607.5 641 Q621 637 617 615.5 Q613 594 597.5 596 Q582 598 520 602 Q480 605 437 609 Q437 605 437 598 Q437 578 434 457 L434 441 Q555 457 625 441 Q707 426 736.5 383 Q766 340 740.5 293 Q715 246 680 189.5 Q645 133 633 121 Q625 117 621 117 Q676 117 727 121 Q855 125 875 121 Q895 117 893 97.5 Q891 78 871 78 L727 78 Q598 78 459 80 Q320 82 234 78 ZM605 121 Q594 129 599.5 154.5 Q605 180 638.5 225 Q672 270 693.5 305 Q715 340 683.5 371 Q652 402 586 406 Q527 414 430 395 Q426 309 418 238 Q410 141 406 125 L402 117 L457 117 Q539 117 613 117 L605 121 Z" /><glyph glyph-name="uni4EBA" unicode="&#x4eba;" d="M270 230 Q219 137 211 127 Q203 117 185.5 123 Q168 129 174 152.5 Q180 176 238.5 273.5 Q297 371 390.5 504 Q484 637 502 648.5 Q520 660 531.5 648.5 Q543 637 531.5 617.5 Q520 598 422 463 Q324 328 270 230 ZM504 262 Q402 316 388.5 330 Q375 344 381 357.5 Q387 371 410.5 367 Q434 363 535.5 306.5 Q637 250 723 201 Q809 152 812.5 136.5 Q816 121 808.5 109.5 Q801 98 779.5 103.5 Q758 109 683.5 158 Q609 207 504 262 Z" /><glyph glyph-name="uni4F5C" unicode="&#x4f5c;" d="M531 422 Q523 523 523 547 Q477 547 469 547 Q461 547 457 547 Q434 492 426 457 Q410 406 398.5 400.5 Q387 395 375 402.5 Q363 410 365 427.5 Q367 445 384.5 482.5 Q402 520 434 613 Q469 711 476.5 722.5 Q484 734 500 730.5 Q516 727 516 711 Q516 695 477 602 Q477 598 473 594 Q492 594 594 602 Q707 609 722.5 611 Q738 613 750 601.5 Q762 590 754 576 Q746 562 728.5 562 Q711 562 598 555 Q582 551 566 551 Q570 523 578 414 L578 410 L582 414 L629 414 Q660 414 693.5 416 Q727 418 744.5 418 Q762 418 760 392.5 Q758 367 738 367 L684 367 Q648 367 621 363 Q594 363 578 363 Q586 301 590 234 L594 238 Q609 246 644.5 244 Q680 242 740.5 242 Q801 242 816.5 238 Q832 234 832 216.5 Q832 199 816.5 197 Q801 195 746 199 Q691 203 648 199 Q605 195 594 199 L590 199 Q594 172 598 141 Q609 4 599.5 -6 Q590 -16 574.5 -12 Q559 -8 555 9.5 Q551 27 545 169.5 Q539 312 531 422 ZM254 398 Q250 473 250 492 Q234 465 219 441 Q184 391 170 389 Q156 387 148.5 398.5 Q141 410 150.5 422 Q160 434 195 482.5 Q230 531 273 586 Q316 645 328 656.5 Q340 668 353.5 654.5 Q367 641 353.5 625 Q340 609 297 551 L270 516 L273 516 Q289 516 289 502 Q289 488 295 386.5 Q301 285 308.5 232.5 Q316 180 314 164 Q312 148 302.5 144.5 Q293 141 285 148.5 Q277 156 269.5 230.5 Q262 305 254 398 Z" /><glyph glyph-name="uni5018" unicode="&#x5018;" d="M430 570 Q426 598 422 607.5 Q418 617 435.5 629 Q453 641 461 629 Q469 617 471 591.5 Q473 566 480.5 539 Q488 512 488 496 Q492 488 484 480 Q504 484 531 492 Q523 508 523 539 L523 629 Q523 680 529 695.5 Q535 711 550.5 709 Q566 707 568 693.5 Q570 680 568 627 Q566 574 570 548.5 Q574 523 574 504 L574 500 Q707 531 759.5 507.5 Q812 484 830 466.5 Q848 449 855.5 396.5 Q863 344 859 318.5 Q855 293 826 179.5 Q797 66 760 23 Q723 -20 709 -21.5 Q695 -23 685.5 -11.5 Q676 0 678 11.5 Q680 23 711 50.5 Q742 78 773.5 185.5 Q805 293 808.5 318.5 Q812 344 802.5 394.5 Q793 445 736.5 464.5 Q680 484 559 449 Q437 418 427.5 424 Q418 430 416 445.5 Q414 461 426 465 Q430 469 453 477 L449 480 Q441 496 439 521.5 Q437 547 430 570 ZM437 234 Q430 309 430 324.5 Q430 340 445 348 Q457 352 465 336 Q473 344 484 344 Q523 355 587.5 367 Q652 379 693 351.5 Q734 324 732 271.5 Q730 219 697 191.5 Q664 164 601.5 148.5 Q539 133 492 148.5 Q445 164 437 234 ZM223 379 Q219 437 219 457 Q211 437 199 418 Q172 367 156.5 365 Q141 363 133 377 Q125 391 135 402.5 Q145 414 174 463 Q203 512 234 566 Q270 625 283.5 636.5 Q297 648 310.5 634.5 Q324 621 310.5 603.5 Q297 586 262 527 Q254 512 242 496 Q258 492 258 480 Q258 469 264 367.5 Q270 266 275.5 213 Q281 160 279 144.5 Q277 129 267.5 125 Q258 121 250 129 Q242 137 236 211 Q230 285 223 379 ZM477 258 Q480 207 509.5 193.5 Q539 180 584 191.5 Q629 203 654.5 220.5 Q680 238 682 267.5 Q684 297 656.5 314.5 Q629 332 584 322 Q539 312 500 305 Q484 301 473 301 Q477 285 477 258 ZM340 340 Q336 398 336 416 Q336 434 351.5 434 Q367 434 371 422 Q375 410 381 334 Q387 258 398.5 180 Q410 102 400.5 92 Q391 82 379 86 Q367 90 363 103.5 Q359 117 353.5 199 Q348 281 340 340 ZM641 633 Q648 668 656 677.5 Q664 687 679.5 679.5 Q695 672 693 654.5 Q691 637 683.5 619.5 Q676 602 670 572.5 Q664 543 658 535 Q652 527 638.5 529 Q625 531 623 546.5 Q621 562 627 580 Q633 598 641 633 Z" /><glyph glyph-name="uni5148" unicode="&#x5148;" d="M320 94 Q293 31 279.5 21.5 Q266 12 252 23.5 Q238 35 242 50.5 Q246 66 279 128.5 Q312 191 344 250 Q355 277 367 293 Q348 289 332 289 Q187 266 169.5 269.5 Q152 273 150 291 Q148 309 167.5 312.5 Q187 316 326 334 Q465 352 592 365.5 Q719 379 736.5 381 Q754 383 762 363.5 Q770 344 744.5 336 Q719 328 598 320 Q594 297 578 242 Q559 180 572.5 115.5 Q586 51 691.5 51 Q797 51 818.5 55 Q840 59 846 33.5 Q852 8 822.5 2 Q793 -4 676 0 Q559 4 535.5 72.5 Q512 141 527 219 Q543 289 547 316 Q492 309 426 301 Q426 293 422 289 Q414 273 381 216.5 Q348 160 320 94 ZM242 527 Q262 602 267.5 615.5 Q273 629 291 621 Q309 613 305 599.5 Q301 586 293 539 Q316 543 371 551 Q414 559 457 562 L457 641 Q461 707 469 713 Q477 719 492.5 715 Q508 711 510 693.5 Q512 676 508 617 Q504 594 504 574 L508 574 Q574 586 591.5 588 Q609 590 615 570.5 Q621 551 597.5 543 Q574 535 516 527 L504 527 Q508 508 508 488 Q516 418 514 402.5 Q512 387 494.5 387 Q477 387 471 402.5 Q465 418 461 496 Q461 508 457 523 Q422 516 379 508 Q301 492 285 496 Q273 441 266 426 Q258 410 242.5 414 Q227 418 227 437.5 Q227 457 242 527 Z" /><glyph glyph-name="uni5206" unicode="&#x5206;" d="M410 391 Q305 375 287.5 373 Q270 371 266 394.5 Q262 418 279.5 420 Q297 422 416 441.5 Q535 461 595.5 457 Q656 453 687.5 418 Q719 383 713 291 Q707 199 681.5 123 Q656 47 621 6 Q586 -35 553 -37 Q520 -39 504 -37 Q488 -35 488 -9.5 Q488 16 505.5 14 Q523 12 546.5 17.5 Q570 23 593.5 56.5 Q617 90 638.5 154.5 Q660 219 662 295 Q664 371 638.5 390.5 Q613 410 564.5 410 Q516 410 410 391 ZM590 609 Q520 672 506 683.5 Q492 695 498 709 Q504 723 525.5 719 Q547 715 617 652.5 Q687 590 751.5 539 Q816 488 820 474.5 Q824 461 816.5 449 Q809 437 789.5 443 Q770 449 717 500 Q664 551 590 609 ZM395 258 L449 352 Q457 367 474.5 363 Q492 359 492 341.5 Q492 324 443.5 244 Q395 164 373.5 117 Q352 70 338 62.5 Q324 55 312.5 64.5 Q301 74 303 93.5 Q305 113 328.5 144.5 Q352 176 395 258 ZM289 453 Q242 371 228.5 363 Q215 355 203 363 Q191 371 199 388.5 Q207 406 259.5 498 Q312 590 328 597.5 Q344 605 355.5 589.5 Q367 574 351.5 556.5 Q336 539 289 453 Z" /><glyph glyph-name="uni5230" unicode="&#x5230;" d="M621 43 L133 43 Q117 43 111 54.5 Q105 66 113 76 Q121 86 133 86 L352 86 Q344 86 340 99.5 Q336 113 332 164 Q332 195 328 227 Q215 219 199.5 219 Q184 219 176 230.5 Q168 242 177.5 254 Q187 266 201 266 Q215 266 328 273 Q328 332 332 355 Q336 367 340 371 Q266 352 227 363 Q184 375 180 418 Q176 461 234 539 Q262 574 277 594 Q145 590 133 590 Q117 590 111 601.5 Q105 613 113 623 Q121 633 134.5 633 Q148 633 334 640.5 Q520 648 535.5 648 Q551 648 560.5 638.5 Q570 629 562.5 617 Q555 605 539 605 Q523 605 336 598 L328 598 Q316 578 277 523 Q230 457 226.5 435.5 Q223 414 252 406 Q281 398 349.5 421.5 Q418 445 437.5 449 Q457 453 459 431.5 Q461 410 445.5 406 Q430 402 348 375 Q355 379 359 375 Q383 371 381 349.5 Q379 328 379 273 Q457 281 469 281 Q484 285 496 273.5 Q508 262 500 248 Q492 234 473 234 Q461 234 379 227 Q379 195 379 168 Q383 117 379 101.5 Q375 86 363 86 L617 86 Q633 86 642.5 76 Q652 66 644.5 54.5 Q637 43 621 43 ZM762 582 Q758 676 754 699.5 Q750 723 771.5 728.5 Q793 734 799 710.5 Q805 687 810.5 597.5 Q816 508 822 342 Q828 176 806.5 107.5 Q785 39 738 9.5 Q691 -20 664 -18 Q637 -16 641 9.5 Q645 35 662.5 33 Q680 31 717 56.5 Q754 82 767.5 133 Q781 184 775.5 338 Q770 492 762 582 ZM586 391 Q590 473 590 488.5 Q590 504 599.5 512 Q609 520 621 512 Q633 504 633 394.5 Q633 285 631 273.5 Q629 262 615.5 262 Q602 262 594 285.5 Q586 309 586 391 ZM441 477 Q430 496 412.5 509.5 Q395 523 400.5 539 Q406 555 423.5 551 Q441 547 457 527.5 Q473 508 504 478.5 Q535 449 545 433.5 Q555 418 545 406.5 Q535 395 519.5 398.5 Q504 402 478.5 431.5 Q453 461 441 477 Z" /><glyph glyph-name="uni524D" unicode="&#x524d;" d="M309 141 Q285 133 273 129 Q277 74 275 54.5 Q273 35 259.5 31 Q246 27 238 35 Q230 43 226.5 125 Q223 207 219 309 Q219 410 223 426 Q223 437 230 441 Q234 445 242 449 Q262 465 351.5 478.5 Q441 492 472.5 461 Q504 430 504 355.5 Q504 281 498 197 Q492 113 474.5 72 Q457 31 441.5 25.5 Q426 20 412 35.5 Q398 51 408 62.5 Q418 74 427.5 89.5 Q437 105 447 207 Q457 309 455 359.5 Q453 410 429.5 427.5 Q406 445 340 430 Q285 422 266 410 L266 324 Q277 324 301 324 Q348 320 369.5 316 Q391 312 389 291 Q387 270 363 270 L305 270 Q281 270 266 273 Q270 215 270 176 Q285 180 301 184 Q328 191 351.5 199 Q375 207 392.5 209 Q410 211 418 191.5 Q426 172 400.5 164 Q375 156 359.5 154 Q344 152 309 141 ZM395 656 Q383 711 385 722.5 Q387 734 398.5 738 Q410 742 418 738 Q426 734 437 680 Q445 648 445 629 Q520 633 586 637 Q590 652 605 691 Q621 738 629 750 Q637 762 654.5 756 Q672 750 670 732.5 Q668 715 652 672 Q645 652 641 637 L672 637 Q812 637 822 625 Q832 613 826 597.5 Q820 582 804.5 582 Q789 582 666 586 Q543 590 383 574 Q227 559 207 559 Q187 559 181.5 576.5 Q176 594 195.5 605.5 Q215 617 371 625 Q387 625 398 629 Q398 641 395 656 ZM758 387 Q750 449 746 472.5 Q742 496 763.5 500 Q785 504 791 482.5 Q797 461 804.5 402.5 Q812 344 818 228.5 Q824 113 804.5 64.5 Q785 16 742 -2 Q699 -20 673.5 -18 Q648 -16 650 9.5 Q652 35 669.5 33 Q687 31 720.5 45 Q754 59 765.5 90 Q777 121 771.5 224.5 Q766 328 758 387 ZM586 277 Q590 336 596 349.5 Q602 363 615.5 361 Q629 359 633 347.5 Q637 336 637 275.5 Q637 215 631 201 Q625 187 609.5 189 Q594 191 588 207 Q582 223 586 277 Z" /><glyph glyph-name="uni53CC" unicode="&#x53cc;" d="M590 191 Q492 230 480.5 242 Q469 254 473 265.5 Q477 277 492.5 279 Q508 281 609 234 Q621 230 629 223 Q656 270 684 328 Q742 449 750 505.5 Q758 562 717 591.5 Q676 621 621 605 L551 586 Q539 582 535 601.5 Q531 621 543 633 Q555 645 621 656.5 Q687 668 742 631 Q797 594 797 527.5 Q797 461 738 328 Q711 258 676 203 Q734 184 770 168 Q832 148 842 136.5 Q852 125 846 109.5 Q840 94 822.5 96 Q805 98 746 125 Q707 145 652 168 Q637 141 617 121 Q555 43 539 37 Q523 31 513.5 48.5 Q504 66 519.5 76 Q535 86 582 148 Q594 164 605 184 Q598 187 590 191 ZM258 203 Q168 238 156.5 250 Q145 262 148.5 273.5 Q152 285 168 287 Q184 289 277 246 Q285 242 293 234 Q316 277 340 332 Q395 445 402.5 498 Q410 551 373 580 Q336 609 285 594 Q238 578 224.5 574 Q211 570 207 589.5 Q203 609 215 621 Q227 633 285.5 648.5 Q344 664 396.5 623 Q449 582 449 519.5 Q449 457 395 332 Q367 266 340 215 Q391 195 426 180 Q484 160 494 148.5 Q504 137 498 121 Q492 105 474.5 107 Q457 109 402 137 Q367 156 316 176 Q301 152 285 133 Q227 59 211 53 Q195 47 185.5 64.5 Q176 82 191.5 92 Q207 102 246 160 Q258 176 270 195 Q266 199 258 203 Z" /><glyph glyph-name="uni540C" unicode="&#x540c;" d="M348 273 Q336 367 334 394.5 Q332 422 351.5 428 Q371 434 371 410 Q371 402 375 379 Q445 414 500 418 Q562 426 617 414 Q672 402 676 351.5 Q680 301 654.5 269.5 Q629 238 635 220.5 Q641 203 611.5 197 Q582 191 402 172 Q406 152 388.5 146.5 Q371 141 365 162.5 Q359 184 348 273 ZM418 629 Q281 598 254 592 Q227 586 221 605.5 Q215 625 238.5 636.5 Q262 648 406.5 677.5 Q551 707 652.5 687.5 Q754 668 783 644.5 Q812 621 833.5 558.5 Q855 496 853.5 455 Q852 414 807 271.5 Q762 129 723 68.5 Q684 8 666 0 Q648 -8 636.5 7.5 Q625 23 636.5 35 Q648 47 679.5 97.5 Q711 148 760 298.5 Q809 449 791 513.5 Q773 578 753.5 597.5 Q734 617 646.5 638.5 Q559 660 418 629 ZM387 293 L398 215 Q566 234 574 238 Q582 242 601.5 267.5 Q621 293 625 328 Q629 363 599.5 373 Q570 383 512 379 Q457 375 379 340 Q383 316 387 293 ZM168 418 Q152 562 156 582 Q160 602 177.5 605.5 Q195 609 199 585.5 Q203 562 215 419.5 Q227 277 240.5 173.5 Q254 70 256 56.5 Q258 43 244 37 Q230 31 216.5 39 Q203 47 193.5 160 Q184 273 168 418 ZM434 477 Q387 477 373 478.5 Q359 480 359 503.5 Q359 527 375 527 L441 527 Q492 527 547 529 Q602 531 619.5 531 Q637 531 635 505.5 Q633 480 613 480 L535 480 Q480 480 434 477 Z" /><glyph glyph-name="uni5417" unicode="&#x5417;" d="M582 652 Q500 645 482.5 639 Q465 633 461 656.5 Q457 680 470.5 685.5 Q484 691 593.5 707 Q703 723 746 672 Q789 621 779.5 574 Q770 527 734 449 Q711 398 695 375 Q746 371 785 352 Q848 316 842 220.5 Q836 125 769.5 49 Q703 -27 685.5 -29 Q668 -31 658 -9.5 Q648 12 662 16 Q676 20 726.5 74.5 Q777 129 789 203 Q801 277 748 308.5 Q695 340 609 328 Q523 316 492 326 Q461 336 461 361.5 Q461 387 496 500 Q535 617 539 625 Q543 633 564.5 631 Q586 629 584 609.5 Q582 590 545 484.5 Q508 379 523.5 371 Q539 363 629 375 Q637 375 641 375 Q641 387 648 398 Q664 418 691.5 472.5 Q719 527 732.5 568 Q746 609 707 636.5 Q668 664 582 652 ZM152 375 Q148 437 148 453 Q148 469 166 473 Q184 477 189.5 457 Q195 437 197 382.5 Q199 328 201 293 Q203 258 209 246 Q215 234 234.5 238 Q254 242 285 246 Q289 246 293 250 Q297 262 304.5 293 Q312 324 320 388.5 Q328 453 314.5 474.5 Q301 496 250 492 Q199 488 191.5 496 Q184 504 184 513.5 Q184 523 193.5 527 Q203 531 256 533 Q309 535 330.5 521.5 Q352 508 363.5 480.5 Q375 453 363.5 377 Q352 301 344 262 Q340 258 340 254 Q355 250 355 230 Q359 207 339.5 205 Q320 203 295 199 Q270 195 234.5 191 Q199 187 187.5 191 Q176 195 168 212.5 Q160 230 158 271 Q156 312 152 375 ZM523 129 Q480 129 466.5 131 Q453 133 453 156.5 Q453 180 469 180 L535 180 Q582 180 633 182 Q684 184 701.5 184 Q719 184 717 158.5 Q715 133 695 133 L621 133 Q570 133 523 129 Z" /><glyph glyph-name="uni548C" unicode="&#x548c;" d="M320 645 Q273 637 261.5 637 Q250 637 252 662 Q254 687 271.5 685.5 Q289 684 328 695.5 Q367 707 416 703 Q465 699 478.5 695 Q492 691 488 668 Q484 645 466.5 646.5 Q449 648 406 652 Q391 652 371 652 Q375 617 379 500 L379 461 Q449 477 466.5 478.5 Q484 480 490 460.5 Q496 441 472.5 433.5 Q449 426 387 418 L379 418 Q383 336 387 254 Q453 254 468.5 250 Q484 246 484 228.5 Q484 211 468.5 209 Q453 207 387 211 L391 168 Q402 -4 392.5 -13.5 Q383 -23 371 -19.5 Q359 -16 355.5 -2 Q352 12 348 187 Q348 199 344 211 Q305 215 273 215 L223 215 Q219 184 219 160 Q215 109 215 91.5 Q215 74 201 68 Q187 62 175.5 76 Q164 90 172 152.5 Q180 215 187 297 Q191 348 195 375 Q160 367 148 371 Q133 375 131 392.5 Q129 410 148.5 414 Q168 418 238 434 Q289 445 340 453 L340 504 Q336 625 336 648 L320 645 ZM594 492 Q594 516 609.5 521.5 Q625 527 672 535 Q719 543 762 527.5 Q805 512 816.5 445.5 Q828 379 810.5 283 Q793 187 787 167.5 Q781 148 769.5 140.5 Q758 133 685.5 127 Q613 121 597.5 129 Q582 137 572 158.5 Q562 180 556.5 258 Q551 336 539 414 Q527 492 531 504 Q535 516 554.5 516 Q574 516 578 498 Q582 480 588 408 Q594 336 601.5 265.5 Q609 195 617 181.5 Q625 168 679.5 172 Q734 176 740 187.5 Q746 199 761.5 283 Q777 367 769.5 420 Q762 473 730.5 482.5 Q699 492 668 486 Q637 480 617.5 476.5 Q598 473 594 492 ZM246 387 L238 383 Q238 367 230 293 L227 262 Q242 262 270 258 Q301 254 344 254 Q344 336 340 410 Q297 402 246 387 Z" /><glyph glyph-name="uni56DE" unicode="&#x56de;" d="M355 293 Q348 379 348 404.5 Q348 430 367.5 435.5 Q387 441 387 418 L387 395 Q430 418 469 426 Q520 434 561 422 Q602 410 607.5 363 Q613 316 593.5 287 Q574 258 580 240.5 Q586 223 556.5 217 Q527 211 406 195 Q410 176 392.5 170 Q375 164 369 185.5 Q363 207 355 293 ZM488 551 Q371 520 351.5 518 Q332 516 318.5 531.5 Q305 547 318.5 556.5 Q332 566 480.5 599.5 Q629 633 709 605.5 Q789 578 818.5 507.5 Q848 437 824.5 363 Q801 289 767.5 195.5 Q734 102 720.5 92 Q707 82 693.5 90 Q680 98 685.5 125 Q691 152 722.5 234 Q754 316 773.5 376.5 Q793 437 761.5 494 Q730 551 667.5 566.5 Q605 582 488 551 ZM398 309 Q402 262 402 234 Q512 254 519.5 258 Q527 262 541 285.5 Q555 309 557 340 Q559 371 543 381 Q527 391 480 383 Q441 379 391 352 Q395 332 398 309 ZM406 59 Q312 47 294.5 51 Q277 55 275 72.5 Q273 90 292.5 94 Q312 98 398 105.5 Q484 113 562.5 123 Q641 133 658.5 135 Q676 137 681.5 117.5 Q687 98 664 90 Q641 82 570.5 78 Q500 74 406 59 ZM168 371 Q156 430 154 453.5 Q152 477 173.5 480.5 Q195 484 203 459 Q211 434 220.5 371.5 Q230 309 248 244.5 Q266 180 266 160.5 Q266 141 246.5 137 Q227 133 221 150.5 Q215 168 199.5 240 Q184 312 168 371 Z" /><glyph glyph-name="uni56FA" unicode="&#x56fa;" d="M484 609 Q328 586 314.5 584 Q301 582 297 597.5 Q293 613 306.5 621 Q320 629 486 656.5 Q652 684 736 656.5 Q820 629 837.5 537 Q855 445 828 304.5 Q801 164 758 80 Q715 -4 703 -12 Q691 -20 679.5 -8 Q668 4 676 12 Q676 16 684 31 L598 31 Q512 31 418 23.5 Q324 16 312.5 18 Q301 20 301 41 Q301 62 316.5 62 Q332 62 426 68 Q520 74 605.5 76 Q691 78 707 78 L711 78 Q715 90 723 105 Q766 191 787.5 322 Q809 453 783.5 533 Q758 613 699.5 623 Q641 633 484 609 ZM359 238 Q348 312 346 335.5 Q344 359 363.5 365 Q383 371 383 348 Q383 340 387 320 Q449 352 504 355 Q566 363 617 353.5 Q668 344 674 301 Q680 258 654.5 232.5 Q629 207 635 189.5 Q641 172 611.5 166 Q582 160 414 152 Q418 133 400.5 127 Q383 121 377 142.5 Q371 164 359 238 ZM398 250 Q406 215 406 191 Q566 203 574 207 Q582 211 601.5 230.5 Q621 250 623 277.5 Q625 305 599.5 312.5 Q574 320 516 316 Q461 312 395 281 Q395 270 398 250 ZM215 391 Q207 492 209 511.5 Q211 531 226.5 535 Q242 539 248 517.5 Q254 496 258 402.5 Q262 309 269.5 209 Q277 109 283 89.5 Q289 70 275.5 58.5 Q262 47 250 58.5 Q238 70 230.5 179.5 Q223 289 215 391 ZM488 496 Q492 531 500 546.5 Q508 562 525.5 556.5 Q543 551 539 531.5 Q535 512 531 484 Q527 477 527 469 Q590 473 603.5 469 Q617 465 617 449.5 Q617 434 603.5 432 Q590 430 535 426 L523 426 L523 422 Q523 387 519.5 373 Q516 359 498 361 Q480 363 480 383 Q480 398 480 422 Q457 418 437 414 Q395 402 385 404 Q375 406 375 421.5 Q375 437 386.5 441 Q398 445 434 453 Q453 461 488 465 L488 496 Z" /><glyph glyph-name="uni5728" unicode="&#x5728;" d="M293 227 L289 238 Q219 121 207 117 Q195 113 181.5 117 Q168 121 168 138.5 Q168 156 254 273 Q266 289 277 309 Q281 312 285 316 Q352 406 430 512 Q418 512 410 512 Q293 500 275.5 504 Q258 508 256 525.5 Q254 543 273.5 547 Q293 551 402 559 Q434 559 461 559 Q551 684 566.5 684 Q582 684 592 672 Q602 660 586 645 Q578 637 523 566 Q570 570 617 574 Q723 586 740.5 588 Q758 590 764 570.5 Q770 551 746.5 543 Q723 535 625 531 Q562 527 488 520 Q480 508 469 492 Q387 391 328 297 Q336 273 344 227 Q355 180 375 131 Q395 82 395 62.5 Q395 43 375 39 Q355 35 349.5 52.5 Q344 70 326.5 127 Q309 184 293 227 ZM590 316 Q594 379 601.5 385 Q609 391 625 387 Q641 383 643 365.5 Q645 348 641 297 Q684 301 691 301 Q707 305 718.5 295 Q730 285 722.5 273.5 Q715 262 699 262 Q687 262 637 254 Q637 215 641 168 Q645 121 645 105 Q734 113 750 115 Q766 117 777.5 105.5 Q789 94 781 80 Q773 66 755.5 66 Q738 66 613 58.5 Q488 51 472.5 51 Q457 51 449 62.5 Q441 74 451 86 Q461 98 474.5 98 Q488 98 598 102 Q594 125 594 176 Q590 219 590 254 L586 254 Q492 246 478.5 246 Q465 246 457 256 Q449 266 457 275.5 Q465 285 478.5 285 Q492 285 586 293 L590 293 L590 316 Z" /><glyph glyph-name="uni5927" unicode="&#x5927;" d="M473 453 Q437 449 406 445 Q316 262 265.5 166 Q215 70 203 62.5 Q191 55 179.5 64.5 Q168 74 170 91.5 Q172 109 223 187 Q273 266 355 441 Q195 430 184 430 Q168 430 160 441.5 Q152 453 162 465 Q172 477 184 477 Q195 477 379 492 Q453 648 461 660 Q469 672 484.5 668 Q500 664 500 648.5 Q500 633 434 496 Q449 500 469 500 Q742 527 757.5 529 Q773 531 787 519.5 Q801 508 791 494 Q781 480 763.5 480 Q746 480 473 453 ZM621 238 Q551 293 541 308.5 Q531 324 541 336 Q551 348 566.5 342 Q582 336 650.5 279.5 Q719 223 785.5 182 Q852 141 853.5 123 Q855 105 843.5 91.5 Q832 78 814.5 91.5 Q797 105 744 144.5 Q691 184 621 238 Z" /><glyph glyph-name="uni597D" unicode="&#x597d;" d="M203 379 Q141 367 123 371 Q105 375 103.5 392.5 Q102 410 121.5 414 Q141 418 195 422 Q207 426 219 426 Q238 492 254 551 Q289 668 299 689.5 Q309 711 328.5 701 Q348 691 342 671.5 Q336 652 301 547 Q285 492 266 430 L301 434 L352 441 Q355 445 355 449 Q363 473 382.5 469 Q402 465 402 445.5 Q402 426 383 305 Q367 207 359 141 Q426 141 445.5 141 Q465 141 463 115.5 Q461 90 443.5 90 Q426 90 355 94 Q352 39 340 27 Q328 16 312.5 21.5 Q297 27 301 51 L305 98 Q242 109 207 141 Q164 184 191 309 L207 379 L203 379 ZM414 590 Q406 605 423.5 619 Q441 633 515.5 672 Q590 711 676 715 Q762 719 785.5 683.5 Q809 648 799 599.5 Q789 551 742 490.5 Q695 430 693 416 Q691 402 707 316 Q711 297 715 277 Q797 277 805 277 Q820 281 832 269.5 Q844 258 836 244 Q828 230 809 230 L719 230 Q719 187 711 145 Q699 59 662 25.5 Q625 -8 603.5 -8 Q582 -8 576 9.5 Q570 27 580 33 Q590 39 621 60.5 Q652 82 664 152 Q672 191 668 230 L441 230 Q426 230 418 242 Q410 254 420 265.5 Q430 277 441 277 L664 277 Q664 293 660 309 Q641 395 637 408.5 Q633 422 639 431.5 Q645 441 691.5 505.5 Q738 570 746 597.5 Q754 625 742 648.5 Q730 672 666 668 Q602 664 529.5 625 Q457 586 441.5 580 Q426 574 414 590 ZM336 324 Q340 363 344 391 L309 391 Q285 391 254 387 L238 320 Q211 199 246 172 Q270 152 312 145 L312 148 Q324 219 336 324 Z" /><glyph glyph-name="uni59CB" unicode="&#x59cb;" d="M187 355 Q129 344 113.5 348 Q98 352 96 367.5 Q94 383 111.5 387 Q129 391 180 395 Q191 398 203 398 Q219 461 234 523 Q266 641 275.5 662.5 Q285 684 304.5 674 Q324 664 318 644.5 Q312 625 281 520 Q266 465 250 402 L281 406 Q312 410 328 410 Q332 422 332 426 Q340 445 357.5 441 Q375 437 375 419.5 Q375 402 355 281 Q340 184 336 113 Q398 113 417.5 113 Q437 113 435.5 87.5 Q434 62 416 62 Q398 62 332 66 Q328 16 316 4 Q305 -8 291 -2 Q277 4 281 27 Q281 39 285 70 Q227 82 191 113 Q152 156 180 281 Q187 320 195 355 Q191 355 187 355 ZM465 195 Q461 273 465 291 Q469 309 488.5 307 Q508 305 508 287.5 Q508 270 514 186 Q520 102 527 66 L527 62 Q543 66 586 66 Q629 66 679.5 64 Q730 62 750 70 Q770 78 783.5 123 Q797 168 801 207 Q805 246 789 271.5 Q773 297 722.5 299 Q672 301 629 273.5 Q586 246 570.5 238 Q555 230 543 246 Q535 266 552.5 277.5 Q570 289 611 318.5 Q652 348 726.5 348 Q801 348 830 305 Q859 262 853.5 209 Q848 156 824.5 91.5 Q801 27 773.5 23.5 Q746 20 687 20 L590 20 Q551 20 531 16 L531 12 Q531 -8 517.5 -12 Q504 -16 496 -8 Q488 0 480.5 60.5 Q473 121 465 195 ZM555 621 Q605 703 613 713 Q621 723 638.5 713 Q656 703 646.5 689.5 Q637 676 598 607.5 Q559 539 545 490 Q531 441 548.5 433.5 Q566 426 619 437.5 Q672 449 691.5 453 Q711 457 713 435.5 Q715 414 699.5 410 Q684 406 619.5 392.5 Q555 379 523.5 390.5 Q492 402 498 472.5 Q504 543 555 621 ZM316 297 Q320 340 324 367 Q309 367 287.5 367 Q266 367 242 363 L227 293 Q199 172 230 145 Q254 125 293 117 L293 121 Q305 191 316 297 ZM762 477 Q734 512 718.5 519.5 Q703 527 709 546.5 Q715 566 732.5 560.5 Q750 555 779.5 519.5 Q809 484 824.5 476.5 Q840 469 830 447.5 Q820 426 804.5 433.5 Q789 441 762 477 Z" /><glyph glyph-name="uni5B50" unicode="&#x5b50;" d="M254 270 Q180 254 160.5 252 Q141 250 137 267.5 Q133 285 152.5 297 Q172 309 246 320.5 Q320 332 445 340 L496 344 Q492 383 488 398 Q488 422 502 429.5 Q516 437 568.5 480 Q621 523 638.5 539 Q656 555 656 572.5 Q656 590 634.5 596 Q613 602 541 598 Q469 594 383 576.5 Q297 559 277.5 560.5 Q258 562 258 582 Q258 605 273.5 607 Q289 609 379 625 Q469 641 547 646.5 Q625 652 666 636.5 Q707 621 707 586 Q707 551 687.5 523.5 Q668 496 611.5 449 Q555 402 547 394.5 Q539 387 543 344 Q617 348 684 348 Q801 352 824.5 348 Q848 344 846 320.5 Q844 297 822.5 297 Q801 297 684 297 Q621 301 551 297 Q562 230 562 184 Q562 137 556.5 113.5 Q551 90 519.5 68.5 Q488 47 468.5 43 Q449 39 441.5 58.5 Q434 78 449.5 84 Q465 90 482.5 101.5 Q500 113 508 130.5 Q516 148 512 191 Q512 230 504 297 L449 293 Q328 285 254 270 Z" /><glyph glyph-name="uni5B9A" unicode="&#x5b9a;" d="M531 238 Q496 230 477 230 Q480 223 480 215 Q484 176 480.5 160.5 Q477 145 461 145 Q445 145 441 158.5 Q437 172 433.5 213 Q430 254 430 301 Q434 344 437 371 L414 367 Q320 352 302.5 355.5 Q285 359 283 377 Q281 395 300.5 398.5 Q320 402 406 414 Q492 426 570 437.5 Q648 449 666 451 Q684 453 689.5 433.5 Q695 414 671.5 406 Q648 398 578 391 Q535 387 484 379 Q484 375 484 367 Q484 348 480 301 Q480 289 477 277 Q496 281 523 281 Q559 285 592 293 Q625 301 642.5 303 Q660 305 666 285.5 Q672 266 648.5 258 Q625 250 599.5 248 Q574 246 531 238 ZM402 543 Q305 520 289 516 Q273 512 265.5 523.5 Q258 535 269.5 550.5 Q281 566 404 589.5 Q527 613 636.5 621 Q746 629 785 601.5 Q824 574 826 529 Q828 484 800.5 453 Q773 422 759.5 412 Q746 402 730.5 412 Q715 422 719 435.5 Q723 449 752 476.5 Q781 504 773.5 531.5 Q766 559 742.5 570.5 Q719 582 611.5 576 Q504 570 402 543 ZM426 66 Q320 82 306.5 90 Q293 98 297 115.5 Q301 133 318.5 133 Q336 133 443.5 115.5 Q551 98 683.5 86 Q816 74 835.5 66.5 Q855 59 849.5 37.5 Q844 16 816.5 19.5 Q789 23 662 39 Q535 55 426 66 ZM219 180 Q223 242 230.5 259.5 Q238 277 257.5 271.5 Q277 266 273.5 244.5 Q270 223 266 172 Q262 121 260 58.5 Q258 -4 254 -19.5 Q250 -35 230.5 -33 Q211 -31 211 -9.5 Q211 12 215 66.5 Q219 121 219 180 ZM156 527 Q160 570 166 595.5 Q172 621 193.5 615 Q215 609 213 587.5 Q211 566 207 527 Q203 488 213 453 Q223 418 219 402.5 Q215 387 199.5 387 Q184 387 180 400.5 Q176 414 166 451 Q156 488 156 527 ZM488 668 Q469 703 467 716.5 Q465 730 478.5 736 Q492 742 502 730.5 Q512 719 535.5 689.5 Q559 660 559 644.5 Q559 629 547 625 Q535 621 523.5 629 Q512 637 488 668 Z" /><glyph glyph-name="uni5BB6" unicode="&#x5bb6;" d="M770 121 Q707 117 691 121 Q672 62 621 23 Q562 -23 548.5 -35 Q535 -47 515.5 -29.5 Q496 -12 511.5 4 Q527 20 582 61 Q637 102 648 164 Q660 227 629 258 Q617 238 578 203 Q520 152 478.5 101.5 Q437 51 429.5 39 Q422 27 406.5 33 Q391 39 391 52.5 Q391 66 435.5 117 Q480 168 539 230 Q574 270 590 281 Q566 297 535 301 Q520 285 492 258 Q437 207 400 158 Q363 109 355.5 97.5 Q348 86 332 92 Q316 98 316 111.5 Q316 125 357 174 Q398 223 453 285 Q465 301 477 309 Q457 312 445 312 Q422 312 422 340 L422 348 Q359 285 328 246 Q293 207 281.5 201 Q270 195 258 199 Q246 203 246 218.5 Q246 234 291 279 Q336 324 410 402 Q445 437 465 457 Q406 457 363 457 Q289 453 277.5 457 Q266 461 266 476.5 Q266 492 279.5 498 Q293 504 359.5 502 Q426 500 525.5 502 Q625 504 640.5 500 Q656 496 656 478.5 Q656 461 640.5 459 Q625 457 531 457 L441 367 L445 367 Q469 367 555 348 Q629 332 664 289 L691 301 Q707 309 738.5 314.5 Q770 320 785.5 316 Q801 312 801 294.5 Q801 277 785.5 275 Q770 273 744.5 271.5 Q719 270 695 258 Q691 254 687 254 Q707 211 699 160 Q719 164 766 168 Q836 172 855.5 168 Q875 164 873 146.5 Q871 129 851.5 129 Q832 129 770 121 ZM461 574 Q301 547 289 549 Q277 551 273.5 564.5 Q270 578 287.5 584 Q305 590 457 613.5 Q609 637 703 637 Q797 637 820.5 615.5 Q844 594 838 564.5 Q832 535 808.5 513.5 Q785 492 771.5 494 Q758 496 750 508 Q742 520 756 525.5 Q770 531 783.5 552.5 Q797 574 785 584 Q773 594 697 598 Q621 602 461 574 ZM172 516 Q164 551 166 566.5 Q168 582 177.5 586 Q187 590 197 580 Q207 570 215 527 Q223 484 225 464.5 Q227 445 228.5 435.5 Q230 426 220.5 420 Q211 414 203 418 Q195 422 189.5 453 Q184 484 172 516 ZM473 680 Q453 719 449 732.5 Q445 746 451 752 Q457 758 470.5 758 Q484 758 505.5 722.5 Q527 687 531 671.5 Q535 656 525.5 648.5 Q516 641 504 643 Q492 645 473 680 Z" /><glyph glyph-name="uni5C11" unicode="&#x5c11;" d="M645 316 Q766 414 781.5 418 Q797 422 804.5 408.5 Q812 395 800.5 379 Q789 363 668 269.5 Q547 176 431.5 76.5 Q316 -23 296.5 -23 Q277 -23 271.5 -5.5 Q266 12 283.5 25.5 Q301 39 412 129 Q523 219 645 316 ZM578 512 Q539 516 516 516 Q520 480 520 449 Q527 387 527 363.5 Q527 340 507.5 338 Q488 336 482.5 361.5 Q477 387 477 453 L477 609 Q477 699 480.5 709 Q484 719 500 719 Q516 719 519.5 705 Q523 691 520 602 Q520 582 516 566 Q535 562 586 559 Q648 555 710.5 549 Q773 543 787 539 Q801 535 797 511.5 Q793 488 775.5 490 Q758 492 703 498 Q648 504 578 512 ZM266 492 Q281 535 293 539 Q305 543 314.5 535 Q324 527 320 511.5 Q316 496 304.5 465 Q293 434 287 400.5 Q281 367 273.5 355.5 Q266 344 250 349.5 Q234 355 234 369 Q234 383 244 416 Q254 449 266 492 Z" /><glyph glyph-name="uni5E94" unicode="&#x5e94;" d="M234 387 Q258 551 264 572.5 Q270 594 289.5 590 Q309 586 309 566 L309 562 Q340 570 414 586 Q520 609 641 628.5 Q762 648 781.5 632.5 Q801 617 793 605.5 Q785 594 761.5 598 Q738 602 642.5 590 Q547 578 441 551 Q336 527 316 523 L305 523 Q297 477 277 367 Q250 191 238.5 85.5 Q227 -20 213 -33.5 Q199 -47 183.5 -41 Q168 -35 172 -9.5 Q176 16 193.5 119.5 Q211 223 234 387 ZM617 43 L383 43 Q367 43 361 54.5 Q355 66 363 78 Q371 90 384.5 90 Q398 90 615 92 Q832 94 847.5 96 Q863 98 875 86 Q887 74 879 60.5 Q871 47 853.5 47 Q836 47 617 43 ZM586 309 Q551 398 549 414 Q547 430 560.5 435.5 Q574 441 586 431.5 Q598 422 629 340 Q660 258 672 232.5 Q684 207 664.5 197 Q645 187 633 203 Q621 219 586 309 ZM434 230 Q391 305 389 320.5 Q387 336 400.5 342 Q414 348 425.5 338 Q437 328 478.5 261.5 Q520 195 531.5 170 Q543 145 523.5 135 Q504 125 492 140.5 Q480 156 434 230 ZM758 301 Q785 344 798.5 344 Q812 344 820 330 Q828 316 812.5 300.5 Q797 285 769.5 250 Q742 215 720.5 185.5 Q699 156 685.5 152 Q672 148 664 162 Q656 176 668 193.5 Q680 211 705 234.5 Q730 258 758 301 ZM535 664 Q516 687 500 695 Q484 703 490 722.5 Q496 742 513.5 736 Q531 730 554.5 708.5 Q578 687 593.5 679.5 Q609 672 599.5 650.5 Q590 629 574.5 637 Q559 645 535 664 Z" /><glyph glyph-name="uni5F00" unicode="&#x5f00;" d="M355 363 Q199 332 175.5 330 Q152 328 140.5 343.5 Q129 359 150.5 369 Q172 379 324 406 Q344 410 367 414 Q387 516 391 531 Q398 555 417.5 551 Q437 547 437 527 Q437 512 418 422 Q512 437 609 449 Q609 535 609 552.5 Q609 570 636.5 570 Q664 570 660 539 Q660 520 660 453 Q840 477 859.5 461 Q879 445 871 429.5 Q863 414 836 418 Q809 422 664 406 L664 402 Q668 293 674 146.5 Q680 0 678 -19.5 Q676 -39 660.5 -43 Q645 -47 637 -27.5 Q629 -8 625 148 Q621 297 613 402 Q512 391 410 371 Q406 367 406 363 Q379 219 367 131 Q355 43 341.5 29.5 Q328 16 312.5 21.5 Q297 27 301 52.5 Q305 78 320 164 Q340 246 359 363 L355 363 ZM492 676 Q344 680 328 680 Q312 680 304.5 691.5 Q297 703 306.5 715 Q316 727 330 727 Q344 727 490.5 725 Q637 723 652.5 725 Q668 727 681.5 715 Q695 703 685.5 689.5 Q676 676 656 676 L492 676 Z" /><glyph glyph-name="uni5F53" unicode="&#x5f53;" d="M395 31 Q289 39 277.5 39 Q266 39 268 62.5 Q270 86 285.5 84 Q301 82 400.5 78 Q500 74 578 70 L602 70 Q613 94 648 148 Q699 227 705 287.5 Q711 348 697.5 375 Q684 402 644.5 416 Q605 430 465 402 Q324 379 300.5 373 Q277 367 273.5 381 Q270 395 291 410.5 Q312 426 461 453 L477 457 L473 461 Q469 477 453 543 Q437 609 430 672 Q426 738 433.5 744 Q441 750 457 746 Q473 742 475 724.5 Q477 707 480.5 650.5 Q484 594 502 535.5 Q520 477 516 461 Q621 477 668 461 Q727 445 746.5 404 Q766 363 756 283 Q746 203 695 125 Q672 86 656 66 Q668 66 672 66 Q687 62 683.5 41 Q680 20 664 21.5 Q648 23 574 25 Q500 27 395 31 ZM352 227 Q281 227 269.5 228.5 Q258 230 258 251.5 Q258 273 273 273 L359 273 Q434 273 514 275 Q594 277 609.5 277 Q625 277 623 253.5 Q621 230 602 230 L504 230 Q426 230 352 227 ZM629 633 Q652 719 660 728.5 Q668 738 681.5 734 Q695 730 695 712.5 Q695 695 675.5 605.5 Q656 516 646.5 512 Q637 508 625 512 Q613 516 611 531.5 Q609 547 629 633 ZM250 566 Q238 594 236 613.5 Q234 633 252 637 Q270 641 277.5 619.5 Q285 598 293 566.5 Q301 535 318.5 504 Q336 473 336 457 Q336 441 320.5 437.5 Q305 434 299 451.5 Q293 469 277.5 504 Q262 539 250 566 Z" /><glyph glyph-name="uni5F55" unicode="&#x5f55;" d="M387 539 Q316 543 304.5 543 Q293 543 295 564.5 Q297 586 310.5 584 Q324 582 392.5 582 Q461 582 523.5 586 Q586 590 598 586 Q609 582 609 570 Q625 605 613 629 Q594 668 574.5 679.5 Q555 691 445 672 Q340 656 334 654 Q328 652 320 669.5 Q312 687 324 693 Q336 699 457 718.5 Q578 738 615 711 Q652 684 662 635 Q672 586 658.5 560.5 Q645 535 605 496 L598 488 L629 492 Q762 508 779.5 510 Q797 512 803 492.5 Q809 473 785.5 465 Q762 457 637 445 Q594 441 551 437 Q555 414 570 328 L574 301 Q594 305 625 307 Q656 309 687.5 314.5 Q719 320 736.5 322 Q754 324 760 304.5 Q766 285 742.5 277.5 Q719 270 695.5 270 Q672 270 633 262 Q598 254 578 254 Q582 215 582 176 Q598 176 641 172 Q687 172 736 172 Q785 172 798.5 168 Q812 164 808.5 144.5 Q805 125 791 127 Q777 129 732 129 Q687 129 637 133 Q598 137 582 137 Q578 47 520 8 Q461 -27 443.5 -31 Q426 -35 416 -11.5 Q406 12 423.5 17.5 Q441 23 490 50.5 Q539 78 539 152.5 Q539 227 520 320 Q504 410 500 434 Q434 426 359 414 Q207 395 189.5 398.5 Q172 402 170 419.5 Q168 437 187.5 441 Q207 445 352 461 Q441 469 523 477 Q527 484 531 488 Q543 496 586 543 Q574 547 520 543 Q461 539 387 539 ZM324 105 Q289 94 271.5 98 Q254 102 252 119.5 Q250 137 270 141 L316 148 Q348 156 377 166 Q406 176 423.5 178 Q441 180 447 160.5 Q453 141 429.5 133 Q406 125 384.5 121 Q363 117 324 105 ZM352 246 Q320 250 308.5 250 Q297 250 299 271.5 Q301 293 314.5 291 Q328 289 355.5 287 Q383 285 420 283 Q457 281 470.5 277 Q484 273 480.5 253.5 Q477 234 463 236 Q449 238 416 240 Q383 242 352 246 Z" /><glyph glyph-name="uni6002" unicode="&#x6002;" d="M570 633 Q648 723 660 738.5 Q672 754 685.5 732.5 Q699 711 685.5 699 Q672 687 594 602 Q523 523 488 480 Q496 473 488 453 Q480 434 465 441 L461 441 Q441 418 434 414 Q422 410 414 414 Q406 418 406 430 Q406 437 426 465 Q418 473 410 480 Q371 516 355.5 523.5 Q340 531 344 547 Q293 473 270 434 Q242 383 230.5 377 Q219 371 211 375 Q203 379 203 390.5 Q203 402 242 457 Q281 512 344 609 Q410 711 425.5 719 Q441 727 451 713 Q461 699 447.5 687.5 Q434 676 367 578 L355 562 Q359 566 367 562 Q387 559 426 523 Q445 508 457 500 Q500 551 570 633 ZM281 191 Q285 305 287 320.5 Q289 336 308.5 334 Q328 332 328 320.5 Q328 309 322 209 Q316 109 339.5 68 Q363 27 437.5 15.5 Q512 4 558.5 27.5 Q605 51 623 56.5 Q641 62 646.5 42.5 Q652 23 636.5 15.5 Q621 8 574 -13.5 Q527 -35 443 -25.5 Q359 -16 318 31 Q277 78 281 191 ZM672 473 Q598 531 582 539 Q566 547 572 568.5 Q578 590 597.5 584 Q617 578 693.5 521.5 Q770 465 785.5 457 Q801 449 791 425.5 Q781 402 763.5 410 Q746 418 672 473 ZM707 238 Q672 250 662 254 Q652 258 652 275.5 Q652 293 664 293 Q676 293 717 281.5 Q758 270 793 266 Q828 262 841.5 258 Q855 254 855 238.5 Q855 223 841.5 217 Q828 211 785 220.5 Q742 230 707 238 ZM160 227 Q172 301 178 312.5 Q184 324 199.5 318 Q215 312 211 298.5 Q207 285 203 215 Q199 145 191.5 129 Q184 113 168 115 Q152 117 152 136.5 Q152 156 160 227 ZM437 211 Q430 262 428 275.5 Q426 289 437.5 295 Q449 301 461 291 Q473 281 478.5 238 Q484 195 496 171.5 Q508 148 490.5 138.5 Q473 129 461 144.5 Q449 160 437 211 Z" /><glyph glyph-name="uni6094" unicode="&#x6094;" d="M598 348 Q602 398 605.5 412 Q609 426 621 428 Q633 430 642.5 420 Q652 410 645 355 Q641 324 645 293 Q711 297 770 305 L773 305 Q777 344 770 383 Q762 437 742.5 451 Q723 465 668 484.5 Q613 504 599.5 502 Q586 500 582 515.5 Q578 531 591.5 539 Q605 547 669.5 531.5 Q734 516 777 484.5 Q820 453 824 387 Q824 348 820 309 Q879 312 887 305 Q898 293 892.5 281.5 Q887 270 875 270 Q863 270 809 262 Q805 254 805 242 Q789 199 766 152 Q781 148 781 133 Q781 113 754 109 Q750 109 738 105 Q730 98 723 86 Q668 4 656.5 -4 Q645 -12 633 0 Q621 12 629 21.5 Q637 31 687 105 Q672 105 641 109 Q555 113 500 141 Q449 168 461 246 L402 246 Q387 246 381 259.5 Q375 273 391 285 Q387 281 379 277 Q363 270 332 250 Q324 246 316 242 Q320 207 324 172 Q336 16 334 -2 Q332 -20 318.5 -23.5 Q305 -27 297 -9.5 Q289 8 277 172 Q277 199 273 227 Q262 223 242 219 Q187 211 156 224.5 Q125 238 119 269.5 Q113 301 113 367 Q117 437 121 453 Q125 469 138.5 469 Q152 469 156 455 Q160 441 156 367 Q152 293 162 279.5 Q172 266 189.5 262 Q207 258 250 270 Q262 273 270 273 Q266 379 262 461 Q258 582 258 597.5 Q258 613 283.5 613 Q309 613 307 586 Q305 559 309 441 Q309 375 312 293 Q320 297 324 301 Q359 320 377 318 Q395 316 395 301 Q398 293 391 285 Q406 293 473 293 Q488 359 512 418 Q539 492 539 507.5 Q539 523 560.5 521.5 Q582 520 580 504 Q578 488 551 422 Q527 363 508 293 L598 293 L598 348 ZM570 598 Q520 594 504 594 L500 594 Q496 586 492 574 Q480 535 472.5 523.5 Q465 512 449.5 517.5 Q434 523 434 537 Q434 551 451.5 590 Q469 629 492.5 679.5 Q516 730 527.5 734 Q539 738 549 730.5 Q559 723 555 707 Q551 691 527 652 Q527 648 523 641 L566 641 Q621 641 687.5 646.5 Q754 652 760 632.5 Q766 613 758 603.5 Q750 594 734.5 596 Q719 598 672 600 Q625 602 570 598 ZM547 250 Q520 250 500 246 Q492 184 527 172 Q570 156 645 152 Q691 148 715 148 Q750 211 762 262 Q711 258 645 250 Q652 203 648.5 191.5 Q645 180 633 174 Q621 168 613 176 Q605 184 602 238 Q602 246 598 250 L547 250 Z" /><glyph glyph-name="uni60F3" unicode="&#x60f3;" d="M527 656 Q523 672 535 679.5 Q547 687 588 699 Q629 711 679.5 707 Q730 703 763.5 674 Q797 645 787 559 Q777 473 759.5 426 Q742 379 730.5 365.5 Q719 352 627 352 Q535 352 519.5 346 Q504 340 496 353.5 Q488 367 486 423.5 Q484 480 482 558.5 Q480 637 484 650.5 Q488 664 502 666 Q516 668 519.5 656.5 Q523 645 520 594 L531 590 Q551 582 588 580 Q625 578 640.5 574 Q656 570 656 552.5 Q656 535 640.5 533 Q625 531 593.5 537 Q562 543 535 543 L520 543 L520 480 Q527 484 543 488 Q562 492 601.5 496 Q641 500 654.5 496 Q668 492 668 476.5 Q668 461 654.5 459 Q641 457 607.5 457 Q574 457 547 449 Q531 445 520 441 Q523 406 533 398.5 Q543 391 619 393 Q695 395 703 404.5 Q711 414 724.5 449 Q738 484 746 556.5 Q754 629 730.5 646.5 Q707 664 662 666 Q617 668 584 656.5 Q551 645 543 645 Q535 645 527 656 ZM293 457 Q273 457 258 457 L258 434 Q258 398 250 386.5 Q242 375 228.5 381 Q215 387 215 398.5 Q215 410 221 449 Q227 488 230 539 Q238 590 248 594 Q258 598 267.5 590 Q277 582 273.5 568.5 Q270 555 266 512 Q266 504 262 496 Q277 500 298.5 498 Q320 496 340 496 Q344 547 344 605 Q324 605 297 602 Q238 598 224.5 601.5 Q211 605 209 619 Q207 633 222.5 637 Q238 641 293 641 L348 641 Q352 723 353.5 730.5 Q355 738 371 738 Q387 738 389 726.5 Q391 715 387 641 Q391 645 398 645 Q445 648 459 650 Q473 652 478.5 636.5 Q484 621 464.5 613 Q445 605 402 605 L383 605 Q379 551 379 500 L383 500 Q426 504 439.5 500 Q453 496 449 476.5 Q445 457 431.5 459 Q418 461 379 457 L379 340 Q379 320 361.5 318 Q344 316 340 337.5 Q336 359 340 437 Q340 445 340 453 Q316 453 293 457 ZM312 176 Q316 273 318 291 Q320 309 341.5 307 Q363 305 363 291 Q363 277 357.5 197 Q352 117 375 84 Q398 51 470.5 41 Q543 31 590 50.5 Q637 70 656.5 76 Q676 82 681.5 60.5 Q687 39 669.5 31 Q652 23 607 5.5 Q562 -12 476.5 -4 Q391 4 350 43 Q309 82 312 176 ZM738 215 Q703 223 693.5 226.5 Q684 230 684 248 Q684 266 695.5 266 Q707 266 748 258 Q789 250 824 246 Q859 242 873 238 Q887 234 887 218.5 Q887 203 873 197 Q859 191 816 201 Q773 211 738 215 ZM191 211 Q203 270 209 281.5 Q215 293 230.5 287 Q246 281 242 267.5 Q238 254 234 197.5 Q230 141 222.5 125 Q215 109 199.5 111 Q184 113 184 132.5 Q184 152 191 211 ZM465 191 Q457 234 455 250 Q453 266 466.5 271.5 Q480 277 492 267.5 Q504 258 510 224.5 Q516 191 527.5 166 Q539 141 519.5 131 Q500 121 488.5 136.5 Q477 152 465 191 Z" /><glyph glyph-name="uni610F" unicode="&#x610f;" d="M422 230 Q355 223 340 227 L332 230 Q320 227 314.5 244.5 Q309 262 297 301 Q285 340 273 371 Q266 402 264 421.5 Q262 441 279.5 443 Q297 445 305 426 Q309 414 312 402 Q312 406 320 410 Q332 418 437.5 441.5 Q543 465 597.5 469 Q652 473 697 453.5 Q742 434 742 389 Q742 344 711 305 Q680 266 668 248 Q656 230 641 242 Q629 254 629 262 Q625 258 617 254 Q598 246 545 244 Q492 242 422 230 ZM430 680 Q402 711 400 722.5 Q398 734 408 740 Q418 746 429.5 736.5 Q441 727 464.5 703.5 Q488 680 500 656 L504 648 L508 648 Q535 652 555 652 Q559 656 570 656 Q578 656 582 656 Q598 660 603.5 644.5 Q609 629 590 621 L582 617 Q582 609 574 594 Q566 566 562 547 L562 539 Q645 543 664 531 Q684 516 676 504 Q668 492 644.5 496 Q621 500 541 500 Q461 500 371 492 Q285 488 265.5 486 Q246 484 234.5 496 Q223 508 242.5 517.5 Q262 527 348 527 L367 527 Q363 535 363 543 Q363 559 363 578 Q363 590 367 598 Q312 590 301 594 Q289 598 287 611.5 Q285 625 300.5 629 Q316 633 383 637 Q422 641 461 645 Q449 656 430 680 ZM387 320 Q344 324 328 324 L336 301 Q344 277 348 262 Q371 266 418 270 Q484 273 541 281 Q598 289 611.5 291 Q625 293 629 277 Q633 273 633 270 L633 273 Q645 289 672 318.5 Q699 348 697 383 Q695 418 658 426 Q621 434 582 430 Q543 426 441 398 Q340 375 324 375 Q320 375 316 379 L316 363 Q320 363 324 363 Q340 363 391 363 L492 363 Q547 363 560.5 359 Q574 355 570 335.5 Q566 316 552.5 318 Q539 320 488 320 L387 320 ZM301 121 Q312 187 314 203 Q316 219 335.5 217 Q355 215 355 203 Q355 191 343.5 140.5 Q332 90 357.5 64.5 Q383 39 463 29.5 Q543 20 594 35.5 Q645 51 662.5 56.5 Q680 62 685.5 42.5 Q691 23 675.5 15.5 Q660 8 609.5 -6 Q559 -20 469 -12 Q379 -4 336 27.5 Q293 59 301 121 ZM539 605 L539 613 L512 613 Q465 613 406 605 Q406 590 404 566.5 Q402 543 402 543 L402 527 Q453 531 516 535 Q520 555 527.5 572.5 Q535 590 539 605 ZM715 129 Q676 133 666 137 Q656 141 656 158.5 Q656 176 668 176 Q680 176 726.5 172 Q773 168 810.5 166 Q848 164 861.5 160 Q875 156 875 140.5 Q875 125 861.5 119 Q848 113 803 121 Q758 129 715 129 ZM457 129 Q449 164 447 175.5 Q445 187 455 193 Q465 199 476.5 189.5 Q488 180 494 154.5 Q500 129 511.5 107.5 Q523 86 507.5 78 Q492 70 480.5 84 Q469 98 457 129 ZM199 145 Q215 176 219 187.5 Q223 199 236.5 193 Q250 187 246 177.5 Q242 168 234.5 136.5 Q227 105 219 93.5 Q211 82 199 84 Q187 86 187 101.5 Q187 117 199 145 Z" /><glyph glyph-name="uni620F" unicode="&#x620f;" d="M527 465 Q457 445 439.5 451 Q422 457 418 473 L414 477 L418 457 Q426 398 375 281 Q348 223 320 176 Q371 156 406 145 Q461 129 470.5 117 Q480 105 474.5 89.5 Q469 74 451.5 76 Q434 78 379 102 Q344 121 297 137 Q281 117 266 98 Q211 31 195.5 25.5 Q180 20 170 37.5 Q160 55 175.5 64.5 Q191 74 230 125 Q238 141 250 156 Q246 156 242 160 Q156 195 144.5 207 Q133 219 137 230.5 Q141 242 156.5 244 Q172 246 262 203 Q270 199 273 195 Q297 234 320 281 Q371 387 379 435.5 Q387 484 351.5 509.5 Q316 535 270 520 Q223 508 209 504 Q195 500 191 519.5 Q187 539 199 543 Q211 547 267.5 560.5 Q324 574 367 543 Q406 520 414 477 Q414 492 435.5 496 Q457 500 520 512 Q547 520 574 523 Q551 617 547 633 Q543 652 566.5 658 Q590 664 594 645 Q598 633 621 535 Q629 535 641 539 Q703 551 720.5 553 Q738 555 746 535.5 Q754 516 728.5 506 Q703 496 648 492 Q641 492 633 488 Q637 477 641 465 Q672 344 711 258 Q727 281 738 285 Q754 289 762 275.5 Q770 262 758 246 Q750 234 734 211 L742 199 Q805 102 830 86 Q855 70 845.5 45 Q836 20 806.5 35.5 Q777 51 711 160 Q687 113 664 62 Q637 4 617.5 4 Q598 4 592 21.5 Q586 39 603.5 52.5 Q621 66 645 113 Q664 156 684 203 Q633 309 598 445 Q590 465 586 480 Q559 477 527 465 ZM707 652 Q672 668 656.5 676 Q641 684 646.5 703.5 Q652 723 669.5 717 Q687 711 724.5 697.5 Q762 684 777.5 676 Q793 668 783 646.5 Q773 625 757.5 633 Q742 641 707 652 Z" /><glyph glyph-name="uni6218" unicode="&#x6218;" d="M543 449 Q480 430 462.5 433.5 Q445 437 443 455 Q441 473 460.5 476.5 Q480 480 535 496 L582 508 Q551 641 547 656 Q543 676 566.5 681.5 Q590 687 594 669.5 Q598 652 629 520 Q637 523 645 523 Q699 539 716.5 541 Q734 543 740 523.5 Q746 504 722.5 496 Q699 488 652 480 Q645 477 637 477 Q637 473 641 469 Q668 352 703 266 Q707 273 715 281 Q746 324 761.5 328 Q777 332 785 318.5 Q793 305 781.5 289 Q770 273 738 234 Q730 227 727 219 Q738 195 750 176 Q816 66 841.5 50.5 Q867 35 857.5 9.5 Q848 -16 818.5 0 Q789 16 715 141 Q703 156 695 176 Q684 164 676 148 Q648 105 628.5 105 Q609 105 603.5 123 Q598 141 615.5 154.5 Q633 168 656 203 Q664 211 672 223 Q625 324 598 453 Q594 461 594 465 Q570 457 543 449 ZM355 43 Q332 43 318.5 45 Q305 47 305 70.5 Q305 94 320 94 L379 94 Q387 109 408.5 132.5 Q430 156 445.5 185.5 Q461 215 455 246 Q449 277 408 271.5 Q367 266 312 238 Q258 215 230 207 Q227 207 223 207 Q227 160 238 113 Q250 51 250 35.5 Q250 20 234.5 16 Q219 12 213 29.5 Q207 47 197 113.5 Q187 180 176 234 Q168 289 166 308.5 Q164 328 181.5 332 Q199 336 207 314.5 Q215 293 219 246 L320 289 Q387 316 443.5 314 Q500 312 508 257.5 Q516 203 494.5 164 Q473 125 453 98 L465 98 Q484 98 482 72.5 Q480 47 461 47 L410 47 Q379 47 355 43 ZM246 551 Q242 594 240 613.5 Q238 633 255.5 635 Q273 637 281 617.5 Q289 598 289 551 L289 527 L320 539 Q344 547 390.5 551 Q437 555 453 551 Q469 547 469 529.5 Q469 512 453 510 Q437 508 396 508 Q355 508 324 492 Q305 484 293 480 Q293 473 293 461 Q297 414 297 398.5 Q297 383 281.5 381 Q266 379 260 394.5 Q254 410 254 461 Q254 512 246 551 ZM754 645 Q719 656 703 664 Q687 672 693 691.5 Q699 711 716.5 705 Q734 699 771.5 687.5 Q809 676 824.5 668 Q840 660 830 638.5 Q820 617 804.5 625 Q789 633 754 645 Z" /><glyph glyph-name="uni624B" unicode="&#x624b;" d="M359 281 Q223 258 205 262 Q187 266 185.5 283.5 Q184 301 203.5 305 Q223 309 352 328 Q445 340 531 352 Q523 410 516 469 L512 473 Q473 469 426 457 Q344 437 326.5 441 Q309 445 307 462.5 Q305 480 324.5 484 Q344 488 418 500 Q465 508 508 516 Q496 578 496 598 Q492 605 492 609 Q469 602 445 594 Q355 562 337.5 566 Q320 570 318 587.5 Q316 605 335.5 609 Q355 613 439 638.5 Q523 664 601.5 681.5 Q680 699 697.5 701 Q715 703 721 683.5 Q727 664 703.5 656 Q680 648 609 637 Q574 629 531 621 Q539 617 539 605 Q543 590 555 523 Q559 527 566 527 Q637 539 654.5 541 Q672 543 678 523.5 Q684 504 660.5 496 Q637 488 574 480 L562 480 Q570 426 582 359 Q594 359 605 359 Q727 375 744.5 377 Q762 379 767.5 359.5 Q773 340 750 332 Q727 324 613 316 Q602 316 586 312 Q594 285 598 258 Q621 133 595.5 74.5 Q570 16 509.5 -7.5 Q449 -31 423.5 -29 Q398 -27 400 -2 Q402 23 419.5 21.5 Q437 20 488 39.5 Q539 59 556.5 100 Q574 141 551 254 Q547 281 539 309 Q457 301 359 281 Z" /><glyph glyph-name="uni6267" unicode="&#x6267;" d="M516 422 Q441 375 425.5 367 Q410 359 402.5 378.5 Q395 398 410.5 406 Q426 414 516 461 Q520 465 527 465 Q551 637 556.5 658.5 Q562 680 582 676 Q602 672 602 652.5 Q602 633 578 488 Q633 508 687 508 Q770 508 791 453 Q812 398 791 296.5 Q770 195 760 132.5 Q750 70 797 48.5 Q844 27 861.5 31 Q879 35 879 11.5 Q879 -12 859.5 -16 Q840 -20 781.5 1.5 Q723 23 721 101.5 Q719 180 738.5 283.5 Q758 387 748 428 Q738 469 664 469 Q621 469 574 449 L574 445 Q555 312 543 215 L547 215 Q621 187 634.5 179.5 Q648 172 640.5 152.5 Q633 133 615.5 135 Q598 137 535 160 L535 148 Q527 39 513.5 25.5 Q500 12 484.5 17.5 Q469 23 473 48.5 Q477 74 492 184 Q457 199 445 207 Q434 215 437.5 232.5 Q441 250 457 246 Q469 242 500 230 Q508 316 523 426 Q520 422 516 422 ZM215 234 Q172 223 156.5 226.5 Q141 230 139 246 Q137 262 154.5 266 Q172 270 211 275.5 Q250 281 287 291 Q324 301 340 301 Q336 406 324 500 L305 500 Q254 500 209 492 Q164 484 154.5 486 Q145 488 145 504 Q145 520 156.5 523.5 Q168 527 205 533 Q242 539 301 539 L320 539 Q309 652 307 671.5 Q305 691 326.5 693 Q348 695 351.5 675.5 Q355 656 367 543 L367 539 L371 539 Q387 535 387 519.5 Q387 504 371 500 Q379 402 379 281 Q383 137 344 88 Q305 39 289 35 Q273 31 263.5 52.5 Q254 74 269.5 80 Q285 86 312 125 Q340 156 340 258 Q320 254 293 250 Q262 246 215 234 Z" /><glyph glyph-name="uni62D2" unicode="&#x62d2;" d="M207 195 Q160 184 142.5 187.5 Q125 191 123 209 Q121 227 141 230 L199 242 Q238 250 277 260 Q316 270 332 270 L336 270 Q332 387 320 488 L301 488 Q246 488 199 478.5 Q152 469 140.5 473 Q129 477 129 492.5 Q129 508 142.5 514 Q156 520 195 523.5 Q234 527 297 531 Q309 531 316 531 Q301 648 299 671.5 Q297 695 320.5 697 Q344 699 348 675.5 Q352 652 363 531 Q371 531 375 531 Q391 527 391 509.5 Q391 492 375 488 L367 488 Q379 383 379 250 Q383 90 340 35 Q297 -20 279.5 -23.5 Q262 -27 252 -3.5 Q242 20 259.5 27.5 Q277 35 309 78 Q336 113 336 223 Q312 219 285 215 Q254 211 207 195 ZM434 348 Q434 523 437.5 537 Q441 551 457 551 Q473 551 475 525.5 Q477 500 478.5 334 Q480 168 482 133 Q484 98 496 86 Q508 74 523.5 68 Q539 62 621 66 Q703 70 777.5 78 Q852 86 861.5 74 Q871 62 865 50.5 Q859 39 847.5 37 Q836 35 769.5 31 Q703 27 617 21.5 Q531 16 498 29.5 Q465 43 451 70.5 Q437 98 437 137 Q437 176 434 348 ZM664 418 Q570 395 545 398.5 Q520 402 520 419.5 Q520 437 549 447 Q578 457 685.5 470.5 Q793 484 820.5 455 Q848 426 850 396.5 Q852 367 844 339.5 Q836 312 826 289 Q816 266 793 264 Q770 262 709 258 Q648 254 589.5 248 Q531 242 517.5 250 Q504 258 508 273.5 Q512 289 533.5 291 Q555 293 600 295 Q645 297 703.5 303 Q762 309 769.5 312.5 Q777 316 785 324 Q793 332 797 357.5 Q801 383 795 400.5 Q789 418 773.5 429.5 Q758 441 664 418 ZM582 566 Q500 551 482.5 553 Q465 555 463 572.5 Q461 590 482.5 594 Q504 598 578 605.5 Q652 613 734 625 Q816 637 826 623 Q836 609 832 597.5 Q828 586 810.5 584 Q793 582 730.5 582 Q668 582 582 566 Z" /><glyph glyph-name="uni63E1" unicode="&#x63e1;" d="M379 473 Q383 652 387 676 Q395 699 410 695 Q410 699 418 703 Q430 707 476.5 715 Q523 723 609 725 Q695 727 730.5 721 Q766 715 785.5 687.5 Q805 660 797 619 Q789 578 775.5 568.5 Q762 559 744.5 553 Q727 547 650.5 537 Q574 527 513.5 517.5 Q453 508 430 508 L430 484 Q449 488 531 484 Q625 480 720.5 486 Q816 492 822 474.5 Q828 457 820 447 Q812 437 797 437 Q789 441 758 441 Q770 426 789 395 Q824 340 836 316.5 Q848 293 828 281 Q820 277 809 277 L805 277 Q793 270 723 262 L664 254 Q668 238 672 219 Q719 223 736.5 219 Q754 215 754 195.5 Q754 176 738.5 174 Q723 172 676 172 L676 137 Q680 105 680 86 L770 90 Q867 98 873 78.5 Q879 59 871 49 Q863 39 847.5 41 Q832 43 754 45 Q676 47 582 35 Q488 23 472.5 25 Q457 27 453 44.5 Q449 62 464.5 68 Q480 74 574 78 Q605 82 637 82 Q633 102 633 137 Q633 152 629 168 Q605 168 582 160 Q543 152 531.5 156 Q520 160 520 176 Q520 195 535.5 201 Q551 207 578 211 Q598 211 621 215 Q621 230 617 246 Q605 246 590 246 Q527 238 505.5 248 Q484 258 480.5 285 Q477 312 480.5 328 Q484 344 512 402 Q523 426 531 441 Q445 441 430 441 Q426 281 418 145 Q410 0 406 -15.5 Q402 -31 386.5 -31 Q371 -31 367 -17.5 Q363 -4 371 144.5 Q379 293 379 473 ZM187 191 Q152 180 134.5 183.5 Q117 187 115 205 Q113 223 133 227 L180 234 Q211 242 238 250 Q266 254 281 258 Q277 355 270 437 L262 437 Q219 437 183.5 429.5 Q148 422 136.5 426 Q125 430 125 445.5 Q125 461 138.5 467 Q152 473 179.5 475 Q207 477 254 480 L266 480 Q254 578 252 599.5 Q250 621 273.5 623 Q297 625 301 603.5 Q305 582 312 480 L320 480 Q336 477 336 459 Q336 441 320 437 L316 437 Q324 352 324 238 Q328 102 295 57 Q262 12 244.5 8 Q227 4 217 27.5 Q207 51 224.5 56.5 Q242 62 262 98 Q281 125 281 211 Q262 207 246 203 Q227 203 187 191 ZM500 559 Q566 566 640.5 578 Q715 590 728.5 594 Q742 598 750 617.5 Q758 637 748 654.5 Q738 672 716.5 678 Q695 684 615 682 Q535 680 484 672 Q453 668 434 668 Q434 648 430 547 Q449 551 500 559 ZM750 367 Q711 430 707 441 Q652 445 590 441 L582 437 Q570 430 548.5 381 Q527 332 527 312.5 Q527 293 539 291 Q551 289 615.5 297 Q680 305 730 312 L777 316 L750 367 Z" /><glyph glyph-name="uni64A4" unicode="&#x64a4;" d="M434 62 L414 62 Q418 20 418 8 Q418 -8 402.5 -12 Q387 -16 381 2 Q375 20 371 86 Q367 152 359 207 Q355 262 353.5 281.5 Q352 301 367 305 Q383 309 391 293 L398 297 Q418 309 474.5 320.5 Q531 332 574 314.5 Q617 297 621 234 Q625 207 625 184 Q629 191 648 187 Q660 184 695 168 Q711 211 723 258 Q750 344 767.5 353.5 Q785 363 795 353.5 Q805 344 795 324.5 Q785 305 754 219 Q742 184 730 152 Q781 129 828 105 Q883 82 887 70.5 Q891 59 883 47 Q875 35 857.5 41 Q840 47 797 70 Q762 90 719 109 Q715 90 711 70 Q695 8 687.5 0 Q680 -8 664 -4 Q648 0 652 23.5 Q656 47 676 109 L680 125 Q641 145 629 156 L625 160 Q621 141 617 125 Q609 74 597.5 33 Q586 -8 578 -12 Q570 -16 558.5 -12 Q547 -8 547 4 Q547 16 556.5 49 Q566 82 570 125 L582 215 Q590 262 558.5 275.5 Q527 289 473 273 Q422 262 406 258 L398 258 Q402 238 402 211 L445 211 Q469 211 502 213 Q535 215 548.5 215 Q562 215 560.5 193.5 Q559 172 543 172 L496 172 Q465 172 437 168 Q414 168 402 168 Q406 137 410 105 L437 105 Q465 105 496 107 Q527 109 541 109 Q555 109 553 87.5 Q551 66 535 66 L488 66 Q461 66 434 62 ZM195 211 Q156 199 140.5 203 Q125 207 123 222.5 Q121 238 138.5 242 Q156 246 191 250 Q223 258 254 262 Q246 344 238 414 Q219 410 184 402 Q145 395 129 398.5 Q113 402 111 418 Q109 434 127 437.5 Q145 441 180 445 Q207 449 234 453 L223 531 Q223 551 244.5 553 Q266 555 270 535 Q273 520 277 465 Q285 465 293 465 Q309 469 314.5 451.5 Q320 434 297 426 Q293 422 285 418 Q289 355 293 273 Q301 273 305 273 Q320 277 326 259.5 Q332 242 309 234 Q301 230 293 227 Q297 113 265.5 74 Q234 35 218.5 31 Q203 27 193.5 48.5 Q184 70 199.5 76 Q215 82 234 109 Q254 137 254 223 Q230 219 195 211 ZM395 566 Q398 578 402 586 L383 582 Q309 566 291 570 Q273 574 271.5 591.5 Q270 609 289.5 613 Q309 617 375 627 Q441 637 505.5 646.5 Q570 656 587.5 658 Q605 660 611 640.5 Q617 621 593.5 613 Q570 605 512 602 Q480 598 445 594 Q449 586 445 582 Q437 570 423.5 537 Q410 504 396.5 469 Q383 434 381 412.5 Q379 391 396.5 385 Q414 379 457 402.5 Q500 426 515.5 437.5 Q531 449 541 429.5 Q551 410 537 396.5 Q523 383 459 357.5 Q395 332 367.5 347.5 Q340 363 336 398.5 Q332 434 357.5 482.5 Q383 531 395 566 ZM758 410 Q684 402 668 402 Q656 344 644.5 336 Q633 328 621 338 Q609 348 609 359 Q613 371 621 418 Q617 414 609.5 414 Q602 414 574.5 431.5 Q547 449 516 461 Q488 477 480.5 486.5 Q473 496 476.5 506 Q480 516 496 516 Q512 516 539 498 Q566 480 595.5 464.5 Q625 449 625 437 L625 430 L629 437 Q645 500 656.5 560.5 Q668 621 683.5 631 Q699 641 709 629 Q719 617 711 601.5 Q703 586 691 527 Q684 492 676 449 Q691 449 758 457 Q836 465 851.5 467 Q867 469 881 457 Q895 445 885 431.5 Q875 418 857.5 418 Q840 418 758 410 ZM402 684 Q395 695 387 705 Q379 715 383 724.5 Q387 734 402.5 734 Q418 734 426 720.5 Q434 707 447.5 697 Q461 687 463 675.5 Q465 664 459 658 Q453 652 445 652 Q437 652 425.5 664 Q414 676 402 684 Z" /><glyph glyph-name="uni64CD" unicode="&#x64cd;" d="M570 281 Q559 352 559 365.5 Q559 379 582 379 Q605 379 603.5 353.5 Q602 328 613 266 L617 250 Q652 258 687 262 Q781 273 798.5 275 Q816 277 822 257.5 Q828 238 804.5 230.5 Q781 223 695 215 Q660 215 621 211 Q629 172 633 129 L766 125 Q836 125 849.5 121 Q863 117 859 93.5 Q855 70 837.5 72 Q820 74 758 74 Q703 78 637 78 Q645 27 641 16 Q641 0 629 -4 Q617 -8 609 8 Q602 20 594 82 Q531 86 523 86 Q512 86 514 111.5 Q516 137 531 133 Q547 133 594 129 Q590 172 582 207 Q543 199 496 195 Q387 180 369.5 183.5 Q352 187 350 205 Q348 223 367.5 226.5 Q387 230 488 238 Q535 242 574 246 Q574 266 570 281 ZM445 609 Q441 656 443 671.5 Q445 687 464.5 697 Q484 707 519.5 718.5 Q555 730 605.5 736 Q656 742 683.5 720.5 Q711 699 715 673.5 Q719 648 701.5 619 Q684 590 662.5 580 Q641 570 600 564.5 Q559 559 519.5 553 Q480 547 464.5 554.5 Q449 562 445 609 ZM172 234 Q148 223 132.5 226.5 Q117 230 115 246 Q113 262 130.5 266 Q148 270 166 275.5 Q184 281 201.5 291 Q219 301 234 301 L242 301 Q234 395 227 445 L223 449 Q203 449 184 445 Q148 437 138.5 439 Q129 441 129 457 Q129 473 140.5 476.5 Q152 480 180 484 Q195 488 219 492 Q219 516 215 527 Q215 547 236.5 549 Q258 551 262 531 Q262 520 266 496 Q309 500 322.5 496 Q336 492 336 476.5 Q336 461 322.5 459 Q309 457 273 453 L273 449 Q281 391 283 266 Q285 141 256 100 Q227 59 211 55 Q195 51 185.5 72.5 Q176 94 191.5 99.5 Q207 105 227 137 Q242 164 242 262 L238 262 Q219 254 207 250 Q195 246 172 234 ZM613 430 Q609 453 607 472.5 Q605 492 621 492 Q633 496 641 488 Q656 492 687.5 502 Q719 512 773.5 516 Q828 520 841.5 500 Q855 480 847.5 453 Q840 426 814.5 390.5 Q789 355 750 353.5 Q711 352 695 344 L684 340 Q680 336 672 336 Q656 332 650.5 349.5 Q645 367 633 388.5 Q621 410 613 430 ZM352 430 Q348 461 346 480.5 Q344 500 361.5 502 Q379 504 387 484 Q391 477 391 465 L395 469 Q410 473 433.5 482.5 Q457 492 494 490 Q531 488 558.5 474.5 Q586 461 578 433.5 Q570 406 541 369 Q512 332 480.5 334 Q449 336 434 332 Q430 332 426 328 Q426 316 414 312 Q398 309 392.5 326.5 Q387 344 373 373 Q359 402 352 430 ZM523 680 Q492 672 488 662 Q484 652 482 623 Q480 594 490 588 Q500 582 531 590 Q562 598 601.5 603.5 Q641 609 648.5 615 Q656 621 664 634.5 Q672 648 672 660 Q672 672 656.5 687.5 Q641 703 600 697 Q559 691 523 680 ZM660 434 Q664 414 672 391 Q672 387 672 383 Q680 383 687 383 Q707 387 746 394.5 Q785 402 793 425.5 Q801 449 806.5 464.5 Q812 480 769.5 476.5 Q727 473 699.5 465 Q672 457 652 453 Q656 445 660 434 ZM410 375 L414 371 L426 371 Q445 371 476.5 375 Q508 379 519.5 404.5 Q531 430 523.5 439.5 Q516 449 490.5 451 Q465 453 445.5 445 Q426 437 406 434 L398 434 Q402 406 410 375 ZM402 133 Q406 160 418 166 Q430 172 439.5 162 Q449 152 445 136.5 Q441 121 441 107.5 Q441 94 443 70.5 Q445 47 437.5 35 Q430 23 414 29 Q398 35 398 48.5 Q398 62 400 85.5 Q402 109 402 133 Z" /><glyph glyph-name="uni65B0" unicode="&#x65b0;" d="M566 453 Q566 574 570 586 Q574 598 582 598 L582 605 Q582 621 593.5 625 Q605 629 636.5 623 Q668 617 724.5 615 Q781 613 795 609 Q809 605 809 589.5 Q809 574 795 572 Q781 570 730.5 576 Q680 582 641 582 Q617 586 605 582 Q605 570 605 441 L605 363 Q625 367 676 379 Q734 395 785 406.5 Q836 418 849.5 420 Q863 422 869 406.5 Q875 391 855.5 383 Q836 375 789 369 Q742 363 680 344 Q629 328 609 324 Q613 273 613 238 Q621 164 619 148.5 Q617 133 605 129 Q602 125 594 125 Q594 109 576.5 109 Q559 109 437 105 L437 94 Q437 59 406 31.5 Q375 4 353.5 -6 Q332 -16 322 5.5 Q312 27 326 33 Q340 39 367.5 54.5 Q395 70 395 98 L395 102 Q273 102 262 105 Q250 109 250 123 Q250 137 260 141 Q270 145 395 145 Q391 160 391 180 Q383 219 375 254 Q355 254 332 254 Q230 246 214.5 252 Q199 258 199 271.5 Q199 285 211 289 Q223 293 328 297 Q348 297 359 301 Q355 336 352 355 Q352 383 371.5 381 Q391 379 394.5 361.5 Q398 344 406 301 Q445 301 453 301 Q473 297 473 279.5 Q473 262 453 262 Q445 262 418 258 Q422 227 430 187 Q434 164 434 145 Q562 148 578 145 L586 141 Q578 164 574 234 Q570 332 566 453 ZM328 395 Q199 387 183.5 392.5 Q168 398 168 412 Q168 426 180 430 Q187 430 258 437 Q250 453 246 512 Q242 562 242 582 Q223 582 219 582 Q203 590 203 603.5 Q203 617 215 621 Q227 625 336 637 Q383 641 410 645 Q398 648 367 668 Q324 695 316.5 705 Q309 715 316.5 722.5 Q324 730 336 728.5 Q348 727 394.5 703.5 Q441 680 445 664 Q449 648 441 645 L461 645 Q480 641 477 621 Q477 609 469 605 L469 520 Q469 457 465 441 Q480 441 484 441 Q504 437 502 419.5 Q500 402 480.5 402 Q461 402 328 395 ZM426 531 Q426 578 426 602 Q395 598 336 590 Q305 586 281 582 Q285 562 285 531 Q293 457 293 445 L289 437 L328 437 Q395 441 430 441 Q426 465 426 531 ZM734 250 Q730 316 728.5 335.5 Q727 355 744.5 359 Q762 363 769.5 341.5 Q777 320 779 250 Q781 180 781 98 L781 4 Q781 -12 765.5 -16 Q750 -20 744 -2 Q738 16 740 100 Q742 184 734 250 ZM152 102 Q141 172 143 181.5 Q145 191 154.5 195 Q164 199 172 195 Q180 191 191.5 121 Q203 51 203 39 Q203 27 193.5 23.5 Q184 20 174 25.5 Q164 31 152 102 Z" /><glyph glyph-name="uni65F6" unicode="&#x65f6;" d="M207 492 Q207 512 220.5 517.5 Q234 523 287 535 Q340 547 385 525.5 Q430 504 439.5 443.5 Q449 383 423.5 260 Q398 137 392.5 119.5 Q387 102 365.5 92 Q344 82 281.5 78 Q219 74 199.5 78 Q180 82 176 101.5 Q172 121 164 185.5 Q156 250 144.5 349.5 Q133 449 135 463 Q137 477 154.5 478.5 Q172 480 176 464.5 Q180 449 187 355 Q191 340 191 328 L246 328 Q285 328 326 330 Q367 332 383 332 L387 332 Q395 395 391 426 Q387 473 355.5 486.5 Q324 500 281 490 Q238 480 224.5 476.5 Q211 473 207 492 ZM570 508 Q473 488 455 492 Q437 496 435.5 513.5 Q434 531 453.5 535 Q473 539 562 551 Q641 562 711 574 Q695 691 693 712.5 Q691 734 714.5 736 Q738 738 742 716.5 Q746 695 762 582 Q828 594 845.5 596 Q863 598 869 578.5 Q875 559 851.5 551 Q828 543 766 535 Q781 414 785 262 Q793 90 738.5 33.5 Q684 -23 666 -27 Q648 -31 638.5 -7.5 Q629 16 646.5 21.5 Q664 27 707 74 Q750 121 742 273 Q734 414 719 531 Q652 523 570 508 ZM238 277 L195 277 Q203 234 207 199 Q215 137 219 129 Q223 121 281.5 127 Q340 133 346 140.5 Q352 148 375 266 L379 281 L316 281 Q273 281 238 277 ZM512 266 Q508 340 506 353.5 Q504 367 517.5 373 Q531 379 541 367 Q551 355 556.5 287 Q562 219 562 203 Q562 187 550.5 183.5 Q539 180 527.5 187.5 Q516 195 512 266 Z" /><glyph glyph-name="uni662F" unicode="&#x662f;" d="M430 660 Q359 648 340 648 Q336 648 328 652 L332 648 Q340 629 344 590 L348 559 Q363 559 402 562.5 Q441 566 484 572 Q527 578 541 574 Q555 570 551 550.5 Q547 531 533.5 533 Q520 535 480.5 529 Q441 523 398 520 L355 520 L359 512 Q367 484 371 465 L391 465 Q434 469 477 476.5 Q520 484 537.5 486 Q555 488 560.5 468.5 Q566 449 543 441.5 Q520 434 484.5 432 Q449 430 398.5 422 Q348 414 330 418 Q312 422 310.5 439.5 Q309 457 328 461 L316 512 Q309 559 301 590 Q293 625 291 644.5 Q289 664 305 668 Q312 668 320 664 L320 668 Q320 687 336 693 Q352 699 426 709 Q500 719 560.5 715 Q621 711 646.5 691.5 Q672 672 672 623 Q672 574 646.5 527 Q621 480 607.5 458.5 Q594 437 576.5 451 Q559 465 568.5 484.5 Q578 504 599.5 541 Q621 578 619 617 Q617 656 599.5 660 Q582 664 541 668 Q500 672 430 660 ZM465 219 Q457 309 457 324 L457 332 Q402 324 344 316 Q219 301 203 305 Q187 309 185.5 324.5 Q184 340 201.5 344 Q219 348 340 359.5 Q461 371 568.5 381 Q676 391 691.5 393 Q707 395 713 377 Q719 359 697.5 351.5 Q676 344 574 340 Q535 336 496 332 Q504 305 512 223 Q512 215 512 207 Q520 207 531 207 Q551 211 592 215 Q633 219 648.5 215 Q664 211 664 193.5 Q664 176 648.5 174 Q633 172 597.5 172 Q562 172 535 164 Q523 160 516 156 Q523 102 520 94 Q520 82 506 82 Q492 82 484.5 105.5 Q477 129 465 219 ZM449 20 Q340 27 305 35 L305 12 Q305 0 291 0 Q277 0 269.5 23.5 Q262 47 250 137 Q238 230 238 246 Q238 262 248 269.5 Q258 277 269.5 269.5 Q281 262 293 141 Q297 105 301 82 Q320 86 472.5 68.5 Q625 51 713 45 Q801 39 810.5 27.5 Q820 16 814.5 -2 Q809 -20 789.5 -18 Q770 -16 684 -2 Q598 12 449 20 Z" /><glyph glyph-name="uni673A" unicode="&#x673a;" d="M480 363 Q484 465 490 486.5 Q496 508 513.5 502 Q531 496 529 478.5 Q527 461 521.5 361.5 Q516 262 510 180 Q504 98 500 86 Q496 74 484.5 74 Q473 74 469 84 Q465 94 469 176 Q469 187 473 199 Q469 187 457 187 Q441 191 395 191 L379 191 Q383 176 383 160 Q395 -20 385 -29.5 Q375 -39 361.5 -35 Q348 -31 344 -15.5 Q340 0 332 184 L332 191 L301 191 Q250 195 238 195 Q234 195 230 199 Q215 145 203 102 Q187 35 179.5 27.5 Q172 20 156.5 23.5 Q141 27 144.5 50.5 Q148 74 171.5 142.5 Q195 211 220.5 304.5 Q246 398 263.5 408 Q281 418 291 408 Q301 398 291 378.5 Q281 359 250 266 Q246 250 242 238 L246 238 Q262 238 305 238 L332 238 Q324 371 320 484 Q281 484 246 477 Q199 469 187.5 473 Q176 477 176 492 Q176 512 191.5 517.5 Q207 523 242 527 Q270 531 312 531 Q309 672 309 691.5 Q309 711 326.5 711 Q344 711 348 697.5 Q352 684 359 531 Q406 535 418 531 Q437 527 437 507.5 Q437 488 421.5 486 Q406 484 359 484 Q371 363 375 238 L402 238 Q453 238 465 234 Q473 230 473 227 Q477 289 480 363 ZM605 512 L523 512 Q508 512 508 535.5 Q508 559 525.5 560.5 Q543 562 613.5 562 Q684 562 719 542.5 Q754 523 756 462.5 Q758 402 740.5 316 Q723 230 721 177.5 Q719 125 742.5 107.5 Q766 90 812.5 92 Q859 94 875 96 Q891 98 893 74.5 Q895 51 877 45 Q859 39 798.5 37 Q738 35 703 68.5 Q668 102 670 160.5 Q672 219 687.5 308.5 Q703 398 705 439 Q707 480 689.5 496 Q672 512 605 512 Z" /><glyph glyph-name="uni675F" unicode="&#x675f;" d="M285 461 Q285 477 298.5 482.5 Q312 488 387 508 Q430 520 480 527 L480 531 Q477 570 473 605 Q418 602 352 598 Q250 590 232.5 594 Q215 598 213 615.5 Q211 633 230.5 637 Q250 641 344 641 Q406 645 469 645 Q465 707 465 719 Q465 738 482.5 738 Q500 738 504 723 Q504 715 512 648 Q520 652 523 652 Q609 660 627 662 Q645 664 650.5 644.5 Q656 625 632.5 617 Q609 609 531 605 L516 605 Q520 574 523 531 Q539 535 555 535 Q645 539 684 529.5 Q723 520 740.5 477 Q758 434 711 383 Q664 332 642.5 310.5 Q621 289 578 297 Q562 297 539 297 Q539 227 539 156 Q621 145 695 133 Q781 117 795 107.5 Q809 98 801 82 Q793 66 779.5 68 Q766 70 684 90 Q617 105 539 109 Q531 -20 523 -27 Q516 -39 502 -35 Q488 -31 484 -16 Q480 -4 484 113 Q406 121 391 125 Q375 129 377 148.5 Q379 168 402 168 Q422 172 488 164 Q488 172 488 180 Q492 242 492 297 Q461 297 422 293 Q312 281 287 279 Q262 277 242.5 294.5 Q223 312 213 404 Q203 496 199 513.5 Q195 531 216.5 535 Q238 539 242 521.5 Q246 504 252 428 Q258 352 269.5 340 Q281 328 295 328 Q309 328 410 336 Q457 340 492 344 Q492 414 484 480 Q441 477 398 465 Q328 449 308.5 447 Q289 445 285 461 ZM535 344 L559 344 Q605 344 617 353.5 Q629 363 664 398.5 Q699 434 691.5 455.5 Q684 477 660.5 482.5 Q637 488 555 484 L527 484 L535 344 ZM246 133 Q281 227 289 236.5 Q297 246 310.5 242 Q324 238 324 220.5 Q324 203 291 107.5 Q258 12 248 8 Q238 4 226.5 8 Q215 12 213 27.5 Q211 43 246 133 Z" /><glyph glyph-name="uni6765" unicode="&#x6765;" d="M574 102 L531 102 Q539 4 535 -8 Q535 -27 519.5 -31 Q504 -35 496 -16 Q488 0 480 102 Q395 102 383 105 Q363 113 363 130.5 Q363 148 375 152 Q383 152 480 156 Q480 180 477 211 Q477 270 469 320 Q418 312 359 305 Q230 281 212.5 285 Q195 289 193 306.5 Q191 324 210.5 328 Q230 332 352 348 Q410 355 469 363 Q465 477 461 566 Q414 562 367 559 Q250 547 232.5 551 Q215 555 213 572.5 Q211 590 230.5 594 Q250 598 359 602 Q410 605 457 609 Q457 719 457 736.5 Q457 754 484.5 754 Q512 754 508 723 Q508 703 508 613 Q539 617 566 617 Q668 629 685.5 631 Q703 633 709 613.5 Q715 594 691 586 Q684 582 664 578 Q668 574 668 566 Q668 551 641 457 Q625 402 617 383 Q695 395 712.5 396.5 Q730 398 736 378.5 Q742 359 718.5 351.5 Q695 344 594 336 Q559 332 520 328 Q523 270 527 207 Q527 180 531 156 L570 156 Q758 156 779.5 152 Q801 148 799 126.5 Q797 105 773.5 105 Q750 105 574 102 ZM598 484 Q621 559 629 574 Q605 574 574 572 Q543 570 508 570 Q512 559 512 547 Q512 469 516 371 Q543 375 570 379 L570 383 Q570 398 598 484 ZM238 184 Q238 227 246 244.5 Q254 262 273.5 256 Q293 250 289 228.5 Q285 207 285 172 L285 94 Q285 47 281 31.5 Q277 16 257.5 18 Q238 20 238 41 Q238 62 240 101.5 Q242 141 238 184 ZM297 437 Q285 496 283 509.5 Q281 523 295 529 Q309 535 318.5 523.5 Q328 512 343.5 457 Q359 402 359 386.5 Q359 371 347.5 367 Q336 363 324 371 Q312 379 297 437 Z" /><glyph glyph-name="uni68CB" unicode="&#x68cb;" d="M516 66 Q484 4 472.5 -4 Q461 -12 449 -4 Q437 4 445 19.5 Q453 35 492 105 Q527 172 543 180 Q527 176 516 176 Q406 156 390.5 160 Q375 164 373 179.5 Q371 195 388.5 199 Q406 203 509.5 218.5 Q613 234 707 246 L711 246 L711 250 Q707 266 699 387 Q695 504 684 594 Q676 590 668 590 Q609 586 535 566 L531 566 L535 504 L566 504 Q590 504 617.5 506 Q645 508 658.5 508 Q672 508 670 486.5 Q668 465 652 465 L609 465 Q586 465 562 461 L539 461 L547 383 L566 383 Q590 383 619 385 Q648 387 662 387 Q676 387 674 365.5 Q672 344 656 344 L613 344 Q586 344 559 340 L551 340 Q555 273 547 266 Q539 258 527.5 262 Q516 266 512 279.5 Q508 293 504 398 Q500 488 496 559 Q457 551 445 555 Q430 559 428 574.5 Q426 590 441 594 Q453 594 488 602 Q488 672 488 689.5 Q488 707 504 707 Q520 707 523.5 695.5 Q527 684 531 609 Q598 621 660 633 Q672 633 680 637 Q676 695 676 711 Q676 730 693.5 730 Q711 730 715 715 Q715 707 723 645 Q734 645 742 645 Q758 648 764 630.5 Q770 613 746 605 Q738 602 727 598 Q727 594 727 590 Q738 480 750 363 Q758 273 754 250 L816 258 Q832 262 838 244.5 Q844 227 822.5 219 Q801 211 711 203 Q641 199 551 184 Q562 184 566 172 Q578 160 564.5 144.5 Q551 129 516 66 ZM250 203 Q211 207 199 207 Q187 160 180 125 Q168 62 160 54.5 Q152 47 136.5 51 Q121 55 125 78.5 Q129 102 148.5 164.5 Q168 227 187.5 309 Q207 391 224.5 400.5 Q242 410 252 400.5 Q262 391 252 371.5 Q242 352 219 270 L211 246 Q223 246 254 242 Q262 242 273 242 Q270 359 262 461 Q234 457 207 453 Q172 445 160 449 Q148 453 148 468.5 Q148 484 162 490 Q176 496 203 496 Q227 500 262 500 Q258 629 258 646.5 Q258 664 273.5 664 Q289 664 293 652.5 Q297 641 301 504 Q340 508 352 504 Q367 500 367 482.5 Q367 465 351.5 463 Q336 461 301 461 Q305 355 312 242 Q320 242 328 242 Q371 246 384.5 242 Q398 238 394.5 218.5 Q391 199 377 201 Q363 203 324 199 Q320 199 316 199 Q316 187 316 176 Q328 16 318.5 6 Q309 -4 297 0 Q285 4 281 17.5 Q277 31 273 195 L273 199 L250 203 ZM781 39 Q719 90 711 99.5 Q703 109 711 117 Q719 125 732.5 123 Q746 121 812.5 74 Q879 27 883 11.5 Q887 -4 877 -10 Q867 -16 855.5 -12 Q844 -8 781 39 Z" /><glyph glyph-name="uni6B21" unicode="&#x6b21;" d="M512 437 Q500 379 490 367 Q480 355 460.5 361 Q441 367 447 394.5 Q453 422 472.5 482.5 Q492 543 504 615 Q516 687 535.5 701 Q555 715 568.5 701 Q582 687 568.5 666 Q555 645 539 570 Q535 547 527 527 Q543 539 642.5 556.5 Q742 574 781 562.5 Q820 551 839.5 517.5 Q859 484 855.5 451 Q852 418 824.5 375 Q797 332 781.5 326 Q766 320 760 336 Q754 352 769.5 371.5 Q785 391 797 420 Q809 449 799 478.5 Q789 508 759.5 517.5 Q730 527 648 508 Q566 492 546.5 486 Q527 480 523 496 Q516 465 512 437 ZM141 441 Q148 496 152 513.5 Q156 531 171.5 531 Q187 531 193 515.5 Q199 500 191.5 439.5 Q184 379 195.5 361.5 Q207 344 228.5 340 Q250 336 277.5 349.5 Q305 363 334 379 Q363 395 384.5 393 Q406 391 408 375 Q410 359 388.5 347.5 Q367 336 341.5 318.5 Q316 301 271.5 291 Q227 281 189.5 296.5 Q152 312 144.5 349.5 Q137 387 141 441 ZM578 289 Q609 383 615 404.5 Q621 426 640.5 422 Q660 418 660 398.5 Q660 379 623 273.5 Q586 168 566.5 103.5 Q547 39 533.5 25.5 Q520 12 504 17.5 Q488 23 492 48.5 Q496 74 521.5 136.5 Q547 199 578 289 ZM691 90 Q645 105 631 109 Q617 113 617 134.5 Q617 156 632.5 156 Q648 156 703 140.5 Q758 125 805 117 Q852 109 869.5 105.5 Q887 102 887 82 Q887 62 869.5 56.5 Q852 51 795 64.5 Q738 78 691 90 ZM227 27 Q168 20 148.5 25.5 Q129 31 129 48.5 Q129 66 140.5 70 Q152 74 224.5 82 Q297 90 318.5 86 Q340 82 338 60.5 Q336 39 312.5 39 Q289 39 227 27 Z" /><glyph glyph-name="uni6B63" unicode="&#x6b63;" d="M426 523 Q418 586 418 613 Q316 621 304.5 621 Q293 621 295 646.5 Q297 672 314.5 670 Q332 668 426 662 Q520 656 602 650.5 Q684 645 699.5 641 Q715 637 709 613.5 Q703 590 685.5 592 Q668 594 594 598 Q539 602 469 605 Q469 578 473 504 Q480 422 498 306.5 Q516 191 514 171.5 Q512 152 496 148.5 Q480 145 472.5 164.5 Q465 184 449.5 310.5 Q434 437 426 523 ZM367 39 Q180 47 166 47 Q152 47 154 74.5 Q156 102 175.5 100 Q195 98 375 94 Q555 90 689.5 86 Q824 82 839.5 76 Q855 70 851.5 45 Q848 20 828.5 23.5 Q809 27 682 29 Q555 31 367 39 ZM301 344 Q297 391 297 408.5 Q297 426 324.5 426 Q352 426 350 396.5 Q348 367 350 326 Q352 285 353.5 226.5 Q355 168 353.5 148.5 Q352 129 336 125 Q320 121 312.5 140.5 Q305 160 305 230.5 Q305 301 301 344 ZM562 375 Q520 375 506 377 Q492 379 492 402.5 Q492 426 508 426 L570 426 Q617 426 668 428 Q719 430 736.5 430 Q754 430 752 404.5 Q750 379 730 379 L656 379 Q605 379 562 375 Z" /><glyph glyph-name="uni6B65" unicode="&#x6b65;" d="M371 387 Q230 375 214.5 377 Q199 379 193 396.5 Q187 414 205 420 Q223 426 352 434 Q352 453 348 492 Q344 547 344 590 Q348 633 355.5 639 Q363 645 379 641 Q395 637 396.5 619.5 Q398 602 394.5 566.5 Q391 531 395 484 Q402 449 398 434 Q453 437 508 437 Q504 461 500 516 Q496 590 500 652 Q504 719 512 724.5 Q520 730 535.5 726.5 Q551 723 553 705 Q555 687 547 629 Q547 621 547 609 Q566 617 585.5 613 Q605 609 650 607 Q695 605 712.5 601.5 Q730 598 730 576.5 Q730 555 714.5 553 Q699 551 662 556.5 Q625 562 590 559 Q559 559 547 559 Q547 535 551 508 Q555 465 555 441 Q602 445 648 449 Q785 457 793 435.5 Q801 414 791 402.5 Q781 391 765.5 394.5 Q750 398 633 400 Q516 402 371 387 ZM613 191 Q711 270 724.5 273.5 Q738 277 746 263.5 Q754 250 742 236.5 Q730 223 634.5 150.5 Q539 78 445.5 0 Q352 -78 334 -78 Q316 -78 310.5 -62.5 Q305 -47 320.5 -33.5 Q336 -20 428 48.5 Q520 117 613 191 ZM285 305 Q320 355 332 361 Q344 367 353.5 357.5 Q363 348 359 332 Q355 316 324 277 Q293 238 273.5 199 Q254 160 246 148.5 Q238 137 222.5 142.5 Q207 148 207 162 Q207 176 230.5 215 Q254 254 285 305 ZM453 305 Q453 348 461 353.5 Q469 359 484.5 355.5 Q500 352 502 334 Q504 316 502 283 Q500 250 504 211 Q508 172 506 156.5 Q504 141 486.5 141 Q469 141 463 156.5 Q457 172 455 219 Q453 266 453 305 Z" /><glyph glyph-name="uni6BCF" unicode="&#x6bcf;" d="M324 414 Q355 504 361 515.5 Q367 527 384.5 521.5 Q402 516 398.5 502 Q395 488 367 406 Q352 367 344 332 Q402 336 461 336 Q465 367 465 398 Q465 449 472.5 455 Q480 461 496 457 Q512 453 514 435.5 Q516 418 512 375 Q512 355 508 340 Q566 344 629 348 Q645 348 660 348 Q660 379 660 406 Q664 504 627 527.5 Q590 551 521.5 553 Q453 555 437.5 555 Q422 555 418 570.5 Q414 586 433.5 594 Q453 602 531 598 Q609 594 658 560.5 Q707 527 703 418 Q703 383 699 348 Q797 352 812 336 Q836 320 826 304.5 Q816 289 789 293 Q770 293 695 297 Q687 242 676 180 Q676 168 672 152 Q676 152 680 152 Q699 148 699 126.5 Q699 105 680 105 L660 105 Q645 47 629 27 Q605 4 587.5 -6 Q570 -16 558.5 0 Q547 16 558.5 23.5 Q570 31 590 47 Q605 59 617 105 L582 105 Q500 105 418 111 Q336 117 303 154 Q270 191 281 258 Q281 270 285 281 L191 273 Q168 273 154.5 289 Q141 305 164 312 Q184 320 297 328 Q309 367 324 414 ZM355 289 L332 285 L328 266 Q316 211 335.5 187.5 Q355 164 427.5 156 Q500 148 578 152 Q609 152 629 152 Q633 168 637 187 Q648 246 652 297 L508 297 L508 281 Q504 234 500 218.5 Q496 203 478.5 203 Q461 203 455 218.5 Q449 234 457 289 L457 297 Q406 293 355 289 ZM336 652 Q367 703 386.5 711 Q406 719 414 703 Q422 695 418 687 Q437 691 473 699 Q535 711 607.5 717 Q680 723 685.5 703.5 Q691 684 683.5 674 Q676 664 660.5 666 Q645 668 592 670 Q539 672 480 652 Q422 637 406 637 Q395 641 387 648 Q379 637 363 613 Q332 566 318.5 539 Q305 512 293 506 Q281 500 269.5 504 Q258 508 258 523.5 Q258 539 281.5 570.5 Q305 602 336 652 Z" /><glyph glyph-name="uni6C42" unicode="&#x6c42;" d="M570 352 Q539 336 520 340 L520 344 Q516 305 512 258 Q512 250 512 238 Q527 238 576 232.5 Q625 227 679.5 219 Q734 211 748 207 Q762 203 758 179.5 Q754 156 736.5 158 Q719 160 672 168 Q625 176 566 184 Q523 187 508 191 Q492 66 465 27 Q430 -23 412.5 -27 Q395 -31 385 -7.5 Q375 16 392.5 21.5 Q410 27 433.5 68 Q457 109 469 270 Q477 410 469 527 Q414 520 352 512 Q258 496 240.5 500 Q223 504 221 521.5 Q219 539 238.5 543 Q258 547 344 555 Q406 562 465 566 Q449 699 447 720.5 Q445 742 468.5 744 Q492 746 496 724.5 Q500 703 512 574 L516 574 Q598 586 615.5 588 Q633 590 639 570.5 Q645 551 621.5 543 Q598 535 523 531 L516 531 Q520 465 520 387 Q539 391 564.5 398.5 Q590 406 613.5 414 Q637 422 654.5 424 Q672 426 679.5 406.5 Q687 387 662 377 Q637 367 621 367 Q605 367 570 352 ZM320 168 Q270 156 250 162 Q230 168 230 185.5 Q230 203 242 207 Q254 211 318.5 220.5 Q383 230 404.5 226.5 Q426 223 424 201.5 Q422 180 398.5 180 Q375 180 320 168 ZM332 328 Q273 316 255.5 322 Q238 328 238 343.5 Q238 359 250 363 Q262 367 328.5 377 Q395 387 416 383 Q437 379 435.5 359.5 Q434 340 412.5 340 Q391 340 332 328 ZM668 664 Q617 687 607.5 701 Q598 715 607.5 722.5 Q617 730 634.5 728.5 Q652 727 711 707 Q770 687 773.5 667.5 Q777 648 765.5 640.5 Q754 633 738.5 639 Q723 645 668 664 Z" /><glyph glyph-name="uni6E38" unicode="&#x6e38;" d="M418 242 Q406 230 395 227 Q395 187 391 148 Q383 59 379 43 Q375 27 359.5 27 Q344 27 340 41 Q336 55 344 146.5 Q352 238 352 348 Q355 445 359 477 Q324 473 309 477 Q293 480 291 498 Q289 516 308.5 519.5 Q328 523 384.5 531 Q441 539 496 550.5 Q551 562 568.5 564 Q586 566 590 547 Q594 539 590 531 Q609 578 629 633 Q656 703 668 707 Q680 711 689.5 703 Q699 695 695 679.5 Q691 664 668 605 Q656 582 645 555 Q668 555 695 559 Q754 566 808.5 574 Q863 582 880.5 584 Q898 586 904 566.5 Q910 547 886.5 539 Q863 531 816.5 529 Q770 527 703 516 Q652 504 629 504 Q629 500 629 496 Q613 441 605.5 429.5 Q598 418 582 424 Q566 430 566 443.5 Q566 457 586 512 L590 527 Q582 523 574 520 Q551 512 504 504 Q461 500 406 488 Q406 484 406 477 Q406 457 402 348 Q398 316 398 285 Q410 293 422 301 Q461 324 506 304.5 Q551 285 564.5 242 Q578 199 560.5 136.5 Q543 74 523.5 33 Q504 -8 486.5 -10 Q469 -12 461 5.5 Q453 23 461 35 Q469 47 478.5 68.5 Q488 90 505.5 140.5 Q523 191 509.5 222.5 Q496 254 474.5 262 Q453 270 418 242 ZM707 117 Q637 98 619.5 101.5 Q602 105 600 123 Q598 141 617.5 144.5 Q637 148 699 164 Q730 172 758 180 Q742 191 738 201 Q734 211 738 228.5 Q742 246 757.5 299 Q773 352 773 371.5 Q773 391 722.5 389 Q672 387 652.5 385 Q633 383 629 402 Q629 422 644.5 426 Q660 430 718.5 432 Q777 434 796.5 426 Q816 418 818 381 Q820 344 804.5 293 Q789 242 791 228.5 Q793 215 816 195 L820 191 Q883 207 900.5 209 Q918 211 926 191.5 Q934 172 906 164 Q887 156 844 148 Q848 125 824 66 Q805 8 777.5 -27.5 Q750 -63 734.5 -68.5 Q719 -74 705 -54.5 Q691 -35 707 -29 Q723 -23 742.5 10 Q762 43 779.5 86 Q797 129 793 141 Q754 133 707 117 ZM250 90 Q285 113 297 113 Q309 113 316.5 101.5 Q324 90 310.5 76 Q297 62 262 46.5 Q227 31 201.5 15.5 Q176 0 162 -6 Q148 -12 142.5 2 Q137 16 146.5 31.5 Q156 47 185.5 58.5 Q215 70 250 90 ZM199 285 Q160 312 156 326 Q152 340 158 346 Q164 352 177.5 352 Q191 352 234 326.5 Q277 301 283 285.5 Q289 270 277.5 260 Q266 250 254 254 Q242 258 199 285 ZM227 508 Q195 512 175.5 521.5 Q156 531 162 552.5 Q168 574 187.5 570 Q207 566 230.5 560.5 Q254 555 275.5 551 Q297 547 295 527.5 Q293 508 277 508 L227 508 ZM414 637 Q395 664 387 674 Q379 684 387 691.5 Q395 699 408.5 697 Q422 695 447.5 671.5 Q473 648 476.5 632.5 Q480 617 470.5 611 Q461 605 449 609 Q437 613 414 637 Z" /><glyph glyph-name="uni73A9" unicode="&#x73a9;" d="M594 430 Q406 410 390.5 410 Q375 410 367 422 Q359 434 369 445.5 Q379 457 392.5 457 Q406 457 591.5 476.5 Q777 496 793 498 Q809 500 822.5 488.5 Q836 477 826 463 Q816 449 797 449 Q785 449 703 437 L703 434 Q703 414 697 338 Q691 262 683.5 176 Q676 90 703 62.5 Q730 35 779 37 Q828 39 861.5 43 Q895 47 895 21.5 Q895 -4 863.5 -8 Q832 -12 769.5 -14 Q707 -16 666 25 Q625 66 635 158 Q645 250 648 332 Q656 414 656 434 Q625 434 594 430 ZM211 301 Q160 281 142.5 285 Q125 289 123 306.5 Q121 324 140.5 328 Q160 332 203 344 L242 355 Q238 410 234 449 Q230 496 230 516 L207 523 Q180 535 168 535 Q156 535 158 560.5 Q160 586 177.5 584 Q195 582 216.5 574 Q238 566 279 558.5 Q320 551 334 547 Q348 543 344 519.5 Q340 496 320 496 Q309 500 281 504 Q281 473 285 430 Q285 406 289 371 Q332 387 349.5 389 Q367 391 373 371.5 Q379 352 355.5 344 Q332 336 297 328 L289 328 L289 320 Q293 258 291 238.5 Q289 219 273.5 215 Q258 211 250 230 Q242 246 242 312 Q227 305 211 301 ZM504 309 Q535 418 547 422 Q559 426 568.5 418 Q578 410 574 394.5 Q570 379 541 283 Q512 187 492.5 109 Q473 31 465 19.5 Q457 8 441.5 14 Q426 20 426 33.5 Q426 47 449.5 125 Q473 203 504 309 ZM211 113 Q160 98 142.5 101.5 Q125 105 123 123 Q121 141 140.5 144.5 Q160 148 203 160 L289 184 Q332 195 349.5 197 Q367 199 373 179.5 Q379 160 355.5 152.5 Q332 145 297 139 Q262 133 211 113 ZM578 652 Q547 652 533.5 654 Q520 656 520 679.5 Q520 703 535 703 L586 703 Q621 703 658 705 Q695 707 712.5 707 Q730 707 728.5 681.5 Q727 656 707 656 L648 656 Q609 656 578 652 Z" /><glyph glyph-name="uni7528" unicode="&#x7528;" d="M406 215 Q328 191 310.5 195 Q293 199 291 216.5 Q289 234 308.5 238 Q328 242 398 262 Q418 266 434 270 L434 359 Q336 355 320.5 355 Q305 355 299 367 Q293 379 301 390.5 Q309 402 322.5 402 Q336 402 434 406 L434 500 Q434 523 453.5 523 Q473 523 476.5 509.5 Q480 496 480 410 Q555 418 570.5 420 Q586 422 597.5 410 Q609 398 601.5 384.5 Q594 371 574 371 Q562 371 480 363 Q480 324 480 281 L539 297 Q609 316 627 318 Q645 320 650.5 300.5 Q656 281 632.5 273.5 Q609 266 547 254 Q520 246 484 238 Q484 203 488 164 Q500 55 490 45 Q480 35 464.5 39 Q449 43 445 60.5 Q441 78 437 191 Q437 207 434 223 Q422 219 406 215 ZM492 617 Q375 586 355.5 588 Q336 590 334 607.5 Q332 625 347.5 629 Q363 633 494 666 Q625 699 662 673.5 Q699 648 730.5 611 Q762 574 760 466.5 Q758 359 746 250 Q734 141 701 86 Q668 31 648.5 17.5 Q629 4 619 29.5 Q609 55 619 58.5 Q629 62 654.5 105 Q680 148 695.5 253.5 Q711 359 709 459 Q707 559 689.5 582 Q672 605 640.5 628.5 Q609 652 492 617 ZM211 418 Q203 504 203 525.5 Q203 547 222.5 547 Q242 547 246 533.5 Q250 520 258 410.5 Q266 301 277.5 189.5 Q289 78 279.5 68.5 Q270 59 254 62.5 Q238 66 234 84 Q230 102 224.5 217 Q219 332 211 418 Z" /><glyph glyph-name="uni767D" unicode="&#x767d;" d="M234 340 Q219 465 219 480.5 Q219 496 236.5 500 Q254 504 260 484.5 Q266 465 281 348 Q285 297 293 254 Q309 254 355 258 Q406 266 461 275.5 Q516 285 535.5 285 Q555 285 553 257.5 Q551 230 529.5 230 Q508 230 451.5 222.5 Q395 215 344 203 Q320 199 305 195 Q309 168 312 141 Q332 55 338 43 Q344 31 381 31 Q418 31 490 39 Q562 47 580 47 Q598 47 600 23.5 Q602 0 582 -2 Q562 -4 498 -10 Q434 -16 381 -16 Q328 -16 316.5 -12 Q305 -8 297 9.5 Q289 27 271.5 121 Q254 215 234 340 ZM504 422 Q367 391 353.5 389 Q340 387 336 402.5 Q332 418 345.5 426 Q359 434 505.5 469 Q652 504 734 478.5 Q816 453 828 379 Q840 305 801 211 Q762 117 717 50.5 Q672 -16 660 -23.5 Q648 -31 636.5 -19.5 Q625 -8 633 2 Q641 12 684 78.5 Q727 145 760 228.5 Q793 312 773.5 374.5 Q754 437 697.5 445 Q641 453 504 422 ZM434 668 Q508 723 527.5 730.5 Q547 738 556.5 724.5 Q566 711 550.5 695.5 Q535 680 463 629 Q391 578 357.5 549 Q324 520 312.5 514 Q301 508 289 512 Q277 516 277 531.5 Q277 547 320 580 Q363 613 434 668 Z" /><glyph glyph-name="uni7684" unicode="&#x7684;" d="M250 418 Q250 437 263.5 443 Q277 449 336 463 Q395 477 441.5 455.5 Q488 434 496 379 Q504 324 472.5 222.5 Q441 121 435.5 103.5 Q430 86 408.5 76 Q387 66 324.5 64 Q262 62 242.5 66 Q223 70 219 89.5 Q215 109 209 164 Q203 219 189.5 346 Q176 473 178 486.5 Q180 500 197.5 502 Q215 504 219 488.5 Q223 473 234 352 Q238 312 238 281 Q250 281 258 285 Q277 289 316 289 Q355 289 371 285 Q387 281 387 263.5 Q387 246 371 244 Q355 242 322 246 Q289 250 262 238 Q254 234 246 234 Q250 199 250 180 Q258 125 262 117 Q266 109 324.5 113 Q383 117 389 125 Q395 133 424 228.5 Q453 324 449 363 Q445 402 412 416 Q379 430 330 418 Q281 406 267.5 402 Q254 398 250 418 ZM590 508 Q551 492 535 488 Q523 461 520 453 Q512 441 496 447 Q480 453 480 466.5 Q480 480 498 525 Q516 570 539 628.5 Q562 687 574 691 Q586 695 595.5 687.5 Q605 680 601.5 664 Q598 648 574 602 Q562 570 551 543 Q570 551 602 559 Q680 582 736.5 554.5 Q793 527 810.5 509.5 Q828 492 838 431.5 Q848 371 844 345.5 Q840 320 805 211 Q770 102 717 55 Q664 8 650.5 6 Q637 4 627 15.5 Q617 27 619 39 Q621 51 668 82 Q715 113 752 216.5 Q789 320 793 345.5 Q797 371 785 429.5 Q773 488 712.5 511.5 Q652 535 590 508 ZM301 547 Q273 484 261.5 476.5 Q250 469 238.5 476.5 Q227 484 234 500 L277 586 Q312 656 326 662 Q340 668 349.5 654.5 Q359 641 345.5 625 Q332 609 301 547 ZM512 285 Q504 324 504 339.5 Q504 355 515.5 365 Q527 375 539 367 Q551 359 558.5 289 Q566 219 564 207 Q562 195 548.5 195 Q535 195 527.5 220.5 Q520 246 512 285 Z" /><glyph glyph-name="uni76F8" unicode="&#x76f8;" d="M477 621 Q473 641 484.5 648.5 Q496 656 576 683.5 Q656 711 713 707 Q770 703 818.5 646.5 Q867 590 867 486.5 Q867 383 841.5 250 Q816 117 794.5 60.5 Q773 4 761.5 -2 Q750 -8 736.5 2 Q723 12 727 27 Q730 35 734 51 Q715 47 660 47 Q586 43 527.5 27.5 Q469 12 457 16 Q445 20 445 35.5 Q445 51 457 55 Q465 59 484 62 L480 70 Q477 86 469 215 Q461 344 449 445 Q441 547 441 564.5 Q441 582 457 582 Q473 582 476.5 570.5 Q480 559 484 477 Q504 473 539 469 Q586 465 638.5 457 Q691 449 705 445 Q719 441 715 418 Q711 395 693.5 396.5 Q676 398 631 406 Q586 414 531 422 Q504 426 488 426 Q496 348 504 270 Q516 270 531 273 Q562 277 613 283 Q664 289 679.5 285 Q695 281 695 263.5 Q695 246 679.5 244 Q664 242 619 240 Q574 238 535 227 Q520 223 508 219 Q512 207 512 195 Q523 98 520 70 L523 70 Q574 82 654 90 Q734 98 750 94 L754 90 Q770 133 793 262 Q820 398 816 484 Q812 570 771 613 Q730 656 693 658 Q656 660 589.5 636.5 Q523 613 503.5 609 Q484 605 477 621 ZM230 477 Q172 461 154.5 465 Q137 469 135 486.5 Q133 504 152.5 508 Q172 512 223 520 Q242 523 262 527 Q266 684 269.5 693.5 Q273 703 289 703 Q305 703 308.5 689.5 Q312 676 309 535 Q316 539 320 539 Q371 551 388.5 553 Q406 555 412 535.5 Q418 516 394.5 508 Q371 500 328 496 Q320 492 305 492 Q301 344 305 219 Q328 223 359 223 Q402 227 416 223 Q430 219 426 195.5 Q422 172 404.5 174 Q387 176 352 172 Q332 172 309 172 L309 168 Q316 27 316 3.5 Q316 -20 296.5 -21.5 Q277 -23 271.5 2 Q266 27 262 172 L242 172 Q230 172 232 197.5 Q234 223 250 219 Q254 219 262 219 L262 484 L230 477 ZM172 336 Q195 437 207 441 Q219 445 228.5 437.5 Q238 430 234 414 Q230 398 210.5 310.5 Q191 223 179.5 148.5 Q168 74 160 62.5 Q152 51 136.5 56.5 Q121 62 121 76 Q121 90 136.5 164 Q152 238 172 336 Z" /><glyph glyph-name="uni786E" unicode="&#x786e;" d="M602 453 Q523 410 508 406 L492 406 Q492 387 492 348 Q496 230 492 168 Q492 160 488 156 Q508 164 551 176 Q578 180 598 187 Q598 234 598 289 L598 293 Q582 293 566 289 Q531 281 519.5 285 Q508 289 508 304.5 Q508 320 521.5 326 Q535 332 562 332 Q574 336 598 332 Q598 406 602 418 Q605 437 625 435.5 Q645 434 645 414 L645 336 Q691 340 705 336 Q719 332 719 314.5 Q719 297 703 297 L645 297 L645 199 L656 203 Q707 219 720.5 221 Q734 223 740 207 Q746 191 726.5 183.5 Q707 176 660 168 L645 164 L645 98 Q645 35 643 15.5 Q641 -4 627 -8 Q613 -12 605.5 -4 Q598 4 598 90 L598 152 Q578 145 555 137 Q500 117 484 117 Q488 94 484 86 Q484 66 470.5 62.5 Q457 59 449 66.5 Q441 74 445 162 Q449 250 445 359 Q445 473 449 490.5 Q453 508 472.5 506 Q492 504 492 484 L492 445 Q520 461 598 492 Q645 512 680 520 Q691 535 697 566.5 Q703 598 705 613.5 Q707 629 697 633 Q687 637 648 637 Q625 637 609 641 Q590 609 582 578 Q574 547 564.5 541 Q555 535 545 548.5 Q535 562 537 574 Q539 586 562.5 629 Q586 672 598 695 L621 730 Q629 742 640.5 736 Q652 730 645 707 Q645 695 637 684 Q652 680 672 676 Q723 668 738.5 652.5 Q754 637 754 617.5 Q754 598 738 551 Q734 535 727 520 Q750 520 770 512 Q840 488 865.5 420 Q891 352 869.5 281.5 Q848 211 809 101.5 Q770 -8 760 -17.5 Q750 -27 736.5 -19.5 Q723 -12 728.5 11.5 Q734 35 771.5 132.5 Q809 230 826.5 291 Q844 352 816.5 410.5 Q789 469 734.5 482.5 Q680 496 602 453 ZM234 328 Q285 348 320 355.5 Q355 363 380.5 353.5 Q406 344 416 307 Q426 270 412 219 Q398 168 380.5 142.5 Q363 117 339.5 113 Q316 109 294.5 107 Q273 105 251.5 111 Q230 117 224.5 134.5 Q219 152 219 181.5 Q219 211 207 262 Q207 270 203 277 Q195 246 184 227 Q160 164 148.5 158 Q137 152 127 160 Q117 168 117 185.5 Q117 203 144.5 250 Q172 297 219 414 Q246 477 258 504 Q250 504 242 504 Q219 504 205 506 Q191 508 191 531.5 Q191 555 207 555 L250 555 Q277 555 304.5 557 Q332 559 349.5 559 Q367 559 365 533.5 Q363 508 344 508 L305 508 Q293 477 262 402 Q246 363 230 332 L234 328 ZM285 297 Q266 293 258 287 Q250 281 256 248 Q262 215 262 189.5 Q262 164 269.5 158 Q277 152 291 152 Q305 152 318.5 160 Q332 168 340 176 Q348 184 363.5 219 Q379 254 373 277.5 Q367 301 363 308.5 Q359 316 332 310.5 Q305 305 285 297 Z" /><glyph glyph-name="uni7B54" unicode="&#x7b54;" d="M375 219 Q371 234 386.5 246 Q402 258 480.5 281.5 Q559 305 619.5 305 Q680 305 730.5 289 Q781 273 777 214.5 Q773 156 734 117 Q695 78 699 56.5 Q703 35 675.5 33 Q648 31 517.5 27 Q387 23 365.5 29 Q344 35 332 52.5 Q320 70 302.5 146.5 Q285 223 281 238.5 Q277 254 294.5 260 Q312 266 322 252 Q332 238 345.5 164 Q359 90 375 80 Q391 70 504 72 Q617 74 632.5 86 Q648 98 685.5 133 Q723 168 728.5 205 Q734 242 695 250 Q656 258 609 258 Q562 258 490 236.5 Q418 215 400.5 209 Q383 203 375 219 ZM598 641 Q559 652 547 660 Q543 656 543 652 Q527 617 515.5 609.5 Q504 602 492 611.5 Q480 621 480 633 Q484 645 496 668 Q480 668 441 670 Q402 672 371 664 Q355 660 344 656 Q332 633 320 609 Q301 574 289 566.5 Q277 559 265.5 568.5 Q254 578 256 591.5 Q258 605 281.5 640.5 Q305 676 326.5 711 Q348 746 363.5 756 Q379 766 388.5 754 Q398 742 391 727 Q387 719 379 707 Q398 711 434 711 Q480 715 496 711 Q508 707 512 691 L547 746 Q570 781 586 791 Q602 801 611.5 789 Q621 777 613 762 Q609 758 609 754 L660 754 Q703 754 718.5 750 Q734 746 734 728.5 Q734 711 718.5 709 Q703 707 668 711 Q633 715 602 711 Q586 707 578 707 Q574 699 566 691 Q582 687 629 672 Q687 656 691 640.5 Q695 625 685.5 619 Q676 613 664 617 Q652 621 598 641 ZM391 598 Q352 625 344 635 Q336 645 344 652.5 Q352 660 365.5 658 Q379 656 424 632.5 Q469 609 473 594 Q473 582 469 574 L477 574 L480 570 Q492 566 586 541 Q680 516 762 494.5 Q844 473 846 459 Q848 445 838 437.5 Q828 430 812.5 437.5 Q797 445 728.5 464.5 Q660 484 562 508 Q504 523 477 531 Q461 516 402 484 Q328 441 262 395 Q199 348 187.5 340 Q176 332 164 342 Q152 352 154 365.5 Q156 379 224.5 424 Q293 469 367 516 Q434 555 453 566 Q449 566 445 570 Q434 574 391 598 ZM414 363 Q340 363 330 365 Q320 367 320 386.5 Q320 406 332 406 L418 406 Q492 406 576 408 Q660 410 673.5 410 Q687 410 685.5 388.5 Q684 367 668 367 L570 367 Q488 367 414 363 Z" /><glyph glyph-name="uni7ED3" unicode="&#x7ed3;" d="M246 594 Q293 648 306.5 656 Q320 664 330 648.5 Q340 633 330 623 Q320 613 283 572 Q246 531 211 496 Q176 461 181.5 445.5 Q187 430 220.5 416 Q254 402 299 443 Q344 484 363.5 502 Q383 520 390.5 525.5 Q398 531 410 520 Q418 512 418 504 Q422 512 434 516 Q453 520 531 531 Q551 535 570 539 L570 633 Q574 715 582 721 Q590 727 601.5 723 Q613 719 615 705 Q617 691 613 617 Q609 586 609 543 Q648 551 687 559 Q766 570 783.5 572 Q801 574 806.5 554.5 Q812 535 789 527.5 Q766 520 695 512 Q656 508 609 500 Q613 480 613 453 Q617 383 617 367 Q652 375 687 383 Q762 398 779.5 400 Q797 402 803 382.5 Q809 363 785.5 355.5 Q762 348 695.5 338 Q629 328 539 301 Q453 277 435.5 281 Q418 285 416 302.5 Q414 320 433.5 324 Q453 328 531 348 Q559 352 582 355 Q578 375 574 457 Q574 477 570 492 Q555 492 539 488 Q453 469 435.5 473 Q418 477 414 492 L414 500 Q410 488 388.5 470.5 Q367 453 316.5 404 Q266 355 234.5 312.5 Q203 270 205 246.5 Q207 223 232.5 226.5 Q258 230 299 240 Q340 250 357.5 254 Q375 258 379 238.5 Q383 219 369 213 Q355 207 314 199 Q273 191 222.5 185.5 Q172 180 154.5 219 Q137 258 172 306.5 Q207 355 211 359 Q215 363 172 377 Q129 391 125 426 Q121 461 160 502 Q199 543 246 594 ZM488 195 Q504 207 592 228.5 Q680 250 723 252 Q766 254 807 236.5 Q848 219 846 170 Q844 121 812.5 91.5 Q781 62 785 41 Q789 20 761.5 18 Q734 16 640.5 8 Q547 0 525.5 6 Q504 12 492 29.5 Q480 47 455 123 Q430 199 426 214.5 Q422 230 439.5 236 Q457 242 465 227 Q473 219 480 191 L488 195 ZM496 141 Q520 66 535.5 56.5 Q551 47 627 53 Q703 59 718.5 70.5 Q734 82 763.5 107.5 Q793 133 797 160 Q801 187 771.5 197 Q742 207 713 205 Q684 203 602 183.5 Q520 164 500 156 Q496 156 492 156 Q496 148 496 141 ZM230 66 Q187 55 169.5 58.5 Q152 62 150 80 Q148 98 167.5 101.5 Q187 105 224.5 111 Q262 117 297 127 Q332 137 349.5 139 Q367 141 375 121.5 Q383 102 357.5 94 Q332 86 304.5 82 Q277 78 230 66 Z" /><glyph glyph-name="uni7EDD" unicode="&#x7edd;" d="M555 598 Q539 562 527.5 554.5 Q516 547 504 556.5 Q492 566 494 580 Q496 594 517.5 629 Q539 664 558.5 699 Q578 734 593.5 744 Q609 754 617 742 Q625 730 621 719 Q637 719 668 711 Q715 699 732.5 670 Q750 641 715 594 Q680 547 672 527 Q687 531 703 531 Q809 543 840 508 Q871 473 869 445.5 Q867 418 824 367 Q781 316 746 312.5 Q711 309 590 285 Q477 262 457 262 Q453 223 453 184 Q453 90 523.5 58.5 Q594 27 676 37 Q758 47 791 51 Q824 55 824 29.5 Q824 4 793 0 Q762 -4 666 -13.5 Q570 -23 486 21.5 Q402 66 406 166 Q410 266 434 355 Q449 410 453 437 Q422 434 410 430 Q391 430 387 445 Q387 461 400.5 465 Q414 469 508 496 Q570 512 633 523 Q625 531 629 543 Q633 559 666 596 Q699 633 695 652.5 Q691 672 648 676 Q613 680 602 680 L594 668 Q574 637 555 598 ZM246 598 Q293 652 306.5 660 Q320 668 330 652.5 Q340 637 330 627 Q320 617 283 576 Q246 535 209 500 Q172 465 178 451 Q184 437 219 423.5 Q254 410 299 451 Q344 492 363.5 509.5 Q383 527 390.5 533 Q398 539 410 529.5 Q422 520 416 508 Q410 496 388.5 478.5 Q367 461 316.5 412 Q266 363 230.5 320 Q195 277 199 255.5 Q203 234 230.5 238 Q258 242 301 252 Q344 262 361.5 266 Q379 270 383 250 Q387 230 373 224.5 Q359 219 316 211 Q273 203 220.5 197 Q168 191 150.5 228.5 Q133 266 172 314.5 Q211 363 213 367 Q215 371 170 384.5 Q125 398 121 431.5 Q117 465 158 506 Q199 547 246 598 ZM742 352 Q777 363 802.5 402 Q828 441 810.5 472.5 Q793 504 699 492 Q672 488 645 484 L645 477 Q641 457 641 431.5 Q641 406 637 363 Q637 344 637 332 Q715 344 742 352 ZM594 441 Q594 461 594 477 Q559 469 520 457 Q512 457 504 453 Q500 430 480 359 Q473 332 465 305 Q496 309 582 324 L590 324 Q590 344 594 371 Q598 406 594 441 ZM227 78 Q184 66 166 70 Q148 74 146.5 91.5 Q145 109 164.5 113 Q184 117 221 123 Q258 129 295 137 Q332 145 349.5 146.5 Q367 148 373 128.5 Q379 109 355.5 101.5 Q332 94 302.5 92 Q273 90 227 78 Z" /><glyph glyph-name="uni8005" unicode="&#x8005;" d="M352 230 Q348 250 348 262 Q340 250 332 238 Q242 102 230.5 98 Q219 94 205 98 Q191 102 191 119.5 Q191 137 293 273 Q352 355 422 445 Q223 437 207 437 Q191 437 183.5 449 Q176 461 185.5 472.5 Q195 484 209 484 Q223 484 430 492 L457 492 Q492 539 531 586 Q664 762 679.5 762 Q695 762 707 750 Q719 738 703 724.5 Q687 711 555 543 Q535 520 512 492 Q641 500 652 500 Q668 504 679.5 492 Q691 480 683.5 466.5 Q676 453 658.5 453 Q641 453 477 445 Q434 387 391 332 Q395 324 395 301 Q414 309 445 320 Q508 348 605.5 359.5 Q703 371 757.5 340 Q812 309 812 248 Q812 187 765.5 99.5 Q719 12 689.5 4 Q660 -4 595.5 -10 Q531 -16 482.5 -18 Q434 -20 418 -18 Q402 -16 398.5 0 Q395 16 379 82 Q363 148 352 230 ZM418 98 Q434 39 439.5 29.5 Q445 20 494 23.5 Q543 27 597.5 35 Q652 43 669.5 49 Q687 55 724.5 119.5 Q762 184 766 232.5 Q770 281 721 300.5 Q672 320 599.5 312.5 Q527 305 461 277 Q418 262 398 254 L398 242 Q406 160 418 98 ZM340 629 Q293 629 279.5 631 Q266 633 266 656.5 Q266 680 281 680 L371 680 Q371 730 375 748 Q379 766 398.5 764 Q418 762 418 742 L418 680 Q437 680 461 680 Q520 684 537.5 684 Q555 684 553 658.5 Q551 633 531 633 L418 633 Q422 586 430 570 Q437 547 435.5 527.5 Q434 508 420 504 Q406 500 398.5 508 Q391 516 383 562 Q375 594 371 629 Q355 629 340 629 ZM512 148 Q457 137 439.5 141 Q422 145 420 162.5 Q418 180 437.5 183.5 Q457 187 506 195 Q555 203 600 213 Q645 223 662.5 225 Q680 227 687.5 207 Q695 187 670 179.5 Q645 172 607.5 168 Q570 164 512 148 Z" /><glyph glyph-name="uni8017" unicode="&#x8017;" d="M566 266 Q492 238 476.5 242 Q461 246 459 261.5 Q457 277 474.5 281 Q492 285 562 309 Q566 309 574 312 Q586 383 590 453 L586 453 Q535 457 523.5 457 Q512 457 514 480.5 Q516 504 531.5 502 Q547 500 590 500 L594 500 Q605 613 605 629 Q602 633 598 633 Q559 645 547 645 Q535 645 537 668 Q539 691 554.5 689 Q570 687 605.5 679.5 Q641 672 685.5 662 Q730 652 744 648.5 Q758 645 754 623.5 Q750 602 734.5 603.5 Q719 605 680 613 Q664 617 648 621 Q645 598 637 500 Q660 500 687 500 Q738 504 752 500 Q766 496 762 474.5 Q758 453 742.5 455 Q727 457 680 453 Q660 453 633 453 Q629 391 621 328 Q660 340 695 348 Q762 367 777.5 369 Q793 371 799 353.5 Q805 336 783.5 328 Q762 320 703 309 Q664 301 613 285 Q613 270 609 254 Q594 133 635 92 Q676 51 748 53 Q820 55 851.5 58.5 Q883 62 883 39 Q883 16 853.5 12 Q824 8 740 6 Q656 4 601.5 58.5 Q547 113 566 238 L570 266 L566 266 ZM301 125 Q258 129 248 133 Q238 137 238 154.5 Q238 172 250 172 Q262 172 312 168 Q316 168 320 164 L320 191 Q320 234 320 277 Q273 277 238 273 Q191 273 179.5 275 Q168 277 168 298.5 Q168 320 184 320 L246 320 Q277 320 316 320 Q316 367 312 414 Q293 410 277 410 Q250 410 240 412 Q230 414 230 433.5 Q230 453 242 453 L312 453 L309 500 Q305 523 305 543 L281 539 Q258 539 248 541 Q238 543 238 562.5 Q238 582 250 582 L301 582 Q297 676 301 685.5 Q305 695 320.5 695 Q336 695 340 680 Q340 672 348 582 Q367 586 381 586 Q395 586 393 564.5 Q391 543 375 543 L348 543 Q348 520 352 496 L352 453 Q375 457 388.5 457 Q402 457 400 435.5 Q398 414 383 414 L352 414 Q355 367 355 324 Q414 332 429.5 332 Q445 332 443 308.5 Q441 285 423.5 285 Q406 285 359 281 Q363 234 367 187 L367 160 L402 160 Q445 160 459 156 Q473 152 473 136.5 Q473 121 459 115 Q445 109 395 117 L367 121 Q375 47 375 31 Q375 8 355.5 6 Q336 4 328 27 Q324 47 320 125 L301 125 ZM148 176 Q152 219 160 224.5 Q168 230 179.5 226.5 Q191 223 193 209 Q195 195 189.5 162 Q184 129 191.5 88 Q199 47 197 35 Q195 23 181.5 23 Q168 23 162 35 Q156 47 150.5 92 Q145 137 148 176 Z" /><glyph glyph-name="uni8054" unicode="&#x8054;" d="M281 320 Q266 312 254 312 Q258 277 254 270 Q254 258 240.5 258 Q227 258 221 269.5 Q215 281 209 379 Q203 477 207 559 Q207 594 211 613 Q180 609 168 613 Q152 617 150 634.5 Q148 652 167.5 656 Q187 660 240 668 Q293 676 344 687.5 Q395 699 412.5 701 Q430 703 435.5 683.5 Q441 664 418 656 Q426 648 422 637 Q422 621 424 459 Q426 297 420 160 Q414 23 410 11.5 Q406 0 394.5 0 Q383 0 379 10 Q375 20 379 156 L379 164 Q359 160 320 156 Q277 156 211 145 Q145 137 127 141 Q109 145 107 162.5 Q105 180 125 183.5 Q145 187 203.5 191 Q262 195 312 203 Q363 211 383 211 Q387 328 383 461 Q379 625 383 645 Q367 645 352 641 Q309 637 250 621 Q254 605 246 543 Q246 527 246 512 Q258 512 271.5 508 Q285 504 316.5 498 Q348 492 361.5 488 Q375 484 371 462.5 Q367 441 351.5 443 Q336 445 310.5 451 Q285 457 266 461 Q254 465 246 465 Q246 426 250 375 Q250 367 250 359 Q266 363 273 367 Q289 371 302.5 381 Q316 391 334 393 Q352 395 357.5 375 Q363 355 339.5 347.5 Q316 340 310.5 336 Q305 332 281 320 ZM590 340 Q633 449 642.5 453 Q652 457 662 449 Q672 441 668 427.5 Q664 414 629 328 Q664 328 699 332 Q766 340 781.5 342 Q797 344 803 326.5 Q809 309 787.5 301 Q766 293 703 293 Q664 293 609 285 Q578 203 555 137 Q531 59 523.5 47 Q516 35 502 41 Q488 47 488 58.5 Q488 70 516 148 Q539 207 562 277 Q484 262 468.5 266 Q453 270 451 285.5 Q449 301 466.5 305 Q484 309 559 316 L582 320 Q586 328 590 340 ZM543 609 Q535 695 537 705 Q539 715 549 719 Q559 723 566.5 719 Q574 715 582 631 Q590 547 590 535 Q621 535 656 531 Q652 547 656 598 Q664 656 672 703 Q680 754 687.5 760 Q695 766 707 762 Q719 758 721 744 Q723 730 713 689 Q703 648 699 595.5 Q695 543 691 531 L703 531 Q766 531 777.5 527 Q789 523 787 503.5 Q785 484 771.5 486 Q758 488 701.5 490 Q645 492 570 492 Q500 496 490 496 Q480 496 480 517.5 Q480 539 492 535 Q504 535 551 535 Q547 555 543 609 ZM711 113 Q645 137 639 148.5 Q633 160 640.5 168 Q648 176 664 172 Q680 168 740.5 144.5 Q801 121 846 105.5 Q891 90 894.5 76 Q898 62 894.5 52.5 Q891 43 875 43 Q859 43 818 66.5 Q777 90 711 113 Z" /><glyph glyph-name="uni80DC" unicode="&#x80dc;" d="M254 559 L191 559 Q187 559 180 562 Q184 559 184 555 Q184 539 184 418 L184 414 Q199 414 223 410 Q250 406 269.5 402 Q289 398 287 380.5 Q285 363 270 363 L223 363 Q199 363 184 367 Q184 309 184 266 Q199 266 234.5 268 Q270 270 283.5 266 Q297 262 297 244.5 Q297 227 281 227 L238 227 Q211 227 187 223 Q180 223 176 219 Q172 164 168 148 Q168 133 156.5 129 Q145 125 137 133 Q129 141 137 230.5 Q145 320 141 430 Q141 543 144.5 558.5 Q148 574 164 570 L168 570 Q160 578 162 588 Q164 598 246 601.5 Q328 605 347.5 595.5 Q367 586 379 558.5 Q391 531 406.5 365 Q422 199 394.5 132.5 Q367 66 355.5 46.5 Q344 27 322.5 31 Q301 35 297 47 Q293 59 306.5 60.5 Q320 62 332 85.5 Q344 109 359.5 160 Q375 211 359.5 379 Q344 547 330 554.5 Q316 562 254 559 ZM523 527 Q523 547 541 553 Q559 559 594 566 Q617 570 652 574 Q652 586 652 598 Q648 719 648 736.5 Q648 754 664 754 Q680 754 683.5 742 Q687 730 691 594 L691 578 L699 578 Q770 586 787.5 582 Q805 578 805 556.5 Q805 535 789 533 Q773 531 711 527 L695 527 Q699 437 703 340 Q766 352 781.5 348 Q797 344 797 326.5 Q797 309 781.5 307 Q766 305 711 297 Q719 164 709 154.5 Q699 145 687.5 148.5 Q676 152 672 164 Q668 176 664 293 Q633 285 605 273 Q559 258 547 262 Q535 266 535 281.5 Q535 297 548.5 303 Q562 309 602 320 Q629 328 664 336 Q660 437 656 523 Q625 520 598 512 Q547 500 535 504 Q523 508 523 527 ZM473 31 Q473 47 486.5 53 Q500 59 568.5 68.5 Q637 78 742.5 84 Q848 90 863.5 86 Q879 82 879 64.5 Q879 47 863.5 45 Q848 43 748 41 Q648 39 572 23.5 Q496 8 484.5 12 Q473 16 473 31 ZM473 539 Q496 648 502 658 Q508 668 523.5 666 Q539 664 539 648.5 Q539 633 513.5 529.5 Q488 426 478.5 369 Q469 312 457 306.5 Q445 301 435.5 308.5 Q426 316 426 334 Q426 352 437.5 393 Q449 434 473 539 Z" /><glyph glyph-name="uni82E5" unicode="&#x82e5;" d="M391 430 L395 434 Q293 434 281 434 Q270 434 264 443.5 Q258 453 265.5 463 Q273 473 285 473 Q293 473 418 477 Q465 547 476.5 556.5 Q488 566 502 560.5 Q516 555 512 539 Q508 531 473 477 Q492 480 512 480 Q730 488 744 490 Q758 492 767.5 482.5 Q777 473 771.5 461 Q766 449 750 449 Q734 449 516 441 Q477 437 445 437 Q434 426 426 410 Q383 348 336 285 Q336 281 340 273 Q348 254 357.5 195.5 Q367 137 384.5 72.5 Q402 8 402 -7.5 Q402 -23 386.5 -27 Q371 -31 365 -13.5 Q359 4 343.5 72.5 Q328 141 312 195 Q305 223 301 242 Q270 203 238 164 Q133 39 119 39 Q105 39 99.5 47 Q94 55 98 64.5 Q102 74 209 195 Q316 316 391 430 ZM617 625 L617 629 Q520 621 410 609 Q414 594 422 578 Q434 555 430 537.5 Q426 520 418 516 Q410 512 396.5 516 Q383 520 375 559 L363 605 Q262 598 246 602 Q230 605 228.5 623 Q227 641 246 645 Q262 648 355 652 Q352 684 352 695 Q352 715 371.5 717 Q391 719 393 705 Q395 691 398 656 Q512 664 621 672 Q625 719 633 727 Q641 738 654.5 732.5 Q668 727 664 711 Q664 703 660 680 Q746 687 763.5 689 Q781 691 787 671.5 Q793 652 769.5 644.5 Q746 637 660 629 Q656 621 656 613 Q652 527 642.5 513.5 Q633 500 619 506 Q605 512 607 525.5 Q609 539 617 625 ZM535 23 Q449 20 435.5 23.5 Q422 27 420 41 Q418 55 433.5 58.5 Q449 62 531 59 Q598 59 656 59 L656 62 Q664 74 689.5 113 Q715 152 722.5 181.5 Q730 211 724.5 238.5 Q719 266 666 281.5 Q613 297 527 270 Q445 242 423.5 236 Q402 230 394.5 244 Q387 258 414 273.5 Q441 289 535 314.5 Q629 340 695.5 318.5 Q762 297 767.5 248 Q773 199 761.5 164 Q750 129 727 86 Q723 74 715 66 Q766 70 779.5 72 Q793 74 799 58.5 Q805 43 785.5 35 Q766 27 695.5 27 Q625 27 535 23 Z" /><glyph glyph-name="uni83B7" unicode="&#x83b7;" d="M223 305 Q184 258 174 250 Q164 242 154.5 252 Q145 262 146.5 271.5 Q148 281 191 328 Q215 352 234 379 Q164 395 144.5 395 Q125 395 125 418 Q125 441 144.5 441 Q164 441 254 418 L270 414 L277 422 Q324 469 336 478.5 Q348 488 357.5 476.5 Q367 465 359.5 453 Q352 441 305 398 Q359 371 383 316 Q422 242 412 162 Q402 82 369 37 Q336 -8 324 -19.5 Q312 -31 294.5 -13.5 Q277 4 293 15.5 Q309 27 338 66 Q367 105 371 176 Q371 211 367 242 Q355 230 332 215 Q297 187 266 152 Q234 121 224.5 113 Q215 105 205 115 Q195 125 197 135 Q199 145 234 176 L305 238 Q340 270 352 277 L352 281 Q348 293 340 309 Q312 348 273 367 Q246 336 223 305 ZM547 301 Q457 285 441.5 289 Q426 293 424 308.5 Q422 324 439.5 328 Q457 332 539 344 Q562 348 586 348 Q602 453 613.5 465 Q625 477 642.5 469 Q660 461 656 445.5 Q652 430 633 355 Q668 359 699 367 Q773 379 789 381 Q805 383 810.5 365.5 Q816 348 794.5 340 Q773 332 703 324 Q668 320 625 316 Q602 207 570 94 Q543 -23 527.5 -25 Q512 -27 504 -17.5 Q496 -8 502 4 Q508 16 539 125 Q562 219 578 305 Q562 305 547 301 ZM371 660 Q363 699 363 714.5 Q363 730 380.5 732 Q398 734 400 720.5 Q402 707 410 668 L414 645 Q488 648 562 656 Q570 711 578 720.5 Q586 730 599.5 726.5 Q613 723 611 709 Q609 695 605 656 Q672 664 684 664 Q699 668 705 650.5 Q711 633 687 625 Q672 617 602 613 Q594 578 586 566 Q578 555 564.5 560.5 Q551 566 551 578 Q555 586 555 613 Q496 613 426 605 L430 605 Q441 582 437.5 566.5 Q434 551 426 547 Q418 543 406.5 547 Q395 551 387 586 L383 602 Q371 602 363 602 Q246 590 230.5 594 Q215 598 213 613.5 Q211 629 228.5 633 Q246 637 355 641 L371 641 Q371 652 371 660 ZM676 102 Q637 145 627 158.5 Q617 172 627 183.5 Q637 195 650.5 189.5 Q664 184 703 141 Q742 98 785 66.5 Q828 35 830 19.5 Q832 4 820.5 -8 Q809 -20 793 -8 Q777 4 748 33 Q719 62 676 102 ZM773 441 Q758 465 742.5 472.5 Q727 480 732.5 501.5 Q738 523 757.5 517.5 Q777 512 796.5 488.5 Q816 465 832 457 Q848 449 838 425.5 Q828 402 810.5 410 Q793 418 773 441 Z" /><glyph glyph-name="uni884C" unicode="&#x884c;" d="M652 332 Q637 391 633 418 Q590 410 539 398 Q434 375 416 379 Q398 383 396.5 400.5 Q395 418 414 422 L531 445 Q629 465 717 480.5 Q805 496 822.5 498 Q840 500 846 480.5 Q852 461 828.5 453 Q805 445 723 434 Q703 434 676 430 L680 426 Q684 406 697.5 347.5 Q711 289 719 217 Q727 145 727 100 Q727 55 691.5 21.5 Q656 -12 632.5 -21.5 Q609 -31 599.5 -7.5 Q590 16 605.5 21.5 Q621 27 650.5 48.5 Q680 70 682 105.5 Q684 141 676 205.5 Q668 270 652 332 ZM289 355 Q289 367 285 375 Q207 309 199 301 Q191 293 179.5 301 Q168 309 176 322.5 Q184 336 287.5 429.5 Q391 523 402.5 529 Q414 535 424 521.5 Q434 508 420 494 Q406 480 324 406 L324 402 Q328 391 332 342 Q336 293 345.5 232.5 Q355 172 353.5 160 Q352 148 338 148 Q324 148 318 160 Q312 172 304.5 236.5 Q297 301 289 355 ZM238 535 Q164 473 154.5 465 Q145 457 133 465 Q121 473 129 486.5 Q137 500 217 572.5 Q297 645 308.5 650.5 Q320 656 330 642.5 Q340 629 326 615.5 Q312 602 238 535 ZM547 602 Q496 605 484.5 605 Q473 605 475 626.5 Q477 648 490.5 646.5 Q504 645 551 643 Q598 641 646.5 639 Q695 637 709 633 Q723 629 719 609.5 Q715 590 701 592 Q687 594 642.5 596 Q598 598 547 602 Z" /><glyph glyph-name="uni8981" unicode="&#x8981;" d="M594 70 L594 66 Q629 70 641 74 Q656 82 662 62.5 Q668 43 654.5 37 Q641 31 574 23 Q559 -16 547 -23 Q535 -31 523.5 -23.5 Q512 -16 520 0 Q520 4 523 16 Q457 16 402 35 Q336 62 336 113 Q336 137 344 160 Q195 152 184 152 Q168 152 162 164 Q156 176 164 185.5 Q172 195 184 195 Q195 195 367 203 Q375 215 387 227 Q434 289 457 324 L461 328 Q426 324 395 320 Q332 312 322 314 Q312 316 312 335.5 Q312 355 326 355 Q340 355 402.5 363 Q465 371 535 377 Q605 383 619 383 Q633 383 631 361.5 Q629 340 613.5 340 Q598 340 527 336 L516 336 L516 332 Q504 324 476.5 289 Q449 254 418 207 Q445 211 480 211 Q762 230 777.5 230 Q793 230 802.5 220.5 Q812 211 804.5 199 Q797 187 781 187 Q770 187 645 176 L641 172 Q629 156 594 70 ZM543 512 Q547 523 547 535 Q492 535 437 520 Q437 492 441 461 Q449 418 447 406.5 Q445 395 431.5 395 Q418 395 412 406.5 Q406 418 402 465 Q398 484 398 504 Q316 469 304.5 465 Q293 461 285 470.5 Q277 480 287 494 Q297 508 398 539 L398 551 Q402 590 410 596 Q418 602 429.5 598 Q441 594 441 578 Q445 570 441 555 Q500 566 555 570 Q570 613 574 617 Q582 629 592 625 Q602 621 602 605 Q602 602 598 570 Q687 570 724.5 541 Q762 512 762 451.5 Q762 391 726.5 371.5 Q691 352 677.5 342 Q664 332 652.5 342 Q641 352 644.5 361.5 Q648 371 683.5 390.5 Q719 410 715 457 Q711 504 687 516 Q668 527 590 535 Q586 516 582 492 Q562 391 552.5 387 Q543 383 535 387 Q527 391 525 402.5 Q523 414 543 512 ZM480 168 Q430 164 395 160 Q387 141 383 129 Q379 98 426 78 Q473 59 543 62 Q555 82 566 113 Q582 152 594 172 Q543 172 480 168 ZM410 656 Q363 656 349.5 658 Q336 660 336 683.5 Q336 707 352 707 L418 707 Q469 707 523.5 709 Q578 711 595.5 711 Q613 711 611 685.5 Q609 660 590 660 L512 660 Q457 660 410 656 ZM195 477 Q184 520 185.5 537.5 Q187 555 201 558.5 Q215 562 221 542.5 Q227 523 236.5 486 Q246 449 261.5 410 Q277 371 283 353.5 Q289 336 275.5 324 Q262 312 252 324 Q242 336 226.5 385 Q211 434 195 477 Z" /><glyph glyph-name="uni8A00" unicode="&#x8a00;" d="M477 4 Q414 4 400.5 6 Q387 8 387 31.5 Q387 55 402 55 L488 55 Q555 55 629 55 L664 55 Q668 59 672 62 Q687 82 701 123 Q715 164 705 191.5 Q695 219 658 238.5 Q621 258 508 223 Q398 187 380.5 181.5 Q363 176 357.5 191.5 Q352 207 365.5 218.5 Q379 230 506 265.5 Q633 301 680 279.5 Q727 258 744.5 226.5 Q762 195 758 166 Q754 137 723 82 Q715 66 711 59 L723 59 Q742 59 740 33.5 Q738 8 719 8 L621 8 Q543 8 477 4 ZM410 543 Q312 520 296.5 521.5 Q281 523 277 541 Q273 559 289 564.5 Q305 570 404.5 589.5 Q504 609 607.5 615 Q711 621 717 601.5 Q723 582 715 572 Q707 562 691.5 564 Q676 566 592 568 Q508 570 410 543 ZM457 328 Q391 332 379 332 Q367 332 369 357.5 Q371 383 388.5 381 Q406 379 466.5 377 Q527 375 589.5 375 Q652 375 666 371 Q680 367 676 343.5 Q672 320 654.5 322 Q637 324 582 324 Q527 324 457 328 ZM449 426 Q375 434 363.5 434 Q352 434 353.5 455.5 Q355 477 369 475 Q383 473 453 469 Q523 465 585.5 463 Q648 461 662 457 Q676 453 672 433.5 Q668 414 654.5 416 Q641 418 582 420 Q523 422 449 426 ZM258 164 Q246 207 244 228.5 Q242 250 261.5 254 Q281 258 289 234.5 Q297 211 306.5 164 Q316 117 328 66.5 Q340 16 344 -2 Q348 -20 330 -23.5 Q312 -27 306.5 -9.5 Q301 8 287 64.5 Q273 121 258 164 ZM492 660 Q449 691 441.5 701 Q434 711 441.5 719 Q449 727 463 725 Q477 723 525.5 693.5 Q574 664 578 648.5 Q582 633 572 627 Q562 621 550.5 625 Q539 629 492 660 Z" /><glyph glyph-name="uni8BA4" unicode="&#x8ba4;" d="M328 594 Q301 598 287 605.5 Q273 613 277 630.5 Q281 648 298.5 644.5 Q316 641 345.5 639 Q375 637 390.5 635 Q406 633 400.5 609.5 Q395 586 377 588 Q359 590 328 594 ZM215 383 Q156 375 138.5 369 Q121 363 117 382.5 Q113 402 127 408 Q141 414 217 425.5 Q293 437 320.5 419.5 Q348 402 365.5 371 Q383 340 359.5 283.5 Q336 227 316.5 189.5 Q297 152 297 123 Q297 94 324.5 96 Q352 98 369.5 103.5 Q387 109 391 87.5 Q395 66 379 56.5 Q363 47 316.5 49 Q270 51 258 96 Q246 141 267.5 189.5 Q289 238 312.5 289 Q336 340 322.5 361.5 Q309 383 291 387 Q273 391 215 383 ZM512 160 Q477 35 469 27.5 Q461 20 445.5 23.5 Q430 27 433.5 50.5 Q437 74 480 201 Q523 328 585.5 507.5 Q648 687 666 697 Q684 707 693.5 697 Q703 687 693.5 667.5 Q684 648 617.5 468.5 Q551 289 512 160 ZM668 203 Q602 281 588 293 Q574 305 580 316.5 Q586 328 605.5 324 Q625 320 693.5 242 Q762 164 824.5 101.5 Q887 39 891 27.5 Q895 16 887 4 Q879 -8 861.5 -2 Q844 4 791 66.5 Q738 129 668 203 Z" /><glyph glyph-name="uni8BB0" unicode="&#x8bb0;" d="M496 625 Q492 641 506 646.5 Q520 652 576.5 666 Q633 680 681.5 674 Q730 668 759.5 625 Q789 582 777.5 527.5 Q766 473 744.5 439.5 Q723 406 674 382.5 Q625 359 584 355.5 Q543 352 531.5 344 Q520 336 494.5 258 Q469 180 474.5 123 Q480 66 576 58.5 Q672 51 734.5 49 Q797 47 818.5 64.5 Q840 82 855.5 64.5 Q871 47 857.5 29.5 Q844 12 754 4 Q664 -4 552.5 13.5 Q441 31 431.5 107.5 Q422 184 449.5 254 Q477 324 477 332 Q477 340 467 347.5 Q457 355 453 365 Q449 375 472.5 381 Q496 387 502 396.5 Q508 406 519.5 406 Q531 406 535 398.5 Q539 391 578 396.5 Q617 402 656 423.5 Q695 445 707 470.5 Q719 496 728.5 535 Q738 574 720.5 599.5 Q703 625 672 631 Q641 637 582 623 Q523 609 511.5 609 Q500 609 496 625 ZM293 562 Q270 566 256 574 Q242 582 246 599.5 Q250 617 267.5 613 Q285 609 308.5 607 Q332 605 347.5 603.5 Q363 602 357.5 578.5 Q352 555 334 557 Q316 559 293 562 ZM187 363 Q137 355 119.5 349.5 Q102 344 98 363.5 Q94 383 107.5 389 Q121 395 189.5 406.5 Q258 418 283.5 400.5 Q309 383 324.5 353.5 Q340 324 320.5 269.5 Q301 215 283.5 180 Q266 145 266 117.5 Q266 90 287.5 92 Q309 94 326.5 99.5 Q344 105 348 83.5 Q352 62 336 52.5 Q320 43 279 45 Q238 47 226.5 90 Q215 133 234.5 180 Q254 227 273.5 275.5 Q293 324 281.5 343.5 Q270 363 254 367 Q238 371 187 363 Z" /><glyph glyph-name="uni8BF7" unicode="&#x8bf7;" d="M547 94 L504 94 Q508 55 508 47 Q508 31 492.5 27 Q477 23 471 41 Q465 59 463 129 Q461 199 453 250 Q445 305 443 324.5 Q441 344 459 346 Q477 348 484 328 L484 324 Q488 328 496 332 Q516 344 631 361.5 Q746 379 795 361.5 Q844 344 857.5 273.5 Q871 203 838 115 Q805 27 781.5 -8 Q758 -43 750 -47 Q742 -51 732.5 -47 Q723 -43 723 -31.5 Q723 -20 742.5 9.5 Q762 39 791 123 Q820 207 814.5 256 Q809 305 777.5 318.5 Q746 332 633 316.5 Q520 301 504 297 Q496 297 488 301 Q492 281 496 250 L496 242 L543 242 Q586 242 636.5 244 Q687 246 701 246 Q715 246 713 224.5 Q711 203 695 203 L629 203 Q582 203 535 199 L496 199 Q500 168 500 137 L555 137 Q594 137 640.5 139 Q687 141 701 141 Q715 141 713 119.5 Q711 98 695 98 L633 98 Q590 98 547 94 ZM543 539 Q504 539 494 541 Q484 543 484 562.5 Q484 582 496 582 L586 582 L586 641 Q566 637 551 637 Q516 633 506 635 Q496 637 496 652.5 Q496 668 508 672 Q520 676 547 676 Q562 680 586 676 Q586 734 592 750 Q598 766 611.5 764 Q625 762 625 746 Q629 738 625 680 L629 680 Q680 684 693.5 680 Q707 676 707 660.5 Q707 645 693.5 643 Q680 641 633 641 L625 641 L625 582 L633 582 Q680 586 693.5 586 Q707 586 705 564.5 Q703 543 687 543 L629 543 Q633 504 633 488 Q633 477 625 469 Q680 480 730 492 Q812 512 828 514 Q844 516 849.5 498 Q855 480 833.5 472.5 Q812 465 736 453 Q660 441 562 410 Q469 383 453 387 Q437 391 435.5 406.5 Q434 422 451.5 426 Q469 430 559 453 Q582 457 605 465 Q602 469 598 473 Q586 484 586 539 L586 543 L543 539 ZM199 383 Q148 375 130.5 369 Q113 363 109 382.5 Q105 402 119 408 Q133 414 201.5 425.5 Q270 437 295 419.5 Q320 402 336 373 Q352 344 332 291 Q312 238 294.5 205 Q277 172 277 144.5 Q277 117 298.5 119 Q320 121 337.5 127 Q355 133 359 111.5 Q363 90 347.5 80 Q332 70 291 72 Q250 74 238.5 117 Q227 160 246.5 205 Q266 250 285.5 297 Q305 344 293 363.5 Q281 383 265.5 387 Q250 391 199 383 ZM305 586 Q281 590 267.5 597.5 Q254 605 258 623 Q262 641 279.5 637 Q297 633 320.5 631 Q344 629 359.5 627 Q375 625 369 601.5 Q363 578 345.5 580 Q328 582 305 586 Z" /><glyph glyph-name="uni8D62" unicode="&#x8d62;" d="M297 363 Q285 402 287 421.5 Q289 441 312.5 451 Q336 461 406.5 470.5 Q477 480 562.5 482 Q648 484 685.5 476.5 Q723 469 734.5 437.5 Q746 406 720.5 377 Q695 348 664 340 Q633 332 556.5 326 Q480 320 416 314.5 Q352 309 332 316.5 Q312 324 297 363 ZM316 590 Q332 613 340 629 Q254 621 238 625 Q223 629 221 646.5 Q219 664 238.5 668 Q258 672 361.5 678 Q465 684 558.5 691.5 Q652 699 669.5 701 Q687 703 693 683.5 Q699 664 675.5 656 Q652 648 566 645 Q496 645 410 637 Q402 625 378.5 607.5 Q355 590 341.5 560.5 Q328 531 400.5 541 Q473 551 576.5 556.5 Q680 562 705 566 Q730 570 732 545 Q734 520 718.5 516 Q703 512 593.5 508 Q484 504 406 494 Q328 484 302.5 505.5 Q277 527 316 590 ZM668 148 Q664 152 660 156 Q660 133 664 113 Q672 78 668 58.5 Q664 39 644.5 43 Q625 47 627 66.5 Q629 86 625 119 Q621 152 621 191 Q621 234 623 250 Q625 266 642.5 268 Q660 270 660 258 L660 250 Q684 266 703 273 Q727 285 750 279 Q773 273 775 240 Q777 207 767.5 156 Q758 105 767.5 91.5 Q777 78 796.5 74 Q816 70 826 78 Q836 86 844 97.5 Q852 109 871.5 97.5 Q891 86 883 64.5 Q875 43 853.5 31.5 Q832 20 789 25.5 Q746 31 726.5 58.5 Q707 86 719 137 L719 141 L715 137 Q711 133 697.5 133 Q684 133 668 148 ZM273 223 Q250 211 246 211 L246 187 Q258 184 262 184 Q273 180 292.5 176 Q312 172 310.5 154.5 Q309 137 293 137 L262 137 Q254 137 246 141 L246 129 L266 129 Q289 129 304.5 125 Q320 121 320 103.5 Q320 86 304.5 84 Q289 82 271.5 86 Q254 90 238 86 L234 82 L234 74 Q234 55 220.5 51 Q207 47 199 54.5 Q191 62 197 97.5 Q203 133 199 172 Q199 215 203 230 Q207 246 219 246 Q230 254 262 266 Q312 281 332 269.5 Q352 258 363.5 230.5 Q375 203 383 146.5 Q391 90 371.5 60.5 Q352 31 346 25.5 Q340 20 318.5 23.5 Q297 27 293 39 Q289 51 302.5 53 Q316 55 322 64.5 Q328 74 336 88 Q344 102 336 160.5 Q328 219 314.5 226.5 Q301 234 273 223 ZM488 59 Q477 59 469 62 Q469 51 465 43 Q457 8 449 0 Q441 -8 425.5 -4 Q410 0 414 23.5 Q418 47 434 82 L434 86 L430 86 Q418 86 412 97.5 Q406 109 404 150 Q402 191 402 226.5 Q402 262 410 267.5 Q418 273 429.5 269.5 Q441 266 443 252 Q445 238 443 211 Q441 184 445 145 Q445 129 445 121 Q453 141 457 164 Q465 211 482.5 220.5 Q500 230 510 220.5 Q520 211 510 191.5 Q500 172 488 125 Q484 113 480 98 L492 98 Q512 98 543 96 Q574 94 588 90 Q602 86 598 66.5 Q594 47 580 49 Q566 51 539 53 Q512 55 488 59 ZM410 426 Q344 422 340 410 Q336 398 344 380.5 Q352 363 361.5 357.5 Q371 352 427.5 359.5 Q484 367 558.5 373 Q633 379 646.5 383 Q660 387 675.5 398.5 Q691 410 683.5 422 Q676 434 652.5 435.5 Q629 437 554.5 435.5 Q480 434 410 426 ZM480 242 Q465 234 453 242 Q441 250 443 261.5 Q445 273 455 279 Q465 285 486.5 291 Q508 297 543 291 Q578 285 590 248 Q602 211 588 181.5 Q574 152 560.5 128.5 Q547 105 533.5 103.5 Q520 102 512 115.5 Q504 129 512 141 L523 156 Q527 164 543 183.5 Q559 203 547 230.5 Q535 258 517.5 254 Q500 250 480 242 ZM480 715 Q453 730 449 744 Q445 758 451 764 Q457 770 470.5 770 Q484 770 513.5 756 Q543 742 547 726.5 Q551 711 541 703 Q531 695 519.5 697 Q508 699 480 715 ZM660 191 Q664 195 672 193 Q680 191 703 180 Q723 172 723 164 Q730 195 730 203 Q730 219 724.5 226.5 Q719 234 703 227 L660 215 L660 191 Z" /><glyph glyph-name="uni8D70" unicode="&#x8d70;" d="M437 602 Q437 668 441 685.5 Q445 703 464.5 701 Q484 699 484 681.5 Q484 664 484 590 L484 582 Q520 582 531 582 Q555 578 553 556.5 Q551 535 527 535 Q512 535 484 531 L484 484 Q484 457 480 437 L480 434 Q523 437 566 437 Q672 445 678 425.5 Q684 406 676 396.5 Q668 387 652.5 389 Q637 391 551 391 Q512 391 473 391 Q477 387 477 379 Q477 363 477 289 L477 266 Q500 270 555 273 Q637 281 658.5 277 Q680 273 678 253.5 Q676 234 654.5 234 Q633 234 559 227 Q500 219 477 223 Q480 203 480 191 Q480 164 478.5 144.5 Q477 125 463 121 Q449 117 441.5 125 Q434 133 434 185.5 Q434 238 430 301 Q430 367 434 383 L434 387 Q398 383 363 379 Q266 367 250 369 Q234 371 230.5 388.5 Q227 406 242.5 412 Q258 418 359 426 Q398 430 437 430 Q437 445 437 480 L437 523 Q383 523 367 527 Q348 535 348 552.5 Q348 570 359.5 574 Q371 578 437 582 Q437 590 437 602 ZM352 66 Q277 74 246 82 Q234 -4 227 -8 Q219 -12 207 -8 Q195 -4 193 11.5 Q191 27 207 152 Q227 277 234.5 287 Q242 297 256 293 Q270 289 270 271.5 Q270 254 254 129 Q285 125 367 113 Q484 94 625 78 Q766 62 785.5 54.5 Q805 47 799 25.5 Q793 4 765.5 8 Q738 12 603.5 31.5 Q469 51 352 66 Z" /><glyph glyph-name="uni8F93" unicode="&#x8f93;" d="M246 152 Q191 137 173.5 141 Q156 145 154 162.5 Q152 180 171.5 183.5 Q191 187 238 199 Q277 207 312 215 Q312 254 309 297 Q301 297 289 293 Q199 281 170 326 Q141 371 156 430 Q172 484 203 562 L199 562 Q137 551 119.5 555 Q102 559 100 576.5 Q98 594 117.5 598 Q137 602 191 605 Q207 609 223 609 Q246 672 250 684 Q258 703 277.5 699 Q297 695 293 676 Q289 660 273 613 Q289 617 305 621 Q359 629 377 631 Q395 633 400.5 613.5 Q406 594 383 586 Q367 582 348 578 L348 574 Q348 562 348 402 L348 352 Q383 359 395 363 Q414 371 418 347.5 Q422 324 402 316 Q391 309 348 301 Q352 262 352 227 Q387 234 398 234 Q418 238 424 218.5 Q430 199 406 191 Q387 184 355 180 Q355 156 355 141 Q363 39 361 23.5 Q359 8 349.5 4 Q340 0 332 8 Q324 16 316 137 Q316 152 316 172 Q285 164 246 152 ZM719 648 Q687 656 668 668 Q652 656 594 598 Q547 555 516 527 Q543 531 594 535 Q672 547 740.5 556.5 Q809 566 826.5 568 Q844 570 849.5 550.5 Q855 531 832 523.5 Q809 516 748 512 Q687 508 602 492 Q520 477 500 480 Q488 480 484 492 Q465 469 457 465 Q445 461 437.5 465 Q430 469 430 480.5 Q430 492 469 529 Q508 566 570 629 Q637 695 652 703 L656 707 Q668 723 685.5 711 Q703 699 748 681.5 Q793 664 847.5 631 Q902 598 908 582 Q914 566 904.5 554.5 Q895 543 879 552.5 Q863 562 810.5 601.5 Q758 641 719 648 ZM574 391 Q539 379 525.5 377 Q512 375 504 388.5 Q496 402 515.5 414 Q535 426 578 435.5 Q621 445 666 427.5 Q711 410 728.5 353.5 Q746 297 724.5 217 Q703 137 683.5 94 Q664 51 656 47 Q648 43 636.5 47 Q625 51 625 62.5 Q625 74 642.5 109.5 Q660 145 677.5 219 Q695 293 687.5 332 Q680 371 646.5 386.5 Q613 402 574 391 ZM859 363 Q855 418 851.5 441.5 Q848 465 869.5 469 Q891 473 896.5 451.5 Q902 430 908 379 Q914 328 918 226.5 Q922 125 906.5 92 Q891 59 859.5 31.5 Q828 4 802.5 6 Q777 8 779 33.5 Q781 59 798.5 57 Q816 55 837.5 78.5 Q859 102 867 117.5 Q875 133 871 222.5 Q867 312 859 363 ZM309 414 Q309 555 309 574 Q285 574 258 570 Q258 566 254 562 Q223 473 207 432 Q191 391 210.5 359.5 Q230 328 305 344 L309 344 L309 414 ZM527 125 Q504 117 488 117 Q492 90 492 82 Q492 70 476.5 66 Q461 62 455 78 Q449 94 447 172 Q445 250 437.5 312.5 Q430 375 430 392.5 Q430 410 445.5 414 Q461 418 469 398.5 Q477 379 480.5 312.5 Q484 246 488 172 L488 156 Q504 160 535 164 Q582 176 586 180 Q590 184 605.5 182 Q621 180 623 170 Q625 160 621 150.5 Q617 141 597.5 139 Q578 137 527 125 ZM766 293 Q762 328 766 340 Q770 352 785.5 353.5 Q801 355 805 341.5 Q809 328 809 297 L809 234 Q809 207 805 197 Q801 187 791 183.5 Q781 180 773.5 185.5 Q766 191 769.5 226.5 Q773 262 766 293 ZM570 242 Q520 246 504 254 Q488 262 492 279.5 Q496 297 511.5 293 Q527 289 572 285 Q617 281 634.5 277 Q652 273 650 257.5 Q648 242 633 242 L570 242 Z" /><glyph glyph-name="uni8FD4" unicode="&#x8fd4;" d="M520 195 Q449 223 439.5 230.5 Q430 238 433.5 252 Q437 266 451 266 Q465 266 531 234 Q551 227 570 219 L605 266 Q645 324 652.5 379 Q660 434 609.5 437.5 Q559 441 508 422 Q457 406 439.5 402 Q422 398 414 414 Q406 430 416 441.5 Q426 453 484.5 470.5 Q543 488 627 480.5 Q711 473 705 394.5 Q699 316 660 258 Q645 230 617 199 Q652 187 687 176 Q777 148 793 140.5 Q809 133 803 115.5 Q797 98 773.5 101.5 Q750 105 668 137 Q629 156 590 168 Q574 152 559 137 Q492 74 474.5 66.5 Q457 59 449 80.5 Q441 102 457 109.5 Q473 117 520 164 L543 187 L520 195 ZM148 242 Q156 305 160 332 Q164 359 175.5 359 Q187 359 189 337.5 Q191 316 201 228.5 Q211 141 220.5 121.5 Q230 102 259.5 78.5 Q289 55 431.5 39 Q574 23 689.5 29 Q805 35 830 31 Q855 27 855 7.5 Q855 -12 841.5 -16 Q828 -20 687.5 -21.5 Q547 -23 420 -7.5 Q293 8 242 37 Q191 66 168 123 Q145 180 148 242 ZM328 461 Q328 609 332 627 Q336 645 355.5 643 Q375 641 375 623 Q375 605 377 451 Q379 297 369 203 Q359 109 357 89.5 Q355 70 341.5 66 Q328 62 320 70 Q312 78 322 197 Q332 316 328 461 ZM461 641 Q418 637 400.5 631 Q383 625 373 636.5 Q363 648 371 658 Q379 668 435.5 676 Q492 684 556.5 697.5 Q621 711 634.5 705 Q648 699 650 687.5 Q652 676 636.5 668 Q621 660 562.5 652.5 Q504 645 461 641 ZM160 539 Q145 551 135 558.5 Q125 566 129 578 Q133 590 146.5 588 Q160 586 173.5 576 Q187 566 199 564 Q211 562 207 544.5 Q203 527 189.5 527 Q176 527 160 539 Z" /><glyph glyph-name="uni8FD8" unicode="&#x8fd8;" d="M457 277 Q414 172 402.5 168 Q391 164 377 168 Q363 172 363 189.5 Q363 207 418 312 Q453 371 488 441 Q484 500 480 520 Q480 543 501.5 547 Q523 551 531 523 Q535 535 543 547 Q582 621 602 652 Q543 652 465 645 Q363 633 347.5 633 Q332 633 326 646.5 Q320 660 336 672 Q352 684 455.5 689.5 Q559 695 652.5 695 Q746 695 756 683.5 Q766 672 760 660 Q754 648 742 648 Q730 648 656 652 Q656 648 648 641 Q637 629 566 504 Q555 480 539 457 Q543 434 543 406 Q551 316 564.5 214.5 Q578 113 578 93.5 Q578 74 558.5 70 Q539 66 533 84 Q527 102 516 211 Q504 297 496 371 Q473 320 457 277 ZM148 324 Q137 348 135 361.5 Q133 375 144.5 381 Q156 387 171.5 375 Q187 363 199 324 Q211 285 220.5 201 Q230 117 238 107.5 Q246 98 277.5 68.5 Q309 39 441.5 31 Q574 23 685.5 29 Q797 35 820.5 31 Q844 27 840 3.5 Q836 -20 812.5 -18 Q789 -16 670 -18 Q551 -20 416 -14 Q281 -8 236 35 Q191 78 183.5 119 Q176 160 168 232.5 Q160 305 148 324 ZM625 355 Q594 371 580 379 Q566 387 570 404.5 Q574 422 591.5 422 Q609 422 642.5 404.5 Q676 387 721 375 Q766 363 785.5 355.5 Q805 348 799 326.5 Q793 305 765.5 308.5 Q738 312 699 328 Q660 344 625 355 ZM152 625 Q141 645 139 650.5 Q137 656 142.5 662 Q148 668 156 666 Q164 664 185.5 654.5 Q207 645 205 633 Q203 621 197 615 Q191 609 179.5 609 Q168 609 152 625 Z" /><glyph glyph-name="uni9009" unicode="&#x9009;" d="M395 156 Q375 98 363.5 90 Q352 82 340 92 Q328 102 330 115.5 Q332 129 355.5 185.5 Q379 242 402 297 L418 328 Q410 324 402 324 Q293 305 275.5 308.5 Q258 312 256 330 Q254 348 273.5 351.5 Q293 355 396.5 371 Q500 387 595.5 400.5 Q691 414 709 416 Q727 418 732.5 398.5 Q738 379 714.5 371 Q691 363 609 355 Q605 336 594 289 Q578 234 588 175.5 Q598 117 674 117 Q750 117 771.5 121 Q793 125 797 99.5 Q801 74 773.5 68 Q746 62 658 66 Q570 70 550.5 132.5 Q531 195 543 266 Q555 324 559 352 Q520 344 473 336 L473 332 L437 266 Q414 215 395 156 ZM141 266 Q148 328 152 355.5 Q156 383 168 383 Q180 383 182 361.5 Q184 340 193.5 244 Q203 148 213 128.5 Q223 109 252 85.5 Q281 62 423.5 41 Q566 20 681.5 27.5 Q797 35 822.5 31 Q848 27 848 7.5 Q848 -12 834 -16 Q820 -20 679.5 -23.5 Q539 -27 412 -5.5 Q285 16 234.5 45 Q184 74 160.5 138.5 Q137 203 141 266 ZM328 547 Q344 613 349.5 625 Q355 637 371 631 Q387 625 383 611.5 Q379 598 371 559 Q391 562 430 566 Q461 574 488 578 L488 648 Q492 711 500 717 Q508 723 523.5 719 Q539 715 541 697.5 Q543 680 539 625 Q535 605 535 586 Q586 598 599.5 600 Q613 602 619 586 Q625 570 605.5 562.5 Q586 555 539 551 L535 551 L539 512 Q547 449 545 433.5 Q543 418 525.5 418 Q508 418 502 433.5 Q496 449 492 520 Q492 531 488 543 Q465 539 434 531 Q387 520 367 516 Q359 469 355 457 Q348 441 332 443 Q316 445 316 464.5 Q316 484 328 547 ZM152 574 Q137 586 127 594 Q117 602 121 613.5 Q125 625 138.5 623 Q152 621 166 611.5 Q180 602 191.5 600 Q203 598 199 580 Q195 562 181.5 562 Q168 562 152 574 Z" /><glyph glyph-name="uni914D" unicode="&#x914d;" d="M316 539 Q328 566 336 585.5 Q344 605 363.5 595.5 Q383 586 375 568.5 Q367 551 352 516 Q348 500 344 477 L387 477 Q457 477 486.5 426 Q516 375 500 287 Q484 199 455 134.5 Q426 70 412 66 Q398 62 294.5 60.5 Q191 59 183.5 49 Q176 39 160.5 49 Q145 59 135 158.5 Q125 258 121 340 Q117 422 117 435.5 Q117 449 136.5 449 Q156 449 158 435.5 Q160 422 166 338 Q172 254 176 179.5 Q180 105 187.5 99.5 Q195 94 285 99.5 Q375 105 386.5 107 Q398 109 417.5 158 Q437 207 453 279.5 Q469 352 455 391 Q441 430 379 434 Q359 437 340 437 L340 426 Q344 371 353.5 347.5 Q363 324 386.5 314.5 Q410 305 427.5 301 Q445 297 439.5 273.5 Q434 250 416 254 Q398 258 363 273.5 Q328 289 316.5 322 Q305 355 305 434 L305 437 Q281 434 258 430 Q250 426 246 426 Q238 383 234 340 Q230 281 236 265.5 Q242 250 287 260 Q332 270 345.5 273.5 Q359 277 363 255.5 Q367 234 353.5 230.5 Q340 227 283.5 215 Q227 203 199.5 230.5 Q172 258 187 301 Q203 344 211 418 Q195 414 191 414 Q180 414 176 433.5 Q172 453 184 457 Q187 457 211 461 Q215 523 215 535 Q215 555 234.5 555 Q254 555 254 537.5 Q254 520 250 469 Q254 469 258 469 Q281 473 305 477 Q309 520 316 539 ZM582 613 Q578 633 593.5 639 Q609 645 652 656.5 Q695 668 736 664 Q777 660 802.5 617 Q828 574 818.5 523.5 Q809 473 791 441.5 Q773 410 730 400.5 Q687 391 656 385 Q625 379 613.5 371 Q602 363 588 283 Q574 203 576 154 Q578 105 652.5 89.5 Q727 74 783.5 103.5 Q840 133 863.5 150.5 Q887 168 902.5 148.5 Q918 129 904.5 111.5 Q891 94 805 55 Q719 16 627 41 Q535 66 529 138.5 Q523 211 539 281.5 Q555 352 555 359.5 Q555 367 543 375 Q531 383 527 394.5 Q523 406 548.5 412 Q574 418 580 427.5 Q586 437 599.5 437 Q613 437 617 429.5 Q621 422 650.5 429.5 Q680 437 711 445 Q742 453 750 476.5 Q758 500 765.5 533 Q773 566 759.5 589.5 Q746 613 726.5 617 Q707 621 660 609.5 Q613 598 599.5 598 Q586 598 582 613 ZM258 660 Q211 664 199 664 Q187 664 189 689.5 Q191 715 209 713 Q227 711 266 709 Q305 707 355.5 707 Q406 707 420 703 Q434 699 430 675.5 Q426 652 408.5 654 Q391 656 348 656 Q305 656 258 660 Z" /><glyph glyph-name="uni91CD" unicode="&#x91cd;" d="M375 -4 Q246 -20 230.5 -18 Q215 -16 211 2 Q207 20 222.5 25.5 Q238 31 371 39 Q406 39 437 39 L437 133 Q418 133 395 129 Q316 121 298.5 125 Q281 129 279 146.5 Q277 164 296.5 168 Q316 172 387 176 Q414 176 437 176 Q441 195 441 219 L441 254 Q434 250 426 250 Q336 246 314.5 244 Q293 242 273.5 256 Q254 270 232.5 359.5 Q211 449 207 463 Q203 477 220.5 480.5 Q238 484 242 470.5 Q246 457 267.5 383 Q289 309 297 297 Q305 285 318.5 285 Q332 285 414 289 L441 289 L441 344 Q410 340 383 340 Q324 340 314.5 342 Q305 344 305 363.5 Q305 383 316 383 L441 383 Q437 422 437 457 Q410 453 383 445 Q305 426 289 424 Q273 422 270 434 Q270 445 281.5 451 Q293 457 371 480 Q402 488 437 496 L434 527 Q434 539 430 551 Q383 543 328 535 Q207 516 191.5 519.5 Q176 523 174 539 Q172 555 189.5 558.5 Q207 562 320 578 Q375 586 430 590 Q426 664 426 676 Q391 676 359 672 Q309 664 297 668 Q285 672 285 687.5 Q285 703 298.5 709 Q312 715 357 717 Q402 719 474.5 723 Q547 727 562.5 723 Q578 719 578 701.5 Q578 684 562.5 682 Q547 680 480 680 L461 680 Q465 660 469 598 L539 605 Q645 617 660.5 619 Q676 621 681.5 603.5 Q687 586 666 578 Q645 570 547 562 Q512 562 469 559 Q473 543 473 523 Q473 512 477 500 Q508 504 539 504 Q629 508 666 498 Q703 488 718.5 445 Q734 402 689.5 345.5 Q645 289 627 269.5 Q609 250 562 254 Q531 254 484 254 L484 180 Q508 184 527 187 Q594 195 611.5 197 Q629 199 635 179.5 Q641 160 617.5 152.5 Q594 145 535 141 Q512 141 484 141 Q484 66 480 43 L633 51 Q766 59 771.5 39.5 Q777 20 769.5 10 Q762 0 746 2 Q730 4 619 6 Q508 8 375 -4 ZM480 383 Q496 383 512 383 Q578 387 591.5 387 Q605 387 603.5 365.5 Q602 344 586 344 L480 344 Q484 320 484 289 Q520 293 547 293 Q594 297 603.5 306.5 Q613 316 648.5 359 Q684 402 678 427.5 Q672 453 648.5 459 Q625 465 543 465 Q508 465 477 461 Q480 426 480 383 Z" /><glyph glyph-name="uni949F" unicode="&#x949f;" d="M633 617 Q637 637 656.5 635 Q676 633 676 613 L676 488 Q695 488 715 488 Q793 492 826 466.5 Q859 441 857 396.5 Q855 352 818 295 Q781 238 769.5 228.5 Q758 219 746 230.5 Q734 242 732 248 Q730 254 680 246 L680 129 Q680 20 678 0 Q676 -20 662 -23.5 Q648 -27 640.5 -19.5 Q633 -12 633 125 L633 238 Q605 234 574 227 Q523 219 507.5 221 Q492 223 480.5 244.5 Q469 266 453 355.5 Q437 445 437 457 Q437 469 451 471 Q465 473 469 465 Q469 461 477 434 Q492 441 559 461 Q594 473 629 480 Q629 605 633 617 ZM156 223 Q156 238 170 244 Q184 250 219 258 Q234 262 258 262 Q262 266 262 273 Q273 375 273 398 Q242 395 230.5 398.5 Q219 402 219 418 Q219 434 232.5 439.5 Q246 445 269.5 445 Q293 445 336 447 Q379 449 394.5 445 Q410 441 410 423.5 Q410 406 394.5 404 Q379 402 340 402 L320 402 Q320 383 309 305 Q305 285 301 270 L316 270 Q379 273 394.5 269.5 Q410 266 410 248 Q410 230 394.5 228.5 Q379 227 320 227 L297 227 Q297 187 301 152 Q305 78 312.5 54.5 Q320 31 353.5 43 Q387 55 404.5 58.5 Q422 62 426 37 Q430 12 412.5 8 Q395 4 352 -9.5 Q309 -23 285.5 12 Q262 47 258 105 Q254 152 258 219 Q238 219 223 211 Q180 199 168 203 Q156 207 156 223 ZM230 590 Q273 699 281 711 Q289 723 304.5 719 Q320 715 320 699 Q320 687 301 645 Q312 645 328 637 Q355 629 382.5 619 Q410 609 425.5 605.5 Q441 602 441 584 Q441 566 425.5 564 Q410 562 382.5 572 Q355 582 328 590 Q301 598 289 602 L285 602 Q281 594 273 578 Q230 477 208.5 420 Q187 363 175.5 355.5 Q164 348 152.5 357.5 Q141 367 143 384.5 Q145 402 168 443 Q191 484 230 590 ZM629 430 L629 441 Q598 437 566 426 Q496 402 484 398 Q484 383 488 363 Q508 273 519.5 269.5 Q531 266 578 270 Q605 273 633 277 Q629 348 629 430 ZM676 281 L684 285 Q738 293 748 289 Q758 285 783.5 320 Q809 355 812.5 388.5 Q816 422 794.5 435.5 Q773 449 707 449 L676 449 L676 281 Z" /><glyph glyph-name="uni9500" unicode="&#x9500;" d="M598 414 Q516 391 498 389 Q480 387 476.5 406.5 Q473 426 490.5 433.5 Q508 441 602 469 Q633 477 656 480 Q660 500 684 570 Q711 645 719 656.5 Q727 668 744.5 662 Q762 656 760 638.5 Q758 621 734 551 Q719 504 707 480 Q734 477 758 469 Q820 441 832 363 Q844 285 822.5 187.5 Q801 90 773.5 25.5 Q746 -39 734.5 -47 Q723 -55 707 -43 Q691 -31 699 -17.5 Q707 -4 732.5 60.5 Q758 125 773.5 211 Q789 297 769.5 359.5 Q750 422 715 429.5 Q680 437 598 414 ZM520 258 Q480 266 469 266 L465 266 Q469 211 469 152 L469 148 Q488 152 523 156 Q562 160 601.5 168 Q641 176 658.5 178 Q676 180 681.5 160.5 Q687 141 664 133 Q641 125 609.5 123 Q578 121 531 109 Q488 102 469 102 Q473 62 473 51 Q473 31 453.5 27 Q434 23 428 41 Q422 59 422 150.5 Q422 242 414 312 Q410 387 408 410.5 Q406 434 427.5 437.5 Q449 441 457 416 Q465 391 465 312 L465 309 Q469 312 477 312 Q496 312 527.5 308.5 Q559 305 605.5 303 Q652 301 666 297 Q680 293 676 269.5 Q672 246 654.5 248 Q637 250 598 252 Q559 254 520 258 ZM125 223 Q125 238 138.5 244 Q152 250 187 258 Q207 262 234 262 L234 270 Q242 359 246 383 L242 383 Q211 379 199 383 Q187 387 187 402.5 Q187 418 201 424 Q215 430 240.5 428 Q266 426 310.5 428 Q355 430 371 426 Q387 422 387 404.5 Q387 387 371 385 Q355 383 316 383 L293 383 Q293 363 281 297 Q277 281 273 270 L289 270 Q355 273 371 269.5 Q387 266 387 248 Q387 230 371 228.5 Q355 227 297 227 L270 227 Q270 195 273 160 Q277 94 285 74.5 Q293 55 328 66.5 Q363 78 380.5 82 Q398 86 402 60.5 Q406 35 388.5 31 Q371 27 326 13.5 Q281 0 257.5 31 Q234 62 230 117 Q227 156 230 219 Q211 219 191 211 Q148 199 136.5 203 Q125 207 125 223 ZM227 566 Q277 648 285 660 Q293 672 308.5 668 Q324 664 324 648 Q324 637 301 602 L305 598 Q332 590 373 582 Q414 574 429.5 570 Q445 566 445 548.5 Q445 531 429.5 529 Q414 527 379 539 Q344 551 309 555 Q285 555 273 559 L270 555 Q219 477 195.5 432 Q172 387 160 379 Q148 371 136.5 381 Q125 391 127 408.5 Q129 426 154.5 455 Q180 484 227 566 ZM582 672 Q590 719 603.5 724.5 Q617 730 627 720.5 Q637 711 635 697.5 Q633 684 629 643 Q625 602 629 551 Q633 500 623 494 Q613 488 603.5 492 Q594 496 590 508 Q586 520 582 572.5 Q578 625 582 672 ZM469 527 Q457 582 455 595.5 Q453 609 466.5 615 Q480 621 490 609.5 Q500 598 513.5 549 Q527 500 527 484.5 Q527 469 515.5 465 Q504 461 492 469 Q480 477 469 527 Z" /><glyph glyph-name="uni9501" unicode="&#x9501;" d="M414 324 Q414 410 418 427.5 Q422 445 441.5 443 Q461 441 461 422 L461 398 Q477 406 504 418 L496 422 Q484 430 461 512 Q441 598 443 609.5 Q445 621 457 625 Q469 629 476.5 625 Q484 621 505.5 537 Q527 453 527 437 Q527 434 523 430 Q551 437 582 449 Q676 484 744 453 Q812 422 820 367 Q828 312 818.5 277 Q809 242 795 195 Q781 148 761.5 136.5 Q742 125 730.5 140.5 Q719 156 724.5 170 Q730 184 748 228.5 Q766 273 769.5 298.5 Q773 324 767.5 355.5 Q762 387 709 410.5 Q656 434 574 395 Q496 359 469 352 Q465 352 461 352 Q461 336 461 312 Q465 223 472.5 180 Q480 137 478.5 117.5 Q477 98 463 94 Q449 90 441.5 97.5 Q434 105 426 173.5 Q418 242 414 324 ZM133 230 Q133 246 146.5 252 Q160 258 195 262 Q211 266 238 270 L238 277 Q246 363 246 391 Q219 387 207 391 Q195 395 195 410.5 Q195 426 209 431.5 Q223 437 244.5 435.5 Q266 434 309 435.5 Q352 437 367.5 433.5 Q383 430 383 412.5 Q383 395 367.5 393 Q352 391 312 391 L293 391 Q293 371 281 305 L277 273 L289 273 Q352 281 367.5 277 Q383 273 383 255.5 Q383 238 367.5 236 Q352 234 297 230 L273 230 Q273 199 277 168 Q281 98 287 78.5 Q293 59 326 70.5 Q359 82 377 86 Q395 90 398.5 64.5 Q402 39 384.5 35 Q367 31 324 17.5 Q281 4 259.5 35 Q238 66 234 121 Q230 164 234 227 L199 219 Q156 207 144.5 211 Q133 215 133 230 ZM207 566 Q250 664 258 675.5 Q266 687 281.5 683.5 Q297 680 297 664 Q297 652 281 617 Q289 617 305 613 L355 594 Q387 586 402.5 582 Q418 578 418 560.5 Q418 543 402.5 541 Q387 539 357.5 549 Q328 559 302.5 564.5 Q277 570 266 574 L262 574 Q258 566 250 555 Q207 465 185.5 412 Q164 359 152.5 351.5 Q141 344 129 353.5 Q117 363 119 380.5 Q121 398 144.5 435.5 Q168 473 207 566 ZM570 211 Q621 305 640.5 314.5 Q660 324 672 308.5 Q684 293 666 277.5 Q648 262 597.5 172 Q547 82 527.5 33 Q508 -16 494 -21.5 Q480 -27 468.5 -23.5 Q457 -20 457 -4 Q457 12 488.5 64.5 Q520 117 570 211 ZM695 55 Q637 74 625 86 Q613 98 617 109.5 Q621 121 636.5 123 Q652 125 716.5 97.5 Q781 70 820 58.5 Q859 47 869 35 Q879 23 873 7.5 Q867 -8 849.5 -6 Q832 -4 795 15.5 Q758 35 695 55 ZM582 672 Q586 723 594 728.5 Q602 734 617.5 730.5 Q633 727 635 709 Q637 691 631 650 Q625 609 633 562.5 Q641 516 639 500 Q637 484 619.5 484 Q602 484 596 500 Q590 516 584 570.5 Q578 625 582 672 ZM684 621 Q715 672 722.5 683.5 Q730 695 748 689.5 Q766 684 764 666 Q762 648 734.5 601.5 Q707 555 697 539 Q687 523 669.5 529 Q652 535 654 552.5 Q656 570 684 621 Z" /><glyph glyph-name="uni957F" unicode="&#x957f;" d="M352 555 Q367 672 369 695.5 Q371 719 398.5 715 Q426 711 422 689.5 Q418 668 402 543 Q395 457 387 371 Q488 387 578 395 Q699 410 716.5 412 Q734 414 740 394.5 Q746 375 722.5 367 Q699 359 586 352 Q496 344 387 328 L387 305 Q383 191 379 128.5 Q375 66 404.5 50.5 Q434 35 480.5 58.5 Q527 82 541 82 Q555 82 557 58.5 Q559 35 549 29 Q539 23 476.5 1.5 Q414 -20 369 1.5 Q324 23 328 117 Q332 207 336 320 Q195 301 177.5 305 Q160 309 158 326.5 Q156 344 175.5 348 Q195 352 328 367 L336 367 Q340 457 352 555 ZM609 187 Q562 207 541 220.5 Q520 234 529.5 252 Q539 270 556.5 266 Q574 262 621 236.5 Q668 211 744 183.5 Q820 156 832 140.5 Q844 125 832 111.5 Q820 98 804.5 101.5 Q789 105 722.5 138.5 Q656 172 609 187 ZM559 504 Q516 465 502 457 Q488 449 476.5 457 Q465 465 472.5 482.5 Q480 500 531 549 Q582 598 597.5 603.5 Q613 609 623 595.5 Q633 582 619 564.5 Q605 547 559 504 Z" /><glyph glyph-name="uni95EE" unicode="&#x95ee;" d="M254 617 Q234 629 220.5 642.5 Q207 656 209 671.5 Q211 687 224.5 687 Q238 687 254 669.5 Q270 652 285.5 654 Q301 656 310.5 648.5 Q320 641 316 627 Q312 613 300.5 609 Q289 605 281 605 Q273 605 254 617 ZM211 395 Q207 484 215 490 Q223 496 234.5 492 Q246 488 248 474.5 Q250 461 252 381 Q254 301 260 201.5 Q266 102 264 90 Q262 78 248 78 Q234 78 228.5 90 Q223 102 219 205.5 Q215 309 211 395 ZM527 652 Q402 641 388.5 637 Q375 633 363.5 639 Q352 645 353.5 664.5 Q355 684 517.5 699.5 Q680 715 711 707 Q742 699 765.5 685.5 Q789 672 806.5 629 Q824 586 812.5 388.5 Q801 191 777.5 109 Q754 27 726.5 -8 Q699 -43 687.5 -39 Q676 -35 670 -23.5 Q664 -12 672 0 Q680 12 699.5 45 Q719 78 734.5 134.5 Q750 191 761.5 378.5 Q773 566 755.5 603.5 Q738 641 720.5 650.5 Q703 660 677.5 662 Q652 664 527 652 ZM395 445 Q391 461 406.5 472.5 Q422 484 476.5 509.5 Q531 535 576 535 Q621 535 658 517.5 Q695 500 693 431.5 Q691 363 664 310.5 Q637 258 641 236.5 Q645 215 617.5 213 Q590 211 502 207 Q414 203 392.5 209 Q371 215 359.5 232.5 Q348 250 338 347.5 Q328 445 324 461 Q320 477 337.5 482.5 Q355 488 365 474.5 Q375 461 381 365.5 Q387 270 402.5 260 Q418 250 488.5 252 Q559 254 574.5 265.5 Q590 277 615.5 326 Q641 375 644.5 422 Q648 469 623 478.5 Q598 488 566.5 488 Q535 488 486 464.5 Q437 441 419.5 435.5 Q402 430 395 445 Z" /><glyph glyph-name="uni95F4" unicode="&#x95f4;" d="M508 645 Q406 613 392.5 609 Q379 605 367 611 Q355 617 357 636.5 Q359 656 498 691.5 Q637 727 668 719 Q699 711 720.5 697.5 Q742 684 789 625 Q836 566 830 406 Q824 246 783 138.5 Q742 31 711 -2 Q680 -35 668 -31 Q656 -27 650.5 -15.5 Q645 -4 652.5 8 Q660 20 683.5 51 Q707 82 740 164 Q773 246 779 396.5 Q785 547 740 599.5 Q695 652 677.5 662 Q660 672 636.5 674 Q613 676 508 645 ZM406 270 L387 270 Q391 250 395 227 Q398 184 402 168 Q414 168 426 168 Q457 172 484 176 Q508 180 527 184 Q535 203 562 258 Q590 320 588 359 Q586 398 572.5 412 Q559 426 527.5 433.5 Q496 441 445 426 Q395 414 377 416 Q359 418 357 435.5 Q355 453 371 459 Q387 465 441.5 476.5 Q496 488 547 480.5 Q598 473 619.5 445.5 Q641 418 641 367 Q641 316 609.5 246 Q578 176 562 152 Q555 137 539 141 Q516 133 494.5 133 Q473 133 434 125 Q398 117 380.5 121 Q363 125 359 141 Q359 148 363 156 Q359 172 353.5 228.5 Q348 285 340 332 Q332 379 330 398.5 Q328 418 345.5 422 Q363 426 371 404.5 Q379 383 383 332 L383 309 Q395 309 410 312 Q437 316 470.5 322 Q504 328 517.5 324 Q531 320 527 300.5 Q523 281 509.5 283 Q496 285 466.5 279 Q437 273 406 270 ZM195 355 Q191 441 199 447 Q207 453 222.5 449 Q238 445 240 427.5 Q242 410 246 332 Q250 254 269.5 160 Q289 66 287 50.5 Q285 35 267.5 35 Q250 35 244 50.5 Q238 66 220.5 168 Q203 270 195 355 ZM215 562 Q187 570 173.5 584 Q160 598 162 613.5 Q164 629 177.5 629 Q191 629 214.5 615.5 Q238 602 261.5 603.5 Q285 605 295 597.5 Q305 590 301 576 Q297 562 285 558.5 Q273 555 257.5 555 Q242 555 215 562 Z" /><glyph glyph-name="uni9700" unicode="&#x9700;" d="M445 684 Q434 684 422 684 Q375 680 363.5 683.5 Q352 687 352 703 Q352 719 365.5 724.5 Q379 730 418 728.5 Q457 727 521.5 728.5 Q586 730 601.5 726.5 Q617 723 617 705 Q617 687 601.5 685.5 Q586 684 527 684 L480 684 Q484 668 484 629 L484 586 Q555 602 617 609 Q621 629 629 641 Q637 656 654.5 650.5 Q672 645 668 625 L664 609 Q746 613 777 586 Q812 555 810.5 525.5 Q809 496 795 465 Q781 434 769.5 416 Q758 398 740.5 404 Q723 410 725 422 Q727 434 744.5 471 Q762 508 758 525.5 Q754 543 730 555 Q715 566 656 562 Q656 543 652 512 Q652 477 648.5 463 Q645 449 627 451 Q609 453 609 472.5 Q609 492 613 520 Q613 539 617 562 Q559 555 488 539 Q488 523 492 504 Q504 441 492 430 Q523 430 562 430 Q633 434 646.5 434 Q660 434 658 412.5 Q656 391 641 391 L531 391 Q520 367 496 316 Q477 277 465 258 Q570 285 660 277 Q773 266 781 215 Q789 164 752 101.5 Q715 39 687.5 13.5 Q660 -12 644.5 -23.5 Q629 -35 617 -19.5 Q605 -4 611 6 Q617 16 648.5 39 Q680 62 711 119 Q742 176 736 203 Q730 230 633 238 L617 238 L617 234 Q613 215 607.5 185.5 Q602 156 598 115 Q594 74 590 58.5 Q586 43 566.5 45 Q547 47 547 68.5 Q547 90 553 123 Q559 156 562 195 Q562 223 566 238 Q500 230 418 199 Q418 187 414 164 Q410 129 418 82 Q426 35 424 23.5 Q422 12 408.5 12 Q395 12 389 23.5 Q383 35 377 86 Q371 137 375 180 Q277 145 258 137 Q250 137 242 137 Q250 105 266 74 Q285 31 285 15.5 Q285 0 269.5 -4 Q254 -8 248 9.5 Q242 27 224.5 76 Q207 125 195.5 164 Q184 203 182 222.5 Q180 242 197.5 246 Q215 250 222.5 228.5 Q230 207 234 168 Q238 172 246 176 Q277 195 414 242 L426 246 Q422 250 422 254 Q422 266 461 336 Q477 367 488 391 L426 387 Q363 387 353.5 389 Q344 391 344 410 Q344 418 344 418 L336 418 Q316 422 316 443.5 Q316 465 320 488 Q320 496 320 500 Q285 492 273 488 Q246 484 240 502 Q234 520 242 523 Q250 527 320 547 Q320 574 328 591.5 Q336 609 355.5 603.5 Q375 598 371 574 L367 559 Q379 562 391 566 Q418 570 445 578 L445 684 ZM176 496 Q172 578 179.5 588 Q187 598 203 598 Q219 598 221 576.5 Q223 555 219 488.5 Q215 422 215 408.5 Q215 395 201 393 Q187 391 183.5 402.5 Q180 414 176 496 ZM414 523 Q387 516 367 508 Q363 496 363 480 Q363 449 359 434 L355 430 L465 430 Q457 434 457 441 Q453 457 449 523 Q449 527 445 531 Q430 527 414 523 Z" /><glyph glyph-name="uni9875" unicode="&#x9875;" d="M430 422 Q328 391 305 383 Q297 383 289 383 Q289 371 289 355 Q293 305 299 248 Q305 191 305 175.5 Q305 160 289 156 Q273 152 267.5 169.5 Q262 187 258 248 Q254 309 246 355 Q242 406 240 425.5 Q238 445 255.5 449 Q273 453 281 430 Q281 426 285 418 Q289 418 293 422 Q324 441 435.5 470.5 Q547 500 623 474.5 Q699 449 707 398.5 Q715 348 689.5 293 Q664 238 642.5 211 Q621 184 605.5 172 Q590 160 578 175.5 Q566 191 572 201 Q578 211 603.5 236.5 Q629 262 648.5 310.5 Q668 359 662 386.5 Q656 414 593.5 435.5 Q531 457 430 422 ZM375 652 Q297 652 287 654 Q277 656 277 675.5 Q277 695 289 695 L383 695 Q461 695 551 697 Q641 699 654.5 699 Q668 699 666 677.5 Q664 656 648 656 L504 656 Q496 637 461 574 Q422 504 412 500 Q402 496 394.5 500 Q387 504 385 515.5 Q383 527 426 594 Q449 633 461 656 Q418 652 375 652 ZM426 238 Q480 297 496 301 Q512 305 519.5 291 Q527 277 515.5 261.5 Q504 246 451 191.5 Q398 137 347.5 74.5 Q297 12 279.5 10 Q262 8 258 23.5 Q254 39 267.5 56.5 Q281 74 328 127 Q375 180 426 238 ZM543 74 Q477 94 465 94 Q453 94 455 119.5 Q457 145 474.5 143 Q492 141 550.5 123 Q609 105 671.5 83.5 Q734 62 748 58.5 Q762 55 758 31.5 Q754 8 736.5 10 Q719 12 664 33.5 Q609 55 543 74 Z" /><glyph glyph-name="uni9ED1" unicode="&#x9ed1;" d="M430 379 Q359 371 341.5 375 Q324 379 322 396.5 Q320 414 339.5 418 Q359 422 422 426 Q441 426 461 426 Q457 484 457 535 L457 633 Q457 652 472.5 652 Q488 652 492 640.5 Q496 629 496 531 Q500 480 500 430 L543 437 Q602 449 617 449 Q625 449 633 445 Q633 449 633 453 Q641 465 656.5 482.5 Q672 500 701 552.5 Q730 605 724.5 632.5 Q719 660 648.5 677.5 Q578 695 465 664 Q355 637 333.5 631 Q312 625 302.5 638.5 Q293 652 322.5 669.5 Q352 687 473 712.5 Q594 738 678 716.5 Q762 695 769.5 644.5 Q777 594 742 535 L695 457 Q684 437 668 425.5 Q652 414 645 426 Q641 410 625 406 Q602 398 551 395 Q527 391 504 391 Q508 363 508 336 Q523 340 539 340 Q613 352 627 352 Q641 352 639 330.5 Q637 309 621 309 Q605 309 535 301 Q523 297 512 297 Q516 250 512 234 Q559 242 602 246 Q711 258 728.5 260 Q746 262 752 242.5 Q758 223 734.5 215 Q711 207 609.5 201 Q508 195 379 180 Q254 164 236.5 168 Q219 172 217 189.5 Q215 207 234.5 211 Q254 215 371 223 Q422 227 473 230 Q469 242 465 289 Q430 289 398 285 Q332 281 322 283 Q312 285 312 304.5 Q312 324 326 324 Q340 324 402 328 Q434 328 465 332 L465 352 Q465 367 461 383 Q445 379 430 379 ZM375 86 Q355 125 355 140.5 Q355 156 371 160 Q387 164 395 148 L418 109 Q434 82 443.5 76 Q453 70 472.5 72 Q492 74 566.5 119 Q641 164 668 170 Q695 176 738 164 Q781 152 795 119 Q809 86 805 62.5 Q801 39 775.5 6 Q750 -27 730.5 -31 Q711 -35 701 -19.5 Q691 -4 701 4 Q711 12 734.5 45 Q758 78 744 99.5 Q730 121 703 123 Q676 125 658.5 119 Q641 113 574.5 74 Q508 35 482.5 27.5 Q457 20 426 35.5 Q395 51 375 86 ZM238 547 Q230 586 228.5 605.5 Q227 625 244.5 629 Q262 633 269.5 611.5 Q277 590 281 549 Q285 508 291 463 Q297 418 297 402.5 Q297 387 281.5 383 Q266 379 260 396.5 Q254 414 250 463 Q246 512 238 547 ZM535 578 Q539 602 547 619.5 Q555 637 574.5 631 Q594 625 590 603.5 Q586 582 580 568.5 Q574 555 572 527.5 Q570 500 566 484.5 Q562 469 542.5 471 Q523 473 523 494.5 Q523 516 527 535.5 Q531 555 535 578 ZM367 543 Q359 578 359 593.5 Q359 609 369 617 Q379 625 390.5 617 Q402 609 412 548.5 Q422 488 420 476.5 Q418 465 404.5 465 Q391 465 383 488.5 Q375 512 367 543 ZM191 59 Q191 94 199 105.5 Q207 117 224.5 113 Q242 109 242 90 L242 39 Q242 4 238 -4 Q234 -12 220.5 -14 Q207 -16 199 3.5 Q191 23 191 59 Z" /><glyph glyph-name="uniFF0C" unicode="&#xff0c;" d="M348 176 Q371 176 395 164 Q414 141 414 109 Q410 51 379 0 Q352 -20 316 -20 Q309 4 332 27 Q348 51 336 70 L328 74 Q305 94 301 125 Q305 145 324 164 L348 176 Z" /><glyph glyph-name="uniFF1F" unicode="&#xff1f;" d="M469 574 Q500 578 527 562 L562 555 L570 547 L578 547 Q621 500 621 437 Q605 387 583.5 336 Q562 285 535 238 Q535 215 520 195 Q504 184 488 199 Q488 211 486 219 Q484 227 480 234 Q488 242 480 254 L488 250 L488 254 L484 254 Q508 289 531.5 328 Q555 367 570 410 Q574 418 574 426 L574 441 Q574 484 543 516 Q512 527 488 527 Q469 527 449 520 L437 520 L430 512 L418 508 Q375 465 375 402 Q379 391 379 379 Q379 367 387 348 L375 348 L355 359 Q328 395 340 441 Q352 496 395 539 Q422 574 469 574 ZM461 117 L465 113 L488 113 Q500 113 512 109 L516 105 Q527 102 537 98 Q547 94 559 86 Q559 74 557 66.5 Q555 59 547 55 Q539 51 529.5 55 Q520 59 512 66 Q496 66 482.5 68 Q469 70 457 78 Q441 90 449 105 L461 117 Z" /></font>
</defs>
</svg>
